%TF.GenerationSoftware,KiCad,Pcbnew,(6.0.4)*%
%TF.CreationDate,2022-07-20T20:12:39-04:00*%
%TF.ProjectId,Palette_Chip_KiCAD,50616c65-7474-4655-9f43-6869705f4b69,rev?*%
%TF.SameCoordinates,Original*%
%TF.FileFunction,Copper,L1,Top*%
%TF.FilePolarity,Positive*%
%FSLAX46Y46*%
G04 Gerber Fmt 4.6, Leading zero omitted, Abs format (unit mm)*
G04 Created by KiCad (PCBNEW (6.0.4)) date 2022-07-20 20:12:39*
%MOMM*%
%LPD*%
G01*
G04 APERTURE LIST*
G04 Aperture macros list*
%AMRoundRect*
0 Rectangle with rounded corners*
0 $1 Rounding radius*
0 $2 $3 $4 $5 $6 $7 $8 $9 X,Y pos of 4 corners*
0 Add a 4 corners polygon primitive as box body*
4,1,4,$2,$3,$4,$5,$6,$7,$8,$9,$2,$3,0*
0 Add four circle primitives for the rounded corners*
1,1,$1+$1,$2,$3*
1,1,$1+$1,$4,$5*
1,1,$1+$1,$6,$7*
1,1,$1+$1,$8,$9*
0 Add four rect primitives between the rounded corners*
20,1,$1+$1,$2,$3,$4,$5,0*
20,1,$1+$1,$4,$5,$6,$7,0*
20,1,$1+$1,$6,$7,$8,$9,0*
20,1,$1+$1,$8,$9,$2,$3,0*%
G04 Aperture macros list end*
%TA.AperFunction,SMDPad,CuDef*%
%ADD10R,1.100000X1.100000*%
%TD*%
%TA.AperFunction,SMDPad,CuDef*%
%ADD11RoundRect,0.140000X-0.140000X-0.170000X0.140000X-0.170000X0.140000X0.170000X-0.140000X0.170000X0*%
%TD*%
%TA.AperFunction,ComponentPad*%
%ADD12RoundRect,0.381000X-0.869000X-0.381000X0.869000X-0.381000X0.869000X0.381000X-0.869000X0.381000X0*%
%TD*%
%TA.AperFunction,SMDPad,CuDef*%
%ADD13RoundRect,0.135000X0.185000X-0.135000X0.185000X0.135000X-0.185000X0.135000X-0.185000X-0.135000X0*%
%TD*%
%TA.AperFunction,SMDPad,CuDef*%
%ADD14R,1.295400X2.006600*%
%TD*%
%TA.AperFunction,SMDPad,CuDef*%
%ADD15R,0.600000X1.450000*%
%TD*%
%TA.AperFunction,SMDPad,CuDef*%
%ADD16R,0.300000X1.450000*%
%TD*%
%TA.AperFunction,ComponentPad*%
%ADD17O,1.000000X2.100000*%
%TD*%
%TA.AperFunction,ComponentPad*%
%ADD18O,1.000000X1.600000*%
%TD*%
%TA.AperFunction,SMDPad,CuDef*%
%ADD19RoundRect,0.140000X0.140000X0.170000X-0.140000X0.170000X-0.140000X-0.170000X0.140000X-0.170000X0*%
%TD*%
%TA.AperFunction,SMDPad,CuDef*%
%ADD20RoundRect,0.135000X-0.185000X0.135000X-0.185000X-0.135000X0.185000X-0.135000X0.185000X0.135000X0*%
%TD*%
%TA.AperFunction,SMDPad,CuDef*%
%ADD21R,1.050000X0.650000*%
%TD*%
%TA.AperFunction,SMDPad,CuDef*%
%ADD22RoundRect,0.150000X-0.650000X-0.150000X0.650000X-0.150000X0.650000X0.150000X-0.650000X0.150000X0*%
%TD*%
%TA.AperFunction,SMDPad,CuDef*%
%ADD23RoundRect,0.140000X-0.170000X0.140000X-0.170000X-0.140000X0.170000X-0.140000X0.170000X0.140000X0*%
%TD*%
%TA.AperFunction,SMDPad,CuDef*%
%ADD24RoundRect,0.135000X0.135000X0.185000X-0.135000X0.185000X-0.135000X-0.185000X0.135000X-0.185000X0*%
%TD*%
%TA.AperFunction,SMDPad,CuDef*%
%ADD25RoundRect,0.050000X-0.387500X-0.050000X0.387500X-0.050000X0.387500X0.050000X-0.387500X0.050000X0*%
%TD*%
%TA.AperFunction,SMDPad,CuDef*%
%ADD26RoundRect,0.050000X-0.050000X-0.387500X0.050000X-0.387500X0.050000X0.387500X-0.050000X0.387500X0*%
%TD*%
%TA.AperFunction,SMDPad,CuDef*%
%ADD27RoundRect,0.144000X-1.456000X-1.456000X1.456000X-1.456000X1.456000X1.456000X-1.456000X1.456000X0*%
%TD*%
%TA.AperFunction,ComponentPad*%
%ADD28C,0.600000*%
%TD*%
%TA.AperFunction,SMDPad,CuDef*%
%ADD29RoundRect,0.140000X0.170000X-0.140000X0.170000X0.140000X-0.170000X0.140000X-0.170000X-0.140000X0*%
%TD*%
%TA.AperFunction,SMDPad,CuDef*%
%ADD30R,1.000000X2.150000*%
%TD*%
%TA.AperFunction,SMDPad,CuDef*%
%ADD31R,3.250000X2.150000*%
%TD*%
%TA.AperFunction,SMDPad,CuDef*%
%ADD32RoundRect,0.135000X-0.135000X-0.185000X0.135000X-0.185000X0.135000X0.185000X-0.135000X0.185000X0*%
%TD*%
%TA.AperFunction,ViaPad*%
%ADD33C,0.600000*%
%TD*%
%TA.AperFunction,Conductor*%
%ADD34C,0.150000*%
%TD*%
%TA.AperFunction,Conductor*%
%ADD35C,0.200000*%
%TD*%
%TA.AperFunction,Conductor*%
%ADD36C,0.800000*%
%TD*%
%TA.AperFunction,Conductor*%
%ADD37C,0.300000*%
%TD*%
%TA.AperFunction,Conductor*%
%ADD38C,0.400000*%
%TD*%
G04 APERTURE END LIST*
D10*
%TO.P,D14,1,K*%
%TO.N,Net-(C14-Pad1)*%
X152275000Y-79450000D03*
%TO.P,D14,2,A*%
%TO.N,VBUS*%
X149475000Y-79450000D03*
%TD*%
D11*
%TO.P,C15,1*%
%TO.N,ADC_IOVDD(43)*%
X152945000Y-90380000D03*
%TO.P,C15,2*%
%TO.N,GND*%
X153905000Y-90380000D03*
%TD*%
D12*
%TO.P,2,1*%
%TO.N,unconnected-(U1-Pad40)*%
X158415000Y-81500000D03*
%TD*%
D13*
%TO.P,R3,1*%
%TO.N,BOOT*%
X133520000Y-91780000D03*
%TO.P,R3,2*%
%TO.N,QSPI_CS*%
X133520000Y-90760000D03*
%TD*%
D14*
%TO.P,Y1,1,1*%
%TO.N,Net-(C3-Pad2)*%
X145157300Y-104645100D03*
%TO.P,Y1,2,2*%
%TO.N,XIN*%
X141452700Y-104645100D03*
%TD*%
D15*
%TO.P,USB1,1,GND*%
%TO.N,GND*%
X146630000Y-84062500D03*
%TO.P,USB1,2,VBUS*%
%TO.N,VBUS*%
X145855000Y-84062500D03*
D16*
%TO.P,USB1,3,SBU2*%
%TO.N,unconnected-(USB1-Pad3)*%
X145155000Y-84062500D03*
%TO.P,USB1,4,CC1*%
%TO.N,Net-(R6-Pad1)*%
X144655000Y-84062500D03*
%TO.P,USB1,5,DN2*%
%TO.N,/USB_D-*%
X144155000Y-84062500D03*
%TO.P,USB1,6,DP1*%
%TO.N,/USB_D+*%
X143655000Y-84062500D03*
%TO.P,USB1,7,DN1*%
%TO.N,/USB_D-*%
X143155000Y-84062500D03*
%TO.P,USB1,8,DP2*%
%TO.N,/USB_D+*%
X142655000Y-84062500D03*
%TO.P,USB1,9,SBU1*%
%TO.N,unconnected-(USB1-Pad9)*%
X142155000Y-84062500D03*
%TO.P,USB1,10,CC2*%
%TO.N,Net-(R5-Pad1)*%
X141655000Y-84062500D03*
D15*
%TO.P,USB1,11,VBUS*%
%TO.N,VBUS*%
X140955000Y-84062500D03*
%TO.P,USB1,12,GND*%
%TO.N,GND*%
X140180000Y-84062500D03*
D17*
%TO.P,USB1,13,SHIELD*%
X139085000Y-83147500D03*
D18*
X147725000Y-78967500D03*
X139085000Y-78967500D03*
D17*
X147725000Y-83147500D03*
%TD*%
D11*
%TO.P,C12,1*%
%TO.N,ADC_IOVDD(43)*%
X148995000Y-91217500D03*
%TO.P,C12,2*%
%TO.N,GND*%
X149955000Y-91217500D03*
%TD*%
D12*
%TO.P,7,1*%
%TO.N,unconnected-(U1-Pad35)*%
X158415000Y-92500000D03*
%TD*%
D19*
%TO.P,C16,1*%
%TO.N,ADC_IOVDD(43)*%
X137005000Y-80790000D03*
%TO.P,C16,2*%
%TO.N,GND*%
X136045000Y-80790000D03*
%TD*%
%TO.P,C10,1*%
%TO.N,ADC_IOVDD(43)*%
X138485000Y-95497500D03*
%TO.P,C10,2*%
%TO.N,GND*%
X137525000Y-95497500D03*
%TD*%
D12*
%TO.P,Led2,1*%
%TO.N,LED2*%
X128415000Y-95690000D03*
%TD*%
D20*
%TO.P,R1,1*%
%TO.N,XOUT*%
X141965000Y-100370000D03*
%TO.P,R1,2*%
%TO.N,Net-(C3-Pad2)*%
X141965000Y-101390000D03*
%TD*%
D12*
%TO.P,5,1*%
%TO.N,unconnected-(U1-Pad37)*%
X158415000Y-88100000D03*
%TD*%
D11*
%TO.P,C9,1*%
%TO.N,ADC_IOVDD(43)*%
X148305000Y-95500000D03*
%TO.P,C9,2*%
%TO.N,GND*%
X149265000Y-95500000D03*
%TD*%
D12*
%TO.P,6,1*%
%TO.N,unconnected-(U1-Pad36)*%
X158415000Y-90300000D03*
%TD*%
D21*
%TO.P,S2,1,1*%
%TO.N,RESET*%
X152245000Y-94225000D03*
%TO.P,S2,2,2*%
%TO.N,GND*%
X156395000Y-94225000D03*
%TO.P,S2,3,3*%
%TO.N,RESET*%
X152245000Y-96375000D03*
%TO.P,S2,4,4*%
%TO.N,GND*%
X156395000Y-96375000D03*
%TD*%
D12*
%TO.P,4,1*%
%TO.N,unconnected-(U1-Pad38)*%
X158415000Y-85900000D03*
%TD*%
%TO.P,1,1*%
%TO.N,unconnected-(U1-Pad41)*%
X158415000Y-79300000D03*
%TD*%
D13*
%TO.P,R4,1*%
%TO.N,ADC_IOVDD(43)*%
X134500000Y-91780000D03*
%TO.P,R4,2*%
%TO.N,QSPI_CS*%
X134500000Y-90760000D03*
%TD*%
D12*
%TO.P,Rot_A,1*%
%TO.N,Rot_A*%
X128415000Y-89090000D03*
%TD*%
D22*
%TO.P,U2,1,~{CS}*%
%TO.N,QSPI_CS*%
X129805000Y-82525000D03*
%TO.P,U2,2,DO(IO1)*%
%TO.N,QSPI_SD1*%
X129805000Y-83795000D03*
%TO.P,U2,3,IO2*%
%TO.N,QSPI_SD2*%
X129805000Y-85065000D03*
%TO.P,U2,4,GND*%
%TO.N,GND*%
X129805000Y-86335000D03*
%TO.P,U2,5,DI(IO0)*%
%TO.N,QSPI_SD0*%
X137005000Y-86335000D03*
%TO.P,U2,6,CLK*%
%TO.N,QSPI_CLK*%
X137005000Y-85065000D03*
%TO.P,U2,7,IO3*%
%TO.N,QSPI_SP3*%
X137005000Y-83795000D03*
%TO.P,U2,8,VCC*%
%TO.N,ADC_IOVDD(43)*%
X137005000Y-82525000D03*
%TD*%
D23*
%TO.P,C11,1*%
%TO.N,ADC_IOVDD(43)*%
X143595000Y-99930000D03*
%TO.P,C11,2*%
%TO.N,GND*%
X143595000Y-100890000D03*
%TD*%
D20*
%TO.P,R7,1*%
%TO.N,/USB_D-*%
X145375000Y-88055000D03*
%TO.P,R7,2*%
%TO.N,USB_D-(46)*%
X145375000Y-89075000D03*
%TD*%
D12*
%TO.P,3,1*%
%TO.N,unconnected-(U1-Pad39)*%
X158415000Y-83700000D03*
%TD*%
D13*
%TO.P,R2,1*%
%TO.N,ADC_IOVDD(43)*%
X150440000Y-97400000D03*
%TO.P,R2,2*%
%TO.N,RESET*%
X150440000Y-96380000D03*
%TD*%
D19*
%TO.P,C3,1*%
%TO.N,GND*%
X144725000Y-102320000D03*
%TO.P,C3,2*%
%TO.N,Net-(C3-Pad2)*%
X143765000Y-102320000D03*
%TD*%
D11*
%TO.P,C14,1*%
%TO.N,Net-(C14-Pad1)*%
X155125000Y-79440000D03*
%TO.P,C14,2*%
%TO.N,GND*%
X156085000Y-79440000D03*
%TD*%
D24*
%TO.P,R5,1*%
%TO.N,Net-(R5-Pad1)*%
X139885000Y-86440000D03*
%TO.P,R5,2*%
%TO.N,GND*%
X138865000Y-86440000D03*
%TD*%
D13*
%TO.P,R8,1*%
%TO.N,USB_D+(47)*%
X144395000Y-89075000D03*
%TO.P,R8,2*%
%TO.N,/USB_D+*%
X144395000Y-88055000D03*
%TD*%
D25*
%TO.P,U1,1,IOVDD*%
%TO.N,ADC_IOVDD(43)*%
X139957500Y-91897500D03*
%TO.P,U1,2,GPIO0*%
%TO.N,unconnected-(U1-Pad2)*%
X139957500Y-92297500D03*
%TO.P,U1,3,GPIO1*%
%TO.N,Rot_A*%
X139957500Y-92697500D03*
%TO.P,U1,4,GPIO2*%
%TO.N,Rot_B*%
X139957500Y-93097500D03*
%TO.P,U1,5,GPIO3*%
%TO.N,LED1*%
X139957500Y-93497500D03*
%TO.P,U1,6,GPIO4*%
%TO.N,LED2*%
X139957500Y-93897500D03*
%TO.P,U1,7,GPIO5*%
%TO.N,unconnected-(U1-Pad7)*%
X139957500Y-94297500D03*
%TO.P,U1,8,GPIO6*%
%TO.N,unconnected-(U1-Pad8)*%
X139957500Y-94697500D03*
%TO.P,U1,9,GPIO7*%
%TO.N,unconnected-(U1-Pad9)*%
X139957500Y-95097500D03*
%TO.P,U1,10,IOVDD*%
%TO.N,ADC_IOVDD(43)*%
X139957500Y-95497500D03*
%TO.P,U1,11,GPIO8*%
%TO.N,unconnected-(U1-Pad11)*%
X139957500Y-95897500D03*
%TO.P,U1,12,GPIO9*%
%TO.N,unconnected-(U1-Pad12)*%
X139957500Y-96297500D03*
%TO.P,U1,13,GPIO10*%
%TO.N,unconnected-(U1-Pad13)*%
X139957500Y-96697500D03*
%TO.P,U1,14,GPIO11*%
%TO.N,unconnected-(U1-Pad14)*%
X139957500Y-97097500D03*
D26*
%TO.P,U1,15,GPIO12*%
%TO.N,unconnected-(U1-Pad15)*%
X140795000Y-97935000D03*
%TO.P,U1,16,GPIO13*%
%TO.N,unconnected-(U1-Pad16)*%
X141195000Y-97935000D03*
%TO.P,U1,17,GPIO14*%
%TO.N,unconnected-(U1-Pad17)*%
X141595000Y-97935000D03*
%TO.P,U1,18,GPIO15*%
%TO.N,unconnected-(U1-Pad18)*%
X141995000Y-97935000D03*
%TO.P,U1,19,TESTEN*%
%TO.N,GND*%
X142395000Y-97935000D03*
%TO.P,U1,20,XIN*%
%TO.N,XIN*%
X142795000Y-97935000D03*
%TO.P,U1,21,XOUT*%
%TO.N,XOUT*%
X143195000Y-97935000D03*
%TO.P,U1,22,IOVDD*%
%TO.N,ADC_IOVDD(43)*%
X143595000Y-97935000D03*
%TO.P,U1,23,DVDD*%
%TO.N,DVDD(23)*%
X143995000Y-97935000D03*
%TO.P,U1,24,SWCLK*%
%TO.N,unconnected-(U1-Pad24)*%
X144395000Y-97935000D03*
%TO.P,U1,25,SWDIO*%
%TO.N,unconnected-(U1-Pad25)*%
X144795000Y-97935000D03*
%TO.P,U1,26,RUN*%
%TO.N,RESET*%
X145195000Y-97935000D03*
%TO.P,U1,27,GPIO16*%
%TO.N,unconnected-(U1-Pad27)*%
X145595000Y-97935000D03*
%TO.P,U1,28,GPIO17*%
%TO.N,unconnected-(U1-Pad28)*%
X145995000Y-97935000D03*
D25*
%TO.P,U1,29,GPIO18*%
%TO.N,unconnected-(U1-Pad29)*%
X146832500Y-97097500D03*
%TO.P,U1,30,GPIO19*%
%TO.N,unconnected-(U1-Pad30)*%
X146832500Y-96697500D03*
%TO.P,U1,31,GPIO20*%
%TO.N,unconnected-(U1-Pad31)*%
X146832500Y-96297500D03*
%TO.P,U1,32,GPIO21*%
%TO.N,unconnected-(U1-Pad32)*%
X146832500Y-95897500D03*
%TO.P,U1,33,IOVDD*%
%TO.N,ADC_IOVDD(43)*%
X146832500Y-95497500D03*
%TO.P,U1,34,GPIO22*%
%TO.N,unconnected-(U1-Pad34)*%
X146832500Y-95097500D03*
%TO.P,U1,35,GPIO23*%
%TO.N,unconnected-(U1-Pad35)*%
X146832500Y-94697500D03*
%TO.P,U1,36,GPIO24*%
%TO.N,unconnected-(U1-Pad36)*%
X146832500Y-94297500D03*
%TO.P,U1,37,GPIO25*%
%TO.N,unconnected-(U1-Pad37)*%
X146832500Y-93897500D03*
%TO.P,U1,38,GPIO26/ADC0*%
%TO.N,unconnected-(U1-Pad38)*%
X146832500Y-93497500D03*
%TO.P,U1,39,GPIO27/ADC1*%
%TO.N,unconnected-(U1-Pad39)*%
X146832500Y-93097500D03*
%TO.P,U1,40,GPIO28/ADC2*%
%TO.N,unconnected-(U1-Pad40)*%
X146832500Y-92697500D03*
%TO.P,U1,41,GPIO29/ADC3*%
%TO.N,unconnected-(U1-Pad41)*%
X146832500Y-92297500D03*
%TO.P,U1,42,IOVDD*%
%TO.N,ADC_IOVDD(43)*%
X146832500Y-91897500D03*
D26*
%TO.P,U1,43,ADC_AVDD*%
X145995000Y-91060000D03*
%TO.P,U1,44,VREG_VIN*%
X145595000Y-91060000D03*
%TO.P,U1,45,VREG_VOUT*%
%TO.N,DVDD(23)*%
X145195000Y-91060000D03*
%TO.P,U1,46,USB_DM*%
%TO.N,USB_D-(46)*%
X144795000Y-91060000D03*
%TO.P,U1,47,USB_DP*%
%TO.N,USB_D+(47)*%
X144395000Y-91060000D03*
%TO.P,U1,48,USB_VDD*%
%TO.N,ADC_IOVDD(43)*%
X143995000Y-91060000D03*
%TO.P,U1,49,IOVDD*%
X143595000Y-91060000D03*
%TO.P,U1,50,DVDD*%
%TO.N,DVDD(23)*%
X143195000Y-91060000D03*
%TO.P,U1,51,QSPI_SD3*%
%TO.N,QSPI_SP3*%
X142795000Y-91060000D03*
%TO.P,U1,52,QSPI_SCLK*%
%TO.N,QSPI_CLK*%
X142395000Y-91060000D03*
%TO.P,U1,53,QSPI_SD0*%
%TO.N,QSPI_SD0*%
X141995000Y-91060000D03*
%TO.P,U1,54,QSPI_SD2*%
%TO.N,QSPI_SD2*%
X141595000Y-91060000D03*
%TO.P,U1,55,QSPI_SD1*%
%TO.N,QSPI_SD1*%
X141195000Y-91060000D03*
%TO.P,U1,56,QSPI_SS_N*%
%TO.N,QSPI_CS*%
X140795000Y-91060000D03*
D27*
%TO.P,U1,57,GND*%
%TO.N,GND*%
X143395000Y-94497500D03*
D28*
X143395000Y-95772500D03*
X144670000Y-94497500D03*
X143395000Y-93222500D03*
X143395000Y-94497500D03*
X142120000Y-95772500D03*
X142120000Y-93222500D03*
X142120000Y-94497500D03*
X144670000Y-95772500D03*
X144670000Y-93222500D03*
%TD*%
D11*
%TO.P,C2,1*%
%TO.N,GND*%
X140035000Y-102320000D03*
%TO.P,C2,2*%
%TO.N,XIN*%
X140995000Y-102320000D03*
%TD*%
D19*
%TO.P,C8,1*%
%TO.N,ADC_IOVDD(43)*%
X138485000Y-91097500D03*
%TO.P,C8,2*%
%TO.N,GND*%
X137525000Y-91097500D03*
%TD*%
D29*
%TO.P,C6,1*%
%TO.N,ADC_IOVDD(43)*%
X143415000Y-88740000D03*
%TO.P,C6,2*%
%TO.N,GND*%
X143415000Y-87780000D03*
%TD*%
%TO.P,C7,1*%
%TO.N,ADC_IOVDD(43)*%
X147305000Y-89315000D03*
%TO.P,C7,2*%
%TO.N,GND*%
X147305000Y-88355000D03*
%TD*%
D21*
%TO.P,S1,1,1*%
%TO.N,BOOT*%
X130935000Y-94240000D03*
%TO.P,S1,2,2*%
%TO.N,GND*%
X135085000Y-94240000D03*
%TO.P,S1,3,3*%
%TO.N,BOOT*%
X130935000Y-96390000D03*
%TO.P,S1,4,4*%
%TO.N,GND*%
X135085000Y-96390000D03*
%TD*%
D29*
%TO.P,C1,1*%
%TO.N,DVDD(23)*%
X142455000Y-88742500D03*
%TO.P,C1,2*%
%TO.N,GND*%
X142455000Y-87782500D03*
%TD*%
D11*
%TO.P,C13,1*%
%TO.N,ADC_IOVDD(43)*%
X148995000Y-90257500D03*
%TO.P,C13,2*%
%TO.N,GND*%
X149955000Y-90257500D03*
%TD*%
D30*
%TO.P,IC1,1,ADJUST/GROUND*%
%TO.N,GND*%
X155240750Y-82440000D03*
%TO.P,IC1,2,OUTPUT_1*%
%TO.N,unconnected-(IC1-Pad2)*%
X152940750Y-82440000D03*
%TO.P,IC1,3,INPUT*%
%TO.N,Net-(C14-Pad1)*%
X150640750Y-82440000D03*
D31*
%TO.P,IC1,4,OUTPUT_2*%
%TO.N,ADC_IOVDD(43)*%
X152940750Y-88240000D03*
%TD*%
D12*
%TO.P,Rot_B,1*%
%TO.N,Rot_B*%
X128415000Y-91290000D03*
%TD*%
%TO.P,Led1,1*%
%TO.N,LED1*%
X128415000Y-93490000D03*
%TD*%
D29*
%TO.P,C5,1*%
%TO.N,DVDD(23)*%
X146345000Y-89315000D03*
%TO.P,C5,2*%
%TO.N,GND*%
X146345000Y-88355000D03*
%TD*%
D32*
%TO.P,R6,1*%
%TO.N,Net-(R6-Pad1)*%
X146425000Y-86440000D03*
%TO.P,R6,2*%
%TO.N,GND*%
X147445000Y-86440000D03*
%TD*%
D23*
%TO.P,C4,1*%
%TO.N,DVDD(23)*%
X144675000Y-99930000D03*
%TO.P,C4,2*%
%TO.N,GND*%
X144675000Y-100890000D03*
%TD*%
D33*
%TO.N,GND*%
X147745000Y-84940000D03*
X140265000Y-103460000D03*
X156355000Y-95255000D03*
X136345000Y-96390000D03*
X138865000Y-87350000D03*
X135135000Y-80790000D03*
X136340000Y-94245000D03*
X142765000Y-100890000D03*
X140275000Y-105980000D03*
X145635000Y-102320000D03*
X146345000Y-87417500D03*
X150865000Y-91210000D03*
X146345000Y-105980000D03*
X136615000Y-95490000D03*
X140625000Y-99590000D03*
X146335000Y-103460000D03*
X154815000Y-90380000D03*
X145415000Y-101630000D03*
X143285000Y-105070000D03*
X150175000Y-95492500D03*
X148355000Y-86440000D03*
X131270000Y-86330000D03*
X156085000Y-80570000D03*
X141805000Y-86830000D03*
X150865000Y-90250000D03*
X141525000Y-103080000D03*
X142765000Y-86830000D03*
X140035000Y-101410000D03*
X139065000Y-84950000D03*
X136605000Y-91100000D03*
X156385000Y-97405000D03*
X147305000Y-87447500D03*
%TO.N,ADC_IOVDD(43)*%
X145705000Y-96810000D03*
X149625000Y-83880000D03*
X146775000Y-97870000D03*
X148195000Y-81310000D03*
%TO.N,BOOT*%
X132410000Y-93970000D03*
X132500000Y-91780000D03*
%TO.N,RESET*%
X147895000Y-96650000D03*
X147135000Y-98800000D03*
%TO.N,QSPI_SD1*%
X131270000Y-83790000D03*
X132475000Y-84370000D03*
%TO.N,QSPI_SD2*%
X131270000Y-85060000D03*
X133065000Y-85655000D03*
%TO.N,QSPI_SD0*%
X135535000Y-86325000D03*
X133745000Y-86910000D03*
%TO.N,QSPI_CLK*%
X134335000Y-85640000D03*
X135535000Y-85060000D03*
%TO.N,DVDD(23)*%
X144285000Y-92400000D03*
X144205000Y-98990000D03*
X143995000Y-96600000D03*
X143197933Y-89774223D03*
%TO.N,LED2*%
X130300000Y-95250000D03*
X131720000Y-95250000D03*
%TD*%
D34*
%TO.N,Net-(C3-Pad2)*%
X143990100Y-104645100D02*
X145157300Y-104645100D01*
X142115000Y-102320000D02*
X143765000Y-102320000D01*
X143765000Y-104420000D02*
X143990100Y-104645100D01*
X143765000Y-102320000D02*
X143765000Y-104420000D01*
X141965000Y-102170000D02*
X142115000Y-102320000D01*
X141965000Y-101390000D02*
X141965000Y-102170000D01*
%TO.N,XIN*%
X142850100Y-104414900D02*
X142850100Y-103505100D01*
X141691414Y-102320000D02*
X140995000Y-102320000D01*
X142795000Y-98430000D02*
X140995000Y-100230000D01*
X142625000Y-104640000D02*
X142850100Y-104414900D01*
X142131414Y-102760000D02*
X142131414Y-102786414D01*
X141455000Y-104640000D02*
X142622200Y-104640000D01*
X142795000Y-97935000D02*
X142795000Y-98430000D01*
X140995000Y-100230000D02*
X140995000Y-102320000D01*
X142131414Y-102760000D02*
X141691414Y-102320000D01*
X142131414Y-102786414D02*
X142850100Y-103505100D01*
D35*
%TO.N,USB_D+(47)*%
X144395000Y-89075000D02*
X144395000Y-91060000D01*
D36*
%TO.N,/USB_D+*%
X143165000Y-85607500D02*
X143165000Y-85960324D01*
D37*
X142655000Y-84050000D02*
X142655000Y-85117500D01*
D36*
X144410480Y-87205804D02*
X144410480Y-88039520D01*
X144410480Y-88039520D02*
X144395000Y-88055000D01*
D37*
X143655000Y-85117500D02*
X143165000Y-85607500D01*
X142655000Y-85117500D02*
X143145000Y-85607500D01*
D36*
X143165000Y-85960324D02*
X144410480Y-87205804D01*
D37*
X143655000Y-84050000D02*
X143655000Y-85117500D01*
%TO.N,/USB_D-*%
X143155000Y-84050000D02*
X143155000Y-83087500D01*
D36*
X145360000Y-88040000D02*
X145375000Y-88055000D01*
X144155000Y-85607500D02*
X144174287Y-85607500D01*
X145360000Y-86793213D02*
X145360000Y-88040000D01*
X144174287Y-85607500D02*
X145360000Y-86793213D01*
D37*
X143155000Y-83087500D02*
X143365000Y-82877500D01*
X143945000Y-82877500D02*
X143365000Y-82877500D01*
X144155000Y-84050000D02*
X144155000Y-85607500D01*
X144155000Y-83087500D02*
X143945000Y-82877500D01*
X144155000Y-84050000D02*
X144155000Y-83087500D01*
D35*
%TO.N,USB_D-(46)*%
X144795000Y-90200000D02*
X145375000Y-89620000D01*
X145375000Y-89620000D02*
X145375000Y-89075000D01*
X144795000Y-91060000D02*
X144795000Y-90200000D01*
D34*
%TO.N,Net-(R6-Pad1)*%
X144655000Y-84900000D02*
X146195000Y-86440000D01*
X144655000Y-84062500D02*
X144655000Y-84900000D01*
X146195000Y-86440000D02*
X146425000Y-86440000D01*
%TO.N,GND*%
X156395000Y-94225000D02*
X157255000Y-94225000D01*
X144725000Y-101760000D02*
X144595000Y-101630000D01*
D35*
X156085000Y-82280000D02*
X155925000Y-82440000D01*
D34*
X142395000Y-98406414D02*
X142269511Y-98531903D01*
X141211414Y-99590000D02*
X140625000Y-99590000D01*
D35*
X146755000Y-84940000D02*
X146630000Y-84815000D01*
X150865000Y-90250000D02*
X149955000Y-90250000D01*
D34*
X135085000Y-94240000D02*
X135085000Y-96390000D01*
D35*
X142455000Y-87780000D02*
X142455000Y-87480000D01*
D34*
X144725000Y-102320000D02*
X144725000Y-101760000D01*
X157255000Y-94225000D02*
X157430000Y-94400000D01*
D35*
X142455000Y-87480000D02*
X141805000Y-86830000D01*
X156085000Y-79440000D02*
X156085000Y-80570000D01*
D34*
X157430000Y-96190000D02*
X157247500Y-96372500D01*
X129805000Y-86330000D02*
X131270000Y-86330000D01*
D35*
X146345000Y-88327500D02*
X146345000Y-87417500D01*
D34*
X143135000Y-101350000D02*
X142905000Y-101350000D01*
X156355000Y-94225000D02*
X156355000Y-95255000D01*
D35*
X136045000Y-80790000D02*
X135135000Y-80790000D01*
X137515000Y-91100000D02*
X136605000Y-91100000D01*
D34*
X142269511Y-98531903D02*
X141211414Y-99590000D01*
D35*
X138865000Y-87350000D02*
X138865000Y-86440000D01*
X147305000Y-88357500D02*
X147305000Y-87447500D01*
X140185000Y-84812500D02*
X140185000Y-84060000D01*
X137525000Y-95490000D02*
X136615000Y-95490000D01*
X143415000Y-87780000D02*
X143415000Y-87480000D01*
D34*
X156390000Y-96370000D02*
X156390000Y-97400000D01*
D35*
X140180000Y-84062500D02*
X140000000Y-84062500D01*
D34*
X144595000Y-101630000D02*
X144575000Y-101610000D01*
D35*
X150175000Y-95492500D02*
X149265000Y-95492500D01*
D34*
X143595000Y-100890000D02*
X143135000Y-101350000D01*
D35*
X140035000Y-102320000D02*
X140035000Y-101410000D01*
X147745000Y-84940000D02*
X146755000Y-84940000D01*
X154815000Y-90380000D02*
X153905000Y-90380000D01*
X156085000Y-80570000D02*
X156085000Y-82280000D01*
X146810000Y-84062500D02*
X147725000Y-83147500D01*
X148355000Y-86440000D02*
X147445000Y-86440000D01*
X150865000Y-91210000D02*
X149955000Y-91210000D01*
X146630000Y-84062500D02*
X146810000Y-84062500D01*
D34*
X135090000Y-96385000D02*
X136340000Y-96385000D01*
D35*
X144725000Y-102320000D02*
X145635000Y-102320000D01*
D34*
X156390000Y-96370000D02*
X157250000Y-96370000D01*
D35*
X155925000Y-82440000D02*
X155240750Y-82440000D01*
D34*
X144575000Y-101610000D02*
X142915000Y-101610000D01*
D35*
X146630000Y-84815000D02*
X146630000Y-84062500D01*
D34*
X144675000Y-100890000D02*
X145415000Y-101630000D01*
X157430000Y-94400000D02*
X157430000Y-96190000D01*
D35*
X140055000Y-84950000D02*
X139065000Y-84950000D01*
D34*
X135085000Y-94240000D02*
X136335000Y-94240000D01*
D35*
X140000000Y-84062500D02*
X139085000Y-83147500D01*
X140185000Y-84820000D02*
X140060000Y-84945000D01*
X143415000Y-87480000D02*
X142765000Y-86830000D01*
D34*
X142395000Y-97935000D02*
X142395000Y-98406414D01*
X135840000Y-94215000D02*
X135845000Y-94220000D01*
%TO.N,Net-(R5-Pad1)*%
X139885000Y-86440000D02*
X140115000Y-86440000D01*
X141655000Y-84060000D02*
X141655000Y-84897500D01*
X140115000Y-86440000D02*
X141655000Y-84900000D01*
%TO.N,ADC_IOVDD(43)*%
X147665000Y-97360000D02*
X150400000Y-97360000D01*
D35*
X140842500Y-95497500D02*
X140845000Y-95500000D01*
X145595000Y-92020000D02*
X145805000Y-92230000D01*
X143995000Y-91060000D02*
X143995000Y-90290000D01*
X143995000Y-91060000D02*
X143995000Y-91680000D01*
X146830000Y-91900000D02*
X146832500Y-91897500D01*
X139015000Y-91780000D02*
X139445000Y-91350000D01*
X145995000Y-91780000D02*
X146115000Y-91900000D01*
X143595000Y-91700000D02*
X143385000Y-91910000D01*
X152940750Y-90375750D02*
X152940750Y-88240000D01*
X146832500Y-95497500D02*
X145607500Y-95497500D01*
X147045000Y-90240000D02*
X147305000Y-89980000D01*
X137005000Y-80790000D02*
X137005000Y-82525000D01*
X146775000Y-97870000D02*
X147155000Y-97870000D01*
X145815000Y-90240000D02*
X147045000Y-90240000D01*
X146115000Y-91900000D02*
X146830000Y-91900000D01*
X138155000Y-81870000D02*
X139085000Y-80940000D01*
X143855000Y-91940000D02*
X143695000Y-91940000D01*
X138485000Y-95497500D02*
X139957500Y-95497500D01*
X146835000Y-95500000D02*
X146832500Y-95497500D01*
X143595000Y-91060000D02*
X143595000Y-91700000D01*
X143995000Y-91680000D02*
X143995000Y-91800000D01*
X143995000Y-90290000D02*
X143795000Y-90090000D01*
X147305000Y-89980000D02*
X147305000Y-89315000D01*
X143595000Y-91060000D02*
X143595000Y-90290000D01*
X139957500Y-91897500D02*
X140852500Y-91897500D01*
X145595000Y-90460000D02*
X145815000Y-90240000D01*
X138485000Y-91097500D02*
X139912500Y-91097500D01*
X147155000Y-97870000D02*
X147665000Y-97360000D01*
X145995000Y-91060000D02*
X145995000Y-91780000D01*
X148305000Y-95500000D02*
X146835000Y-95500000D01*
X143795000Y-89560000D02*
X143795000Y-90090000D01*
X137500000Y-82525000D02*
X138155000Y-81870000D01*
X143595000Y-97935000D02*
X143595000Y-99930000D01*
X143595000Y-90290000D02*
X143795000Y-90090000D01*
X149625000Y-85390000D02*
X150225000Y-85990000D01*
X134500000Y-91780000D02*
X139015000Y-91780000D01*
X147825000Y-80940000D02*
X148195000Y-81310000D01*
X139912500Y-91097500D02*
X139955000Y-91140000D01*
X139085000Y-80940000D02*
X139965000Y-80940000D01*
X139957500Y-95497500D02*
X140842500Y-95497500D01*
X143385000Y-91910000D02*
X143095000Y-91910000D01*
X143415000Y-89180000D02*
X143795000Y-89560000D01*
X149625000Y-83880000D02*
X149625000Y-85390000D01*
X152945000Y-90380000D02*
X152940750Y-90375750D01*
X139965000Y-80940000D02*
X147825000Y-80940000D01*
X143415000Y-88740000D02*
X143415000Y-89180000D01*
X143995000Y-91800000D02*
X143855000Y-91940000D01*
X145595000Y-91060000D02*
X145595000Y-90460000D01*
X137005000Y-82525000D02*
X137500000Y-82525000D01*
D34*
X150400000Y-97360000D02*
X150440000Y-97400000D01*
D35*
X145595000Y-91060000D02*
X145595000Y-92020000D01*
D34*
%TO.N,QSPI_CS*%
X133520000Y-90140000D02*
X133520000Y-90060000D01*
X133520000Y-90060000D02*
X133475740Y-90015740D01*
X140795000Y-91060000D02*
X140795000Y-90581480D01*
X140229260Y-90015740D02*
X133645740Y-90015740D01*
X130925000Y-82510000D02*
X131910000Y-83495000D01*
X133395740Y-90015740D02*
X133520000Y-90140000D01*
X140795000Y-90581480D02*
X140229260Y-90015740D01*
X132540740Y-90015740D02*
X131915930Y-89390930D01*
X133475740Y-90015740D02*
X133374260Y-90015740D01*
X133374260Y-90015740D02*
X133395740Y-90015740D01*
X130920000Y-82510000D02*
X129805000Y-82510000D01*
X133374260Y-90015740D02*
X132540740Y-90015740D01*
X133644260Y-90015740D02*
X133520000Y-90140000D01*
X131915930Y-86900930D02*
X131915000Y-86900000D01*
X133520000Y-90760000D02*
X134500000Y-90760000D01*
X133645740Y-90015740D02*
X133644260Y-90015740D01*
X131915930Y-89390930D02*
X131915930Y-86900930D01*
X131915000Y-86900000D02*
X131915000Y-83500000D01*
X133520000Y-90760000D02*
X133520000Y-90140000D01*
X133645740Y-90015740D02*
X133475740Y-90015740D01*
%TO.N,BOOT*%
X133520000Y-91780000D02*
X132500000Y-91780000D01*
X132140000Y-94240000D02*
X132410000Y-93970000D01*
X132140000Y-94240000D02*
X130935000Y-94240000D01*
X130935000Y-94240000D02*
X130935000Y-96390000D01*
D35*
%TO.N,RESET*%
X145375000Y-98920000D02*
X147015000Y-98920000D01*
D34*
X152205000Y-94225000D02*
X152205000Y-96375000D01*
X150445000Y-96375000D02*
X152245000Y-96375000D01*
X150440000Y-96380000D02*
X150445000Y-96375000D01*
D35*
X145195000Y-97935000D02*
X145195000Y-98740000D01*
X147895000Y-96650000D02*
X148165000Y-96380000D01*
X147015000Y-98920000D02*
X147135000Y-98800000D01*
X145195000Y-98740000D02*
X145375000Y-98920000D01*
D34*
X148165000Y-96380000D02*
X150440000Y-96380000D01*
%TO.N,XOUT*%
X141965000Y-100370000D02*
X141965000Y-99880000D01*
X143195000Y-98650000D02*
X143195000Y-98590000D01*
X141965000Y-99880000D02*
X143195000Y-98650000D01*
X143195000Y-97935000D02*
X143195000Y-98590000D01*
%TO.N,QSPI_SD1*%
X141195000Y-91060000D02*
X141195000Y-90487184D01*
X140424036Y-89716220D02*
X133011220Y-89716220D01*
X132480000Y-89185000D02*
X132480000Y-84375000D01*
X133011220Y-89716220D02*
X132480000Y-89185000D01*
X132480000Y-84375000D02*
X132475000Y-84370000D01*
X129805000Y-83790000D02*
X131270000Y-83790000D01*
X141195000Y-90487184D02*
X140424036Y-89716220D01*
%TO.N,QSPI_SD2*%
X140618812Y-89416700D02*
X141595000Y-90392888D01*
X133641700Y-89416700D02*
X140618812Y-89416700D01*
X133065000Y-85655000D02*
X133065000Y-88840000D01*
X133065000Y-88840000D02*
X133641700Y-89416700D01*
X141595000Y-90392888D02*
X141595000Y-91060000D01*
X129805000Y-85060000D02*
X131270000Y-85060000D01*
%TO.N,QSPI_SD0*%
X133745000Y-86910000D02*
X133745000Y-88544360D01*
X137005000Y-86330000D02*
X135540000Y-86330000D01*
X140813588Y-89117180D02*
X135834992Y-89117180D01*
X135022180Y-89117180D02*
X134317820Y-89117180D01*
X133745000Y-88544360D02*
X134317820Y-89117180D01*
X141995000Y-91060000D02*
X141995000Y-90298592D01*
X135834992Y-89117180D02*
X135532180Y-89117180D01*
X135532180Y-89117180D02*
X135022180Y-89117180D01*
X141995000Y-90298592D02*
X140813588Y-89117180D01*
%TO.N,QSPI_CLK*%
X135710926Y-88817660D02*
X141008364Y-88817660D01*
X135710926Y-88817660D02*
X134812660Y-88817660D01*
X141008364Y-88817660D02*
X142395000Y-90204296D01*
X134335000Y-88340000D02*
X134812660Y-88817660D01*
X135540000Y-85065000D02*
X135535000Y-85060000D01*
X142395000Y-90204296D02*
X142395000Y-91060000D01*
X137005000Y-85065000D02*
X135540000Y-85065000D01*
X134335000Y-85640000D02*
X134335000Y-88340000D01*
%TO.N,QSPI_SP3*%
X134905000Y-84780000D02*
X134905000Y-88180000D01*
X134905000Y-88180000D02*
X135243140Y-88518140D01*
X141203140Y-88518140D02*
X142795000Y-90110000D01*
X135243140Y-88518140D02*
X141203140Y-88518140D01*
X142795000Y-90110000D02*
X142795000Y-91060000D01*
X135890000Y-83795000D02*
X134905000Y-84780000D01*
X137005000Y-83795000D02*
X135890000Y-83795000D01*
D35*
%TO.N,Net-(C14-Pad1)*%
X150640750Y-82440000D02*
X150640750Y-81034250D01*
X151025000Y-80650000D02*
X152005000Y-80650000D01*
X152275000Y-79450000D02*
X155115000Y-79450000D01*
X150640750Y-81034250D02*
X151025000Y-80650000D01*
X152275000Y-80380000D02*
X152275000Y-79450000D01*
X155115000Y-79450000D02*
X155125000Y-79440000D01*
X152005000Y-80650000D02*
X152275000Y-80380000D01*
D34*
%TO.N,Rot_A*%
X138972195Y-92421440D02*
X132161440Y-92421440D01*
X128830000Y-89090000D02*
X128789520Y-89090000D01*
X139248256Y-92697500D02*
X138972195Y-92421440D01*
X132161440Y-92421440D02*
X128830000Y-89090000D01*
X139957500Y-92697500D02*
X139248256Y-92697500D01*
%TO.N,Rot_B*%
X138848130Y-92720960D02*
X132037374Y-92720960D01*
X139224672Y-93097500D02*
X138848130Y-92720960D01*
X130606414Y-91290000D02*
X128789520Y-91290000D01*
X128789520Y-91290000D02*
X128789520Y-91285240D01*
X132037374Y-92720960D02*
X130606414Y-91290000D01*
X139957500Y-93097500D02*
X139224672Y-93097500D01*
D35*
%TO.N,DVDD(23)*%
X142455000Y-89170000D02*
X143059223Y-89774223D01*
X145195000Y-91950000D02*
X145085000Y-92060000D01*
X143059223Y-89774223D02*
X143197933Y-89774223D01*
X143195000Y-89777156D02*
X143197933Y-89774223D01*
X145195000Y-91060000D02*
X145195000Y-91950000D01*
X145598816Y-89890480D02*
X146224520Y-89890480D01*
X144675000Y-99460000D02*
X144205000Y-98990000D01*
X143995000Y-98780000D02*
X144205000Y-98990000D01*
X146224520Y-89890480D02*
X146345000Y-89770000D01*
X145195000Y-90294296D02*
X145598816Y-89890480D01*
X143195000Y-91060000D02*
X143195000Y-89777156D01*
X146345000Y-89770000D02*
X146345000Y-89315000D01*
X142455000Y-88742500D02*
X142455000Y-89170000D01*
X143995000Y-97935000D02*
X143995000Y-98780000D01*
X145195000Y-91060000D02*
X145195000Y-90294296D01*
X144675000Y-99930000D02*
X144675000Y-99460000D01*
D34*
%TO.N,LED2*%
X132180000Y-95250000D02*
X134110000Y-93320000D01*
X130140000Y-95250000D02*
X129700000Y-95690000D01*
X139177500Y-93897500D02*
X139957500Y-93897500D01*
X131720000Y-95250000D02*
X132180000Y-95250000D01*
X138600000Y-93320000D02*
X139177500Y-93897500D01*
X134110000Y-93320000D02*
X138600000Y-93320000D01*
X130300000Y-95250000D02*
X130140000Y-95250000D01*
X129700000Y-95690000D02*
X128789520Y-95690000D01*
%TO.N,LED1*%
X132049520Y-93020480D02*
X131580000Y-93490000D01*
X139201086Y-93497500D02*
X138724065Y-93020480D01*
X139957500Y-93497500D02*
X139201086Y-93497500D01*
X131580000Y-93490000D02*
X128789520Y-93490000D01*
X138724065Y-93020480D02*
X132049520Y-93020480D01*
%TO.N,unconnected-(U1-Pad35)*%
X155740757Y-93295756D02*
X156536513Y-92500000D01*
X150559014Y-94697500D02*
X151659394Y-93597120D01*
X146832500Y-94697500D02*
X150559014Y-94697500D01*
X155439394Y-93597120D02*
X155740757Y-93295756D01*
X156536513Y-92500000D02*
X158040480Y-92500000D01*
X151659394Y-93597120D02*
X155439394Y-93597120D01*
%TO.N,unconnected-(U1-Pad36)*%
X156837110Y-90667890D02*
X157213465Y-90291535D01*
X158040480Y-90291535D02*
X158040480Y-90300000D01*
X153895000Y-93297600D02*
X155315330Y-93297598D01*
X151535328Y-93297600D02*
X153895000Y-93297600D01*
X150535428Y-94297500D02*
X151535328Y-93297600D01*
X155315330Y-93297598D02*
X156837110Y-91775817D01*
X157213465Y-90291535D02*
X158040480Y-90291535D01*
X146832500Y-94297500D02*
X150535428Y-94297500D01*
X156837110Y-91775817D02*
X156837110Y-90667890D01*
%TO.N,unconnected-(U1-Pad37)*%
X158040480Y-88101535D02*
X158040480Y-88100000D01*
X155191264Y-92998079D02*
X155377171Y-92812171D01*
X150511842Y-93897500D02*
X151411262Y-92998080D01*
X156913465Y-88101535D02*
X158040480Y-88101535D01*
X151411262Y-92998080D02*
X155191264Y-92998079D01*
X156537590Y-88477410D02*
X156913465Y-88101535D01*
X156537590Y-90793106D02*
X156537590Y-88477410D01*
X156537591Y-91651749D02*
X156537590Y-90793106D01*
X155377171Y-92812171D02*
X156537591Y-91651749D01*
X146832500Y-93897500D02*
X150511842Y-93897500D01*
%TO.N,unconnected-(U1-Pad38)*%
X151287196Y-92698560D02*
X155067198Y-92698560D01*
X156010378Y-91755378D02*
X156238071Y-91527684D01*
X146832500Y-93497500D02*
X150488256Y-93497500D01*
X158040480Y-85900000D02*
X158040480Y-85910000D01*
X156238070Y-86276930D02*
X156615000Y-85900000D01*
X155067198Y-92698560D02*
X156010378Y-91755378D01*
X156238071Y-91527684D02*
X156238070Y-90950000D01*
X156615000Y-85900000D02*
X158040480Y-85900000D01*
X156238070Y-90950000D02*
X156238070Y-86276930D01*
X150488256Y-93497500D02*
X151287196Y-92698560D01*
%TO.N,unconnected-(U1-Pad39)*%
X155938550Y-90970000D02*
X155938550Y-85806450D01*
X146832500Y-93097500D02*
X150464670Y-93097500D01*
X155938550Y-85806450D02*
X156755000Y-84990000D01*
X155938551Y-91403619D02*
X155938550Y-90970000D01*
X154943132Y-92399040D02*
X155938551Y-91403619D01*
X156755000Y-84080000D02*
X157135000Y-83700000D01*
X157135000Y-83700000D02*
X158040480Y-83700000D01*
X156755000Y-84990000D02*
X156755000Y-84080000D01*
X151163130Y-92399040D02*
X154943132Y-92399040D01*
X150464670Y-93097500D02*
X151163130Y-92399040D01*
%TO.N,unconnected-(U1-Pad40)*%
X156805000Y-81880000D02*
X157183465Y-81501535D01*
X150441085Y-92697500D02*
X151039066Y-92099520D01*
X158040480Y-81501535D02*
X158040480Y-81500000D01*
X155639031Y-91279554D02*
X155639030Y-85682384D01*
X156805000Y-82838371D02*
X156805000Y-81880000D01*
X154819066Y-92099520D02*
X155639031Y-91279554D01*
X155639030Y-85682384D02*
X156455480Y-84865935D01*
X146832500Y-92697500D02*
X150441085Y-92697500D01*
X157183465Y-81501535D02*
X158040480Y-81501535D01*
X151039066Y-92099520D02*
X154819066Y-92099520D01*
X156455480Y-84865935D02*
X156455480Y-83187891D01*
X156455480Y-83187891D02*
X156805000Y-82838371D01*
%TO.N,unconnected-(U1-Pad41)*%
X156155960Y-84741870D02*
X156155960Y-83063825D01*
X156505480Y-82714305D02*
X156505480Y-81749520D01*
X150915000Y-91800000D02*
X154695000Y-91800000D01*
X154695000Y-91800000D02*
X155339511Y-91155489D01*
X156755000Y-81500000D02*
X156755000Y-80230000D01*
X156155960Y-83063825D02*
X156505480Y-82714305D01*
X150417500Y-92297500D02*
X150915000Y-91800000D01*
X146832500Y-92297500D02*
X150417500Y-92297500D01*
X155339511Y-85558318D02*
X156155960Y-84741870D01*
X156505480Y-81749520D02*
X156755000Y-81500000D01*
X156755000Y-80230000D02*
X157685000Y-79300000D01*
X155339511Y-91155489D02*
X155339511Y-85558318D01*
X157685000Y-79300000D02*
X158040480Y-79300000D01*
D35*
%TO.N,VBUS*%
X145735000Y-82987500D02*
X145535709Y-82788209D01*
D37*
X145855000Y-85380000D02*
X146045000Y-85570000D01*
X148905000Y-81060000D02*
X149475000Y-80490000D01*
X148615000Y-85570000D02*
X148915000Y-85270000D01*
X145855000Y-84062500D02*
X145855000Y-85380000D01*
D38*
X141265000Y-82808918D02*
X141265000Y-82807500D01*
D37*
X148915000Y-85270000D02*
X148915000Y-81070000D01*
D38*
X141265000Y-82807500D02*
X141775000Y-82297500D01*
D37*
X149475000Y-80490000D02*
X149475000Y-79450000D01*
D38*
X141775000Y-82297500D02*
X145045000Y-82297500D01*
D37*
X148915000Y-81070000D02*
X148905000Y-81060000D01*
D35*
X145855000Y-83107500D02*
X145744291Y-82996791D01*
X145855000Y-84047500D02*
X145855000Y-83116418D01*
X140955000Y-83118918D02*
X141065709Y-83008209D01*
X141065709Y-83008209D02*
X141265000Y-82808918D01*
D38*
X145045000Y-82297500D02*
X145535709Y-82788209D01*
D37*
X146045000Y-85570000D02*
X148615000Y-85570000D01*
D35*
X140955000Y-84050000D02*
X140955000Y-83118918D01*
%TD*%
%TA.AperFunction,Conductor*%
%TO.N,ADC_IOVDD(43)*%
G36*
X147434454Y-97354970D02*
G01*
X147455000Y-97406142D01*
X147455000Y-98298613D01*
X147437687Y-98346179D01*
X147393850Y-98371489D01*
X147348785Y-98362340D01*
X147347830Y-98364407D01*
X147343041Y-98362194D01*
X147338619Y-98359328D01*
X147333570Y-98357818D01*
X147333568Y-98357817D01*
X147211806Y-98321402D01*
X147211805Y-98321402D01*
X147206753Y-98319891D01*
X147136065Y-98319459D01*
X147074388Y-98319082D01*
X147074387Y-98319082D01*
X147069118Y-98319050D01*
X146936780Y-98356873D01*
X146820376Y-98430318D01*
X146729265Y-98533482D01*
X146727024Y-98538256D01*
X146724130Y-98542661D01*
X146722944Y-98541882D01*
X146691523Y-98573145D01*
X146660418Y-98580000D01*
X146288608Y-98580000D01*
X146241042Y-98562687D01*
X146215732Y-98518850D01*
X146227079Y-98464888D01*
X146258078Y-98418495D01*
X146262126Y-98412437D01*
X146263549Y-98405287D01*
X146274790Y-98348773D01*
X146274790Y-98348772D01*
X146275500Y-98345203D01*
X146275499Y-97524798D01*
X146262126Y-97457563D01*
X146261974Y-97457336D01*
X146259941Y-97410763D01*
X146290756Y-97370605D01*
X146340176Y-97359649D01*
X146352596Y-97362978D01*
X146355063Y-97364626D01*
X146362208Y-97366047D01*
X146362210Y-97366048D01*
X146418727Y-97377290D01*
X146418728Y-97377290D01*
X146422297Y-97378000D01*
X146832500Y-97378000D01*
X147242702Y-97377999D01*
X147246270Y-97377289D01*
X147246273Y-97377289D01*
X147284350Y-97369715D01*
X147309937Y-97364626D01*
X147315997Y-97360577D01*
X147315999Y-97360576D01*
X147339887Y-97344614D01*
X147389056Y-97332582D01*
X147434454Y-97354970D01*
G37*
%TD.AperFunction*%
%TA.AperFunction,Conductor*%
G36*
X140252604Y-90430975D02*
G01*
X140300148Y-90448347D01*
X140304837Y-90452649D01*
X140492826Y-90640637D01*
X140514218Y-90686513D01*
X140514500Y-90692963D01*
X140514501Y-91470202D01*
X140515211Y-91473770D01*
X140515293Y-91474606D01*
X140502725Y-91523641D01*
X140461579Y-91553125D01*
X140422183Y-91553253D01*
X140409681Y-91549844D01*
X140391702Y-91547748D01*
X140387432Y-91547500D01*
X140070548Y-91547500D01*
X140060552Y-91551138D01*
X140057500Y-91556425D01*
X140057500Y-91784452D01*
X140061138Y-91794448D01*
X140066425Y-91797500D01*
X140631306Y-91797500D01*
X140641302Y-91793862D01*
X140643474Y-91790100D01*
X140642544Y-91782286D01*
X140639295Y-91770465D01*
X140643382Y-91720012D01*
X140678944Y-91683989D01*
X140717900Y-91677209D01*
X140718733Y-91677291D01*
X140722297Y-91678000D01*
X140794960Y-91678000D01*
X140867702Y-91677999D01*
X140871269Y-91677289D01*
X140871274Y-91677289D01*
X140917918Y-91668011D01*
X140934937Y-91664626D01*
X140940997Y-91660577D01*
X140940999Y-91660576D01*
X140953887Y-91651964D01*
X141003055Y-91639932D01*
X141036113Y-91651964D01*
X141049004Y-91660578D01*
X141049006Y-91660579D01*
X141055063Y-91664626D01*
X141062208Y-91666047D01*
X141062210Y-91666048D01*
X141091510Y-91671876D01*
X141122297Y-91678000D01*
X141194990Y-91678000D01*
X141267702Y-91677999D01*
X141271269Y-91677289D01*
X141271274Y-91677289D01*
X141317918Y-91668011D01*
X141334937Y-91664626D01*
X141340997Y-91660577D01*
X141340999Y-91660576D01*
X141353887Y-91651964D01*
X141403055Y-91639932D01*
X141436113Y-91651964D01*
X141449004Y-91660578D01*
X141449006Y-91660579D01*
X141455063Y-91664626D01*
X141462208Y-91666047D01*
X141462210Y-91666048D01*
X141491510Y-91671876D01*
X141522297Y-91678000D01*
X141594990Y-91678000D01*
X141667702Y-91677999D01*
X141671269Y-91677289D01*
X141671274Y-91677289D01*
X141717918Y-91668011D01*
X141734937Y-91664626D01*
X141740997Y-91660577D01*
X141740999Y-91660576D01*
X141753887Y-91651964D01*
X141803055Y-91639932D01*
X141836113Y-91651964D01*
X141849004Y-91660578D01*
X141849006Y-91660579D01*
X141855063Y-91664626D01*
X141862208Y-91666047D01*
X141862210Y-91666048D01*
X141891510Y-91671876D01*
X141922297Y-91678000D01*
X141994990Y-91678000D01*
X142067702Y-91677999D01*
X142071269Y-91677289D01*
X142071274Y-91677289D01*
X142117918Y-91668011D01*
X142134937Y-91664626D01*
X142140997Y-91660577D01*
X142140999Y-91660576D01*
X142153887Y-91651964D01*
X142203055Y-91639932D01*
X142236113Y-91651964D01*
X142249004Y-91660578D01*
X142249006Y-91660579D01*
X142255063Y-91664626D01*
X142262208Y-91666047D01*
X142262210Y-91666048D01*
X142291510Y-91671876D01*
X142322297Y-91678000D01*
X142394990Y-91678000D01*
X142467702Y-91677999D01*
X142471269Y-91677289D01*
X142471274Y-91677289D01*
X142517918Y-91668011D01*
X142534937Y-91664626D01*
X142540997Y-91660577D01*
X142540999Y-91660576D01*
X142553887Y-91651964D01*
X142603055Y-91639932D01*
X142636113Y-91651964D01*
X142649004Y-91660578D01*
X142649006Y-91660579D01*
X142655063Y-91664626D01*
X142662208Y-91666047D01*
X142662210Y-91666048D01*
X142691510Y-91671876D01*
X142722297Y-91678000D01*
X142794990Y-91678000D01*
X142867702Y-91677999D01*
X142871269Y-91677289D01*
X142871274Y-91677289D01*
X142917918Y-91668011D01*
X142934937Y-91664626D01*
X142940997Y-91660577D01*
X142940999Y-91660576D01*
X142953887Y-91651964D01*
X143003055Y-91639932D01*
X143036113Y-91651964D01*
X143049004Y-91660578D01*
X143049006Y-91660579D01*
X143055063Y-91664626D01*
X143062208Y-91666047D01*
X143062210Y-91666048D01*
X143091510Y-91671876D01*
X143122297Y-91678000D01*
X143194990Y-91678000D01*
X143267702Y-91677999D01*
X143271269Y-91677289D01*
X143271274Y-91677289D01*
X143290664Y-91673432D01*
X143298587Y-91671856D01*
X143348616Y-91679556D01*
X143365305Y-91692065D01*
X143367740Y-91694496D01*
X143378824Y-91702085D01*
X143469702Y-91742262D01*
X143480315Y-91745155D01*
X143482040Y-91745356D01*
X143492389Y-91742900D01*
X143495000Y-91739391D01*
X143495000Y-91733806D01*
X143695000Y-91733806D01*
X143698638Y-91743802D01*
X143702400Y-91745974D01*
X143710219Y-91745044D01*
X143720797Y-91742136D01*
X143764964Y-91722518D01*
X143815463Y-91719031D01*
X143824925Y-91722466D01*
X143869702Y-91742262D01*
X143880315Y-91745155D01*
X143882040Y-91745356D01*
X143892389Y-91742900D01*
X143895000Y-91739391D01*
X143895000Y-91173048D01*
X143891362Y-91163052D01*
X143886075Y-91160000D01*
X143708048Y-91160000D01*
X143698052Y-91163638D01*
X143695000Y-91168925D01*
X143695000Y-91733806D01*
X143495000Y-91733806D01*
X143495000Y-91034000D01*
X143512313Y-90986434D01*
X143556150Y-90961124D01*
X143569000Y-90960000D01*
X144021000Y-90960000D01*
X144068566Y-90977313D01*
X144093876Y-91021150D01*
X144095000Y-91034000D01*
X144095000Y-91733806D01*
X144098638Y-91743802D01*
X144102400Y-91745974D01*
X144110219Y-91745044D01*
X144120800Y-91742135D01*
X144211623Y-91701794D01*
X144222690Y-91694187D01*
X144224700Y-91692174D01*
X144227574Y-91690831D01*
X144228323Y-91690316D01*
X144228409Y-91690441D01*
X144270558Y-91670741D01*
X144291508Y-91671876D01*
X144318725Y-91677290D01*
X144318730Y-91677291D01*
X144322297Y-91678000D01*
X144335500Y-91678000D01*
X144383066Y-91695313D01*
X144408376Y-91739150D01*
X144409500Y-91752000D01*
X144409500Y-91820500D01*
X144392187Y-91868066D01*
X144348350Y-91893376D01*
X144335500Y-91894500D01*
X144234000Y-91894500D01*
X144230431Y-91895210D01*
X144230430Y-91895210D01*
X144198506Y-91901560D01*
X144163011Y-91908621D01*
X144159655Y-91910011D01*
X144159649Y-91910013D01*
X144130948Y-91921902D01*
X144130945Y-91921903D01*
X144128363Y-91922973D01*
X144080594Y-91951850D01*
X144076272Y-91957724D01*
X144070895Y-91962634D01*
X144070868Y-91962604D01*
X144056509Y-91975972D01*
X143974836Y-92027503D01*
X143974832Y-92027507D01*
X143970376Y-92030318D01*
X143946967Y-92056824D01*
X143909290Y-92099485D01*
X143864826Y-92123678D01*
X143853824Y-92124500D01*
X141284000Y-92124500D01*
X141280431Y-92125210D01*
X141280430Y-92125210D01*
X141256531Y-92129964D01*
X141213011Y-92138621D01*
X141209655Y-92140011D01*
X141209649Y-92140013D01*
X141180948Y-92151902D01*
X141180945Y-92151903D01*
X141178363Y-92152973D01*
X141130594Y-92181850D01*
X141077973Y-92253363D01*
X141076260Y-92257499D01*
X141065013Y-92284649D01*
X141065011Y-92284655D01*
X141063621Y-92288011D01*
X141049500Y-92359000D01*
X141049500Y-96531000D01*
X141063621Y-96601989D01*
X141065011Y-96605345D01*
X141065013Y-96605351D01*
X141076902Y-96634052D01*
X141077973Y-96636637D01*
X141106850Y-96684406D01*
X141178363Y-96737027D01*
X141189782Y-96741757D01*
X141209649Y-96749987D01*
X141209655Y-96749989D01*
X141213011Y-96751379D01*
X141248505Y-96758439D01*
X141280430Y-96764790D01*
X141280431Y-96764790D01*
X141284000Y-96765500D01*
X143335500Y-96765500D01*
X143383066Y-96782813D01*
X143408376Y-96826650D01*
X143409500Y-96839500D01*
X143409500Y-96861000D01*
X143423621Y-96931989D01*
X143425011Y-96935345D01*
X143425013Y-96935351D01*
X143436902Y-96964052D01*
X143437973Y-96966637D01*
X143466850Y-97014406D01*
X143538363Y-97067027D01*
X143549782Y-97071757D01*
X143569649Y-97079987D01*
X143569655Y-97079989D01*
X143573011Y-97081379D01*
X143607060Y-97088152D01*
X143640430Y-97094790D01*
X143640431Y-97094790D01*
X143644000Y-97095500D01*
X144345960Y-97095500D01*
X144349528Y-97094789D01*
X144349533Y-97094789D01*
X144390260Y-97086679D01*
X144417017Y-97081351D01*
X144451694Y-97066971D01*
X144499515Y-97038022D01*
X144552075Y-96966466D01*
X144566398Y-96931806D01*
X144580460Y-96860807D01*
X144580041Y-96352059D01*
X144597315Y-96304479D01*
X144641131Y-96279134D01*
X144654041Y-96277999D01*
X144889022Y-96277999D01*
X144891429Y-96277682D01*
X144891431Y-96277682D01*
X144909577Y-96275293D01*
X144936282Y-96271778D01*
X144941412Y-96269386D01*
X144941415Y-96269385D01*
X145034128Y-96226153D01*
X145034129Y-96226152D01*
X145039997Y-96223416D01*
X145120916Y-96142497D01*
X145169278Y-96038782D01*
X145175500Y-95991523D01*
X145175499Y-93003478D01*
X145175182Y-93001074D01*
X145175182Y-93001066D01*
X145172298Y-92979157D01*
X145183255Y-92929738D01*
X145223415Y-92898924D01*
X145245665Y-92895500D01*
X145346000Y-92895500D01*
X145349569Y-92894790D01*
X145349570Y-92894790D01*
X145381494Y-92888440D01*
X145416989Y-92881379D01*
X145420345Y-92879989D01*
X145420351Y-92879987D01*
X145449052Y-92868098D01*
X145449055Y-92868097D01*
X145451637Y-92867027D01*
X145499406Y-92838150D01*
X145540593Y-92782176D01*
X145549373Y-92770244D01*
X145549373Y-92770243D01*
X145552027Y-92766637D01*
X145556757Y-92755218D01*
X145564987Y-92735351D01*
X145564989Y-92735345D01*
X145566379Y-92731989D01*
X145580500Y-92661000D01*
X145580500Y-92186431D01*
X145572512Y-92132581D01*
X145564254Y-92105359D01*
X145540981Y-92056153D01*
X145539471Y-92053894D01*
X145539169Y-92053360D01*
X145530980Y-92031332D01*
X145530339Y-92028105D01*
X145529149Y-92008701D01*
X145529105Y-92008699D01*
X145529125Y-92008302D01*
X145529125Y-92008298D01*
X145529477Y-92001138D01*
X145529956Y-91991407D01*
X145529956Y-91991388D01*
X145530000Y-91990503D01*
X145530000Y-91739000D01*
X145526722Y-91722518D01*
X145519057Y-91683989D01*
X145515879Y-91668011D01*
X145514489Y-91664655D01*
X145514487Y-91664649D01*
X145501527Y-91633363D01*
X145502116Y-91633119D01*
X145495000Y-91603276D01*
X145495000Y-91034000D01*
X145512313Y-90986434D01*
X145556150Y-90961124D01*
X145569000Y-90960000D01*
X145655000Y-90960000D01*
X145655000Y-91940000D01*
X146926494Y-91940000D01*
X146915187Y-91971066D01*
X146871350Y-91996376D01*
X146858500Y-91997500D01*
X146158694Y-91997500D01*
X146148698Y-92001138D01*
X146146526Y-92004900D01*
X146147456Y-92012719D01*
X146150365Y-92023300D01*
X146190706Y-92114123D01*
X146198313Y-92125190D01*
X146200326Y-92127200D01*
X146201669Y-92130074D01*
X146202184Y-92130823D01*
X146202059Y-92130909D01*
X146221759Y-92173058D01*
X146220624Y-92194008D01*
X146215210Y-92221225D01*
X146215210Y-92221226D01*
X146214500Y-92224797D01*
X146214501Y-92370202D01*
X146227874Y-92437437D01*
X146231923Y-92443496D01*
X146231924Y-92443499D01*
X146240536Y-92456387D01*
X146252568Y-92505555D01*
X146240536Y-92538613D01*
X146231922Y-92551504D01*
X146231921Y-92551506D01*
X146227874Y-92557563D01*
X146226453Y-92564708D01*
X146226452Y-92564710D01*
X146219868Y-92597809D01*
X146214500Y-92624797D01*
X146214501Y-92770202D01*
X146227874Y-92837437D01*
X146231923Y-92843496D01*
X146231924Y-92843499D01*
X146240536Y-92856387D01*
X146252568Y-92905555D01*
X146240536Y-92938613D01*
X146231922Y-92951504D01*
X146231921Y-92951506D01*
X146227874Y-92957563D01*
X146226453Y-92964708D01*
X146226452Y-92964710D01*
X146218741Y-93003478D01*
X146214500Y-93024797D01*
X146214501Y-93170202D01*
X146227874Y-93237437D01*
X146231923Y-93243496D01*
X146231924Y-93243499D01*
X146240536Y-93256387D01*
X146252568Y-93305555D01*
X146240536Y-93338613D01*
X146231922Y-93351504D01*
X146231921Y-93351506D01*
X146227874Y-93357563D01*
X146226453Y-93364708D01*
X146226452Y-93364710D01*
X146219868Y-93397809D01*
X146214500Y-93424797D01*
X146214501Y-93570202D01*
X146227874Y-93637437D01*
X146231923Y-93643496D01*
X146231924Y-93643499D01*
X146240536Y-93656387D01*
X146252568Y-93705555D01*
X146240536Y-93738613D01*
X146231922Y-93751504D01*
X146231921Y-93751506D01*
X146227874Y-93757563D01*
X146226453Y-93764708D01*
X146226452Y-93764710D01*
X146219868Y-93797809D01*
X146214500Y-93824797D01*
X146214501Y-93970202D01*
X146227874Y-94037437D01*
X146231923Y-94043496D01*
X146231924Y-94043499D01*
X146240536Y-94056387D01*
X146252568Y-94105555D01*
X146240536Y-94138613D01*
X146231922Y-94151504D01*
X146231921Y-94151506D01*
X146227874Y-94157563D01*
X146226453Y-94164708D01*
X146226452Y-94164710D01*
X146219868Y-94197809D01*
X146214500Y-94224797D01*
X146214501Y-94370202D01*
X146227874Y-94437437D01*
X146231923Y-94443496D01*
X146231924Y-94443499D01*
X146240536Y-94456387D01*
X146252568Y-94505555D01*
X146240536Y-94538613D01*
X146231922Y-94551504D01*
X146231921Y-94551506D01*
X146227874Y-94557563D01*
X146226453Y-94564708D01*
X146226452Y-94564710D01*
X146219868Y-94597809D01*
X146214500Y-94624797D01*
X146214501Y-94770202D01*
X146227874Y-94837437D01*
X146231923Y-94843496D01*
X146231924Y-94843499D01*
X146240536Y-94856387D01*
X146252568Y-94905555D01*
X146240536Y-94938613D01*
X146231922Y-94951504D01*
X146231921Y-94951506D01*
X146227874Y-94957563D01*
X146226453Y-94964708D01*
X146226452Y-94964710D01*
X146217008Y-95012191D01*
X146214500Y-95024797D01*
X146214501Y-95170202D01*
X146215211Y-95173769D01*
X146215211Y-95173774D01*
X146220644Y-95201086D01*
X146212944Y-95251116D01*
X146200435Y-95267805D01*
X146198004Y-95270240D01*
X146190415Y-95281324D01*
X146150238Y-95372202D01*
X146147345Y-95382815D01*
X146147144Y-95384540D01*
X146149600Y-95394889D01*
X146153109Y-95397500D01*
X146858500Y-95397500D01*
X146906066Y-95414813D01*
X146931376Y-95458650D01*
X146932500Y-95471500D01*
X146932500Y-95523500D01*
X146915187Y-95571066D01*
X146871350Y-95596376D01*
X146858500Y-95597500D01*
X146158694Y-95597500D01*
X146148698Y-95601138D01*
X146146526Y-95604900D01*
X146147456Y-95612719D01*
X146150365Y-95623300D01*
X146190706Y-95714123D01*
X146198313Y-95725190D01*
X146200326Y-95727200D01*
X146201669Y-95730074D01*
X146202184Y-95730823D01*
X146202059Y-95730909D01*
X146221759Y-95773058D01*
X146220624Y-95794008D01*
X146215210Y-95821225D01*
X146215210Y-95821226D01*
X146214500Y-95824797D01*
X146214501Y-95970202D01*
X146215211Y-95973769D01*
X146215211Y-95973774D01*
X146219220Y-95993929D01*
X146227874Y-96037437D01*
X146231923Y-96043496D01*
X146231924Y-96043499D01*
X146240536Y-96056387D01*
X146252568Y-96105555D01*
X146240536Y-96138613D01*
X146231922Y-96151504D01*
X146231921Y-96151506D01*
X146227874Y-96157563D01*
X146226453Y-96164708D01*
X146226452Y-96164710D01*
X146218065Y-96206873D01*
X146214500Y-96224797D01*
X146214501Y-96370202D01*
X146227874Y-96437437D01*
X146231923Y-96443496D01*
X146231924Y-96443499D01*
X146240536Y-96456387D01*
X146252568Y-96505555D01*
X146240536Y-96538613D01*
X146231922Y-96551504D01*
X146231921Y-96551506D01*
X146227874Y-96557563D01*
X146226453Y-96564708D01*
X146226452Y-96564710D01*
X146219747Y-96598419D01*
X146214500Y-96624797D01*
X146214501Y-96770202D01*
X146227874Y-96837437D01*
X146231923Y-96843496D01*
X146231924Y-96843499D01*
X146240536Y-96856387D01*
X146252568Y-96905555D01*
X146240536Y-96938613D01*
X146231922Y-96951504D01*
X146231921Y-96951506D01*
X146227874Y-96957563D01*
X146226453Y-96964708D01*
X146226452Y-96964710D01*
X146226103Y-96966466D01*
X146214500Y-97024797D01*
X146214501Y-97170202D01*
X146227874Y-97237437D01*
X146228026Y-97237664D01*
X146230059Y-97284237D01*
X146199244Y-97324395D01*
X146149824Y-97335351D01*
X146137404Y-97332022D01*
X146134937Y-97330374D01*
X146127792Y-97328953D01*
X146127790Y-97328952D01*
X146071272Y-97317710D01*
X146071273Y-97317710D01*
X146067703Y-97317000D01*
X145995010Y-97317000D01*
X145922298Y-97317001D01*
X145918731Y-97317711D01*
X145918726Y-97317711D01*
X145885807Y-97324259D01*
X145855063Y-97330374D01*
X145849003Y-97334423D01*
X145849001Y-97334424D01*
X145836113Y-97343036D01*
X145786945Y-97355068D01*
X145753887Y-97343036D01*
X145740996Y-97334422D01*
X145740994Y-97334421D01*
X145734937Y-97330374D01*
X145727792Y-97328953D01*
X145727790Y-97328952D01*
X145671272Y-97317710D01*
X145671273Y-97317710D01*
X145667703Y-97317000D01*
X145595010Y-97317000D01*
X145522298Y-97317001D01*
X145518731Y-97317711D01*
X145518726Y-97317711D01*
X145485807Y-97324259D01*
X145455063Y-97330374D01*
X145449003Y-97334423D01*
X145449001Y-97334424D01*
X145436113Y-97343036D01*
X145386945Y-97355068D01*
X145353887Y-97343036D01*
X145340996Y-97334422D01*
X145340994Y-97334421D01*
X145334937Y-97330374D01*
X145327792Y-97328953D01*
X145327790Y-97328952D01*
X145271272Y-97317710D01*
X145271273Y-97317710D01*
X145267703Y-97317000D01*
X145195010Y-97317000D01*
X145122298Y-97317001D01*
X145118731Y-97317711D01*
X145118726Y-97317711D01*
X145085807Y-97324259D01*
X145055063Y-97330374D01*
X145049003Y-97334423D01*
X145049001Y-97334424D01*
X145036113Y-97343036D01*
X144986945Y-97355068D01*
X144953887Y-97343036D01*
X144940996Y-97334422D01*
X144940994Y-97334421D01*
X144934937Y-97330374D01*
X144927792Y-97328953D01*
X144927790Y-97328952D01*
X144871272Y-97317710D01*
X144871273Y-97317710D01*
X144867703Y-97317000D01*
X144795010Y-97317000D01*
X144722298Y-97317001D01*
X144718731Y-97317711D01*
X144718726Y-97317711D01*
X144685807Y-97324259D01*
X144655063Y-97330374D01*
X144649003Y-97334423D01*
X144649001Y-97334424D01*
X144636113Y-97343036D01*
X144586945Y-97355068D01*
X144553887Y-97343036D01*
X144540996Y-97334422D01*
X144540994Y-97334421D01*
X144534937Y-97330374D01*
X144527792Y-97328953D01*
X144527790Y-97328952D01*
X144471272Y-97317710D01*
X144471273Y-97317710D01*
X144467703Y-97317000D01*
X144395010Y-97317000D01*
X144322298Y-97317001D01*
X144318731Y-97317711D01*
X144318726Y-97317711D01*
X144285807Y-97324259D01*
X144255063Y-97330374D01*
X144249003Y-97334423D01*
X144249001Y-97334424D01*
X144236113Y-97343036D01*
X144186945Y-97355068D01*
X144153887Y-97343036D01*
X144140996Y-97334422D01*
X144140994Y-97334421D01*
X144134937Y-97330374D01*
X144127792Y-97328953D01*
X144127790Y-97328952D01*
X144071272Y-97317710D01*
X144071273Y-97317710D01*
X144067703Y-97317000D01*
X143995010Y-97317000D01*
X143922298Y-97317001D01*
X143918731Y-97317711D01*
X143918726Y-97317711D01*
X143899336Y-97321568D01*
X143891413Y-97323144D01*
X143841384Y-97315444D01*
X143824695Y-97302935D01*
X143822260Y-97300504D01*
X143811176Y-97292915D01*
X143720298Y-97252738D01*
X143709685Y-97249845D01*
X143707960Y-97249644D01*
X143697611Y-97252100D01*
X143695000Y-97255609D01*
X143695000Y-97961000D01*
X143677687Y-98008566D01*
X143633850Y-98033876D01*
X143621000Y-98035000D01*
X143569000Y-98035000D01*
X143521434Y-98017687D01*
X143496124Y-97973850D01*
X143495000Y-97961000D01*
X143495000Y-97261194D01*
X143491362Y-97251198D01*
X143487600Y-97249026D01*
X143479781Y-97249956D01*
X143469200Y-97252865D01*
X143378377Y-97293206D01*
X143367310Y-97300813D01*
X143365300Y-97302826D01*
X143362426Y-97304169D01*
X143361677Y-97304684D01*
X143361591Y-97304559D01*
X143319442Y-97324259D01*
X143298492Y-97323124D01*
X143271275Y-97317710D01*
X143271270Y-97317709D01*
X143267703Y-97317000D01*
X143195010Y-97317000D01*
X143122298Y-97317001D01*
X143118731Y-97317711D01*
X143118726Y-97317711D01*
X143085807Y-97324259D01*
X143055063Y-97330374D01*
X143049003Y-97334423D01*
X143049001Y-97334424D01*
X143036113Y-97343036D01*
X142986945Y-97355068D01*
X142953887Y-97343036D01*
X142940996Y-97334422D01*
X142940994Y-97334421D01*
X142934937Y-97330374D01*
X142927792Y-97328953D01*
X142927790Y-97328952D01*
X142871272Y-97317710D01*
X142871273Y-97317710D01*
X142867703Y-97317000D01*
X142795010Y-97317000D01*
X142722298Y-97317001D01*
X142718731Y-97317711D01*
X142718726Y-97317711D01*
X142685807Y-97324259D01*
X142655063Y-97330374D01*
X142649003Y-97334423D01*
X142649001Y-97334424D01*
X142636113Y-97343036D01*
X142586945Y-97355068D01*
X142553887Y-97343036D01*
X142540996Y-97334422D01*
X142540994Y-97334421D01*
X142534937Y-97330374D01*
X142527792Y-97328953D01*
X142527790Y-97328952D01*
X142471272Y-97317710D01*
X142471273Y-97317710D01*
X142467703Y-97317000D01*
X142395010Y-97317000D01*
X142322298Y-97317001D01*
X142318731Y-97317711D01*
X142318726Y-97317711D01*
X142285807Y-97324259D01*
X142255063Y-97330374D01*
X142249003Y-97334423D01*
X142249001Y-97334424D01*
X142236113Y-97343036D01*
X142186945Y-97355068D01*
X142153887Y-97343036D01*
X142140996Y-97334422D01*
X142140994Y-97334421D01*
X142134937Y-97330374D01*
X142127792Y-97328953D01*
X142127790Y-97328952D01*
X142071272Y-97317710D01*
X142071273Y-97317710D01*
X142067703Y-97317000D01*
X141995010Y-97317000D01*
X141922298Y-97317001D01*
X141918731Y-97317711D01*
X141918726Y-97317711D01*
X141885807Y-97324259D01*
X141855063Y-97330374D01*
X141849003Y-97334423D01*
X141849001Y-97334424D01*
X141836113Y-97343036D01*
X141786945Y-97355068D01*
X141753887Y-97343036D01*
X141740996Y-97334422D01*
X141740994Y-97334421D01*
X141734937Y-97330374D01*
X141727792Y-97328953D01*
X141727790Y-97328952D01*
X141671272Y-97317710D01*
X141671273Y-97317710D01*
X141667703Y-97317000D01*
X141595010Y-97317000D01*
X141522298Y-97317001D01*
X141518731Y-97317711D01*
X141518726Y-97317711D01*
X141485807Y-97324259D01*
X141455063Y-97330374D01*
X141449003Y-97334423D01*
X141449001Y-97334424D01*
X141436113Y-97343036D01*
X141386945Y-97355068D01*
X141353887Y-97343036D01*
X141340996Y-97334422D01*
X141340994Y-97334421D01*
X141334937Y-97330374D01*
X141327792Y-97328953D01*
X141327790Y-97328952D01*
X141271272Y-97317710D01*
X141271273Y-97317710D01*
X141267703Y-97317000D01*
X141195010Y-97317000D01*
X141122298Y-97317001D01*
X141118731Y-97317711D01*
X141118726Y-97317711D01*
X141085807Y-97324259D01*
X141055063Y-97330374D01*
X141049003Y-97334423D01*
X141049001Y-97334424D01*
X141036113Y-97343036D01*
X140986945Y-97355068D01*
X140953887Y-97343036D01*
X140940996Y-97334422D01*
X140940994Y-97334421D01*
X140934937Y-97330374D01*
X140927792Y-97328953D01*
X140927790Y-97328952D01*
X140871272Y-97317710D01*
X140871273Y-97317710D01*
X140867703Y-97317000D01*
X140795010Y-97317000D01*
X140722298Y-97317001D01*
X140718731Y-97317711D01*
X140718726Y-97317711D01*
X140662211Y-97328952D01*
X140662210Y-97328953D01*
X140655063Y-97330374D01*
X140654836Y-97330526D01*
X140608263Y-97332559D01*
X140568105Y-97301744D01*
X140557149Y-97252324D01*
X140560478Y-97239904D01*
X140562126Y-97237437D01*
X140575500Y-97170203D01*
X140575499Y-97024798D01*
X140574292Y-97018727D01*
X140563548Y-96964713D01*
X140562126Y-96957563D01*
X140558077Y-96951503D01*
X140558076Y-96951501D01*
X140549464Y-96938613D01*
X140537432Y-96889445D01*
X140549464Y-96856387D01*
X140558078Y-96843496D01*
X140558079Y-96843494D01*
X140562126Y-96837437D01*
X140563549Y-96830287D01*
X140574790Y-96773772D01*
X140575500Y-96770203D01*
X140575499Y-96624798D01*
X140570963Y-96601989D01*
X140563548Y-96564713D01*
X140562126Y-96557563D01*
X140558077Y-96551503D01*
X140558076Y-96551501D01*
X140549464Y-96538613D01*
X140537432Y-96489445D01*
X140549464Y-96456387D01*
X140558078Y-96443496D01*
X140558079Y-96443494D01*
X140562126Y-96437437D01*
X140563549Y-96430287D01*
X140574790Y-96373772D01*
X140575500Y-96370203D01*
X140575499Y-96224798D01*
X140574314Y-96218837D01*
X140563548Y-96164713D01*
X140562126Y-96157563D01*
X140558077Y-96151503D01*
X140558076Y-96151501D01*
X140549464Y-96138613D01*
X140537432Y-96089445D01*
X140549464Y-96056387D01*
X140558078Y-96043496D01*
X140558079Y-96043494D01*
X140562126Y-96037437D01*
X140563549Y-96030287D01*
X140574790Y-95973772D01*
X140575500Y-95970203D01*
X140575499Y-95824798D01*
X140574789Y-95821225D01*
X140569356Y-95793914D01*
X140577056Y-95743884D01*
X140589565Y-95727195D01*
X140591996Y-95724760D01*
X140599585Y-95713676D01*
X140639762Y-95622798D01*
X140642655Y-95612185D01*
X140642856Y-95610460D01*
X140640400Y-95600111D01*
X140636891Y-95597500D01*
X139931500Y-95597500D01*
X139883934Y-95580187D01*
X139858624Y-95536350D01*
X139857500Y-95523500D01*
X139857500Y-95471500D01*
X139874813Y-95423934D01*
X139918650Y-95398624D01*
X139931500Y-95397500D01*
X140631306Y-95397500D01*
X140641302Y-95393862D01*
X140643474Y-95390100D01*
X140642544Y-95382281D01*
X140639635Y-95371700D01*
X140599294Y-95280877D01*
X140591687Y-95269810D01*
X140589674Y-95267800D01*
X140588331Y-95264926D01*
X140587816Y-95264177D01*
X140587941Y-95264091D01*
X140568241Y-95221942D01*
X140569376Y-95200992D01*
X140574790Y-95173775D01*
X140574791Y-95173770D01*
X140575500Y-95170203D01*
X140575499Y-95024798D01*
X140562126Y-94957563D01*
X140558077Y-94951503D01*
X140558076Y-94951501D01*
X140549464Y-94938613D01*
X140537432Y-94889445D01*
X140549464Y-94856387D01*
X140558078Y-94843496D01*
X140558079Y-94843494D01*
X140562126Y-94837437D01*
X140563549Y-94830287D01*
X140574790Y-94773772D01*
X140575500Y-94770203D01*
X140575499Y-94624798D01*
X140562126Y-94557563D01*
X140558077Y-94551503D01*
X140558076Y-94551501D01*
X140549464Y-94538613D01*
X140537432Y-94489445D01*
X140549464Y-94456387D01*
X140558078Y-94443496D01*
X140558079Y-94443494D01*
X140562126Y-94437437D01*
X140563549Y-94430287D01*
X140574790Y-94373772D01*
X140575500Y-94370203D01*
X140575499Y-94224798D01*
X140562126Y-94157563D01*
X140558077Y-94151503D01*
X140558076Y-94151501D01*
X140549464Y-94138613D01*
X140537432Y-94089445D01*
X140549464Y-94056387D01*
X140558078Y-94043496D01*
X140558079Y-94043494D01*
X140562126Y-94037437D01*
X140563549Y-94030287D01*
X140574790Y-93973772D01*
X140575500Y-93970203D01*
X140575499Y-93824798D01*
X140562126Y-93757563D01*
X140558077Y-93751503D01*
X140558076Y-93751501D01*
X140549464Y-93738613D01*
X140537432Y-93689445D01*
X140549464Y-93656387D01*
X140558078Y-93643496D01*
X140558079Y-93643494D01*
X140562126Y-93637437D01*
X140563549Y-93630287D01*
X140574790Y-93573772D01*
X140575500Y-93570203D01*
X140575499Y-93424798D01*
X140574484Y-93419691D01*
X140563548Y-93364713D01*
X140562126Y-93357563D01*
X140558077Y-93351503D01*
X140558076Y-93351501D01*
X140549464Y-93338613D01*
X140537432Y-93289445D01*
X140549464Y-93256387D01*
X140558078Y-93243496D01*
X140558079Y-93243494D01*
X140562126Y-93237437D01*
X140563549Y-93230287D01*
X140574790Y-93173772D01*
X140575500Y-93170203D01*
X140575499Y-93024798D01*
X140574641Y-93020480D01*
X140563548Y-92964713D01*
X140562126Y-92957563D01*
X140558077Y-92951503D01*
X140558076Y-92951501D01*
X140549464Y-92938613D01*
X140537432Y-92889445D01*
X140549464Y-92856387D01*
X140558078Y-92843496D01*
X140558079Y-92843494D01*
X140562126Y-92837437D01*
X140563549Y-92830287D01*
X140574790Y-92773772D01*
X140575500Y-92770203D01*
X140575499Y-92624798D01*
X140562126Y-92557563D01*
X140558077Y-92551503D01*
X140558076Y-92551501D01*
X140549464Y-92538613D01*
X140537432Y-92489445D01*
X140549464Y-92456387D01*
X140558078Y-92443496D01*
X140558079Y-92443494D01*
X140562126Y-92437437D01*
X140563549Y-92430287D01*
X140574790Y-92373772D01*
X140575500Y-92370203D01*
X140575499Y-92224798D01*
X140574789Y-92221225D01*
X140569356Y-92193914D01*
X140577056Y-92143884D01*
X140589565Y-92127195D01*
X140591996Y-92124760D01*
X140599585Y-92113676D01*
X140639762Y-92022798D01*
X140642655Y-92012185D01*
X140642856Y-92010460D01*
X140640400Y-92000111D01*
X140636891Y-91997500D01*
X139931500Y-91997500D01*
X139883934Y-91980187D01*
X139858624Y-91936350D01*
X139857500Y-91923500D01*
X139857500Y-91560548D01*
X139853862Y-91550552D01*
X139848575Y-91547500D01*
X139527609Y-91547500D01*
X139523261Y-91547758D01*
X139504782Y-91549956D01*
X139494201Y-91552864D01*
X139429040Y-91581808D01*
X139378541Y-91585295D01*
X139337615Y-91555506D01*
X139325000Y-91514179D01*
X139325000Y-90504000D01*
X139342313Y-90456434D01*
X139386150Y-90431124D01*
X139399000Y-90430000D01*
X139475000Y-90430000D01*
X140252604Y-90430975D01*
G37*
%TD.AperFunction*%
%TD*%
%TA.AperFunction,Conductor*%
%TO.N,ADC_IOVDD(43)*%
G36*
X154988072Y-85356537D02*
G01*
X155024057Y-85406021D01*
X155027412Y-85453844D01*
X155022816Y-85479909D01*
X155022177Y-85483535D01*
X155020307Y-85491968D01*
X155010247Y-85529511D01*
X155011002Y-85538140D01*
X155013634Y-85568223D01*
X155014011Y-85576852D01*
X155014011Y-86968301D01*
X154995104Y-87026492D01*
X154945604Y-87062456D01*
X154884418Y-87062456D01*
X154834918Y-87026492D01*
X154824535Y-87008488D01*
X154820981Y-87000488D01*
X154810804Y-86985679D01*
X154744642Y-86919633D01*
X154729819Y-86909483D01*
X154642770Y-86871000D01*
X154628565Y-86867127D01*
X154613170Y-86865332D01*
X154607458Y-86865000D01*
X153106430Y-86865000D01*
X153093745Y-86869122D01*
X153090750Y-86873243D01*
X153090750Y-88291000D01*
X153071843Y-88349191D01*
X153022343Y-88385155D01*
X152991750Y-88390000D01*
X151031430Y-88390000D01*
X151018745Y-88394122D01*
X151015750Y-88398243D01*
X151015750Y-89356639D01*
X151016096Y-89362485D01*
X151017984Y-89378353D01*
X151021878Y-89392519D01*
X151060520Y-89479514D01*
X151070694Y-89494318D01*
X151137186Y-89560694D01*
X151165011Y-89615187D01*
X151161605Y-89636811D01*
X151169553Y-89626454D01*
X151228218Y-89609076D01*
X151251665Y-89612528D01*
X151252929Y-89612872D01*
X151268330Y-89614668D01*
X151274042Y-89615000D01*
X152590588Y-89615000D01*
X152648779Y-89633907D01*
X152684743Y-89683407D01*
X152684743Y-89744593D01*
X152648779Y-89794093D01*
X152623390Y-89807408D01*
X152603766Y-89814300D01*
X152590833Y-89821147D01*
X152496316Y-89890959D01*
X152485959Y-89901316D01*
X152416147Y-89995833D01*
X152409300Y-90008766D01*
X152369912Y-90120927D01*
X152367344Y-90132629D01*
X152365218Y-90155114D01*
X152365000Y-90159750D01*
X152365000Y-90214320D01*
X152369122Y-90227005D01*
X152373243Y-90230000D01*
X152996000Y-90230000D01*
X153054191Y-90248907D01*
X153090155Y-90298407D01*
X153095000Y-90329000D01*
X153095000Y-90974319D01*
X153099122Y-90987004D01*
X153103243Y-90989999D01*
X153135247Y-90989999D01*
X153139890Y-90989780D01*
X153162374Y-90987655D01*
X153174070Y-90985090D01*
X153286234Y-90945700D01*
X153299167Y-90938853D01*
X153399641Y-90864641D01*
X153400618Y-90865964D01*
X153447271Y-90842194D01*
X153507703Y-90851765D01*
X153520946Y-90859880D01*
X153527103Y-90864353D01*
X153532609Y-90869859D01*
X153539548Y-90873395D01*
X153539550Y-90873396D01*
X153635885Y-90922481D01*
X153642825Y-90926017D01*
X153650519Y-90927236D01*
X153650520Y-90927236D01*
X153730419Y-90939891D01*
X153730421Y-90939891D01*
X153734265Y-90940500D01*
X153904978Y-90940500D01*
X154075734Y-90940499D01*
X154079577Y-90939890D01*
X154079582Y-90939890D01*
X154159481Y-90927236D01*
X154159484Y-90927235D01*
X154167175Y-90926017D01*
X154231142Y-90893424D01*
X154270452Y-90873395D01*
X154270454Y-90873394D01*
X154277391Y-90869859D01*
X154333969Y-90813281D01*
X154388486Y-90785504D01*
X154448918Y-90795075D01*
X154464241Y-90804743D01*
X154537375Y-90860861D01*
X154671291Y-90916330D01*
X154677720Y-90917176D01*
X154677722Y-90917177D01*
X154808567Y-90934403D01*
X154815000Y-90935250D01*
X154853395Y-90930195D01*
X154913555Y-90941345D01*
X154955673Y-90985727D01*
X154963659Y-91046389D01*
X154936321Y-91098352D01*
X154856097Y-91178576D01*
X154801580Y-91206353D01*
X154786156Y-91207572D01*
X154016946Y-91208061D01*
X151507087Y-91209655D01*
X151448885Y-91190785D01*
X151412890Y-91141307D01*
X151408872Y-91123577D01*
X151402177Y-91072722D01*
X151402176Y-91072720D01*
X151401330Y-91066291D01*
X151345861Y-90932375D01*
X151257621Y-90817379D01*
X151252472Y-90813428D01*
X151252470Y-90813426D01*
X151246106Y-90808543D01*
X151211449Y-90758119D01*
X151213050Y-90696955D01*
X151246106Y-90651457D01*
X151252470Y-90646574D01*
X151252472Y-90646572D01*
X151257621Y-90642621D01*
X151269321Y-90627374D01*
X151290136Y-90600247D01*
X152365001Y-90600247D01*
X152365220Y-90604890D01*
X152367345Y-90627374D01*
X152369910Y-90639070D01*
X152409300Y-90751234D01*
X152416147Y-90764167D01*
X152485959Y-90858684D01*
X152496316Y-90869041D01*
X152590833Y-90938853D01*
X152603766Y-90945700D01*
X152715927Y-90985088D01*
X152727629Y-90987656D01*
X152750114Y-90989782D01*
X152754750Y-90990000D01*
X152779320Y-90990000D01*
X152792005Y-90985878D01*
X152795000Y-90981757D01*
X152795000Y-90545680D01*
X152790878Y-90532995D01*
X152786757Y-90530000D01*
X152380681Y-90530000D01*
X152367996Y-90534122D01*
X152365001Y-90538243D01*
X152365001Y-90600247D01*
X151290136Y-90600247D01*
X151341910Y-90532774D01*
X151345861Y-90527625D01*
X151401330Y-90393709D01*
X151403019Y-90380886D01*
X151419403Y-90256433D01*
X151420250Y-90250000D01*
X151413914Y-90201874D01*
X151402177Y-90112722D01*
X151402176Y-90112720D01*
X151401330Y-90106291D01*
X151345861Y-89972375D01*
X151257621Y-89857379D01*
X151252472Y-89853428D01*
X151252469Y-89853425D01*
X151165360Y-89786584D01*
X151130704Y-89736160D01*
X151131664Y-89699497D01*
X151112265Y-89718929D01*
X151051841Y-89728554D01*
X151029358Y-89722223D01*
X151008709Y-89713670D01*
X151002280Y-89712824D01*
X151002278Y-89712823D01*
X150886716Y-89697609D01*
X150865000Y-89694750D01*
X150843284Y-89697609D01*
X150727722Y-89712823D01*
X150727720Y-89712824D01*
X150721291Y-89713670D01*
X150587375Y-89769139D01*
X150582228Y-89773089D01*
X150582222Y-89773092D01*
X150509996Y-89828513D01*
X150452320Y-89848937D01*
X150393655Y-89831559D01*
X150379725Y-89819975D01*
X150327391Y-89767641D01*
X150320454Y-89764106D01*
X150320452Y-89764105D01*
X150224115Y-89715019D01*
X150224114Y-89715019D01*
X150217175Y-89711483D01*
X150209481Y-89710264D01*
X150209480Y-89710264D01*
X150129581Y-89697609D01*
X150129579Y-89697609D01*
X150125735Y-89697000D01*
X149955022Y-89697000D01*
X149784266Y-89697001D01*
X149780423Y-89697610D01*
X149780418Y-89697610D01*
X149700519Y-89710264D01*
X149700516Y-89710265D01*
X149692825Y-89711483D01*
X149644394Y-89736160D01*
X149589550Y-89764104D01*
X149589548Y-89764105D01*
X149582609Y-89767641D01*
X149577103Y-89773147D01*
X149570946Y-89777620D01*
X149512755Y-89796525D01*
X149454565Y-89777616D01*
X149444861Y-89769328D01*
X149349167Y-89698647D01*
X149336234Y-89691800D01*
X149224073Y-89652412D01*
X149212371Y-89649844D01*
X149189886Y-89647718D01*
X149185250Y-89647500D01*
X149160680Y-89647500D01*
X149147995Y-89651622D01*
X149145000Y-89655743D01*
X149145000Y-91268500D01*
X149126093Y-91326691D01*
X149076593Y-91362655D01*
X149046000Y-91367500D01*
X148430681Y-91367500D01*
X148417996Y-91371622D01*
X148415001Y-91375743D01*
X148415001Y-91437747D01*
X148415220Y-91442390D01*
X148417345Y-91464874D01*
X148419910Y-91476570D01*
X148459300Y-91588734D01*
X148466147Y-91601667D01*
X148535959Y-91696184D01*
X148546316Y-91706541D01*
X148620544Y-91761367D01*
X148656118Y-91811148D01*
X148655637Y-91872332D01*
X148619286Y-91921547D01*
X148561726Y-91940000D01*
X147652300Y-91940000D01*
X147594109Y-91921093D01*
X147558145Y-91871593D01*
X147558145Y-91810407D01*
X147564940Y-91797073D01*
X147565857Y-91786180D01*
X147560994Y-91753145D01*
X147556483Y-91738627D01*
X147512127Y-91648284D01*
X147502730Y-91635158D01*
X147431848Y-91564399D01*
X147418706Y-91555026D01*
X147328278Y-91510824D01*
X147313769Y-91506339D01*
X147256722Y-91498017D01*
X147249595Y-91497500D01*
X146948180Y-91497500D01*
X146935495Y-91501622D01*
X146932500Y-91505743D01*
X146932500Y-91781820D01*
X146944063Y-91817408D01*
X146944062Y-91878593D01*
X146908098Y-91928093D01*
X146871452Y-91940000D01*
X146790648Y-91940000D01*
X146754001Y-91928093D01*
X146718037Y-91878593D01*
X146718037Y-91817407D01*
X146732099Y-91789810D01*
X146732500Y-91789258D01*
X146732500Y-91513181D01*
X146728378Y-91500496D01*
X146724257Y-91497501D01*
X146494000Y-91497501D01*
X146435809Y-91478594D01*
X146399845Y-91429094D01*
X146395000Y-91398501D01*
X146395000Y-91175680D01*
X146390878Y-91162995D01*
X146386757Y-91160000D01*
X146110680Y-91160000D01*
X146097995Y-91164122D01*
X146095000Y-91168243D01*
X146095000Y-91779343D01*
X146099495Y-91793177D01*
X146102936Y-91796080D01*
X146102984Y-91796126D01*
X146108864Y-91797500D01*
X146250987Y-91797500D01*
X146309178Y-91816407D01*
X146345142Y-91865907D01*
X146345142Y-91927093D01*
X146335764Y-91940000D01*
X145655000Y-91940000D01*
X145655000Y-91779343D01*
X145695000Y-91779343D01*
X145699122Y-91792028D01*
X145700246Y-91792845D01*
X145706320Y-91793357D01*
X145739355Y-91788494D01*
X145761221Y-91781700D01*
X145761835Y-91783677D01*
X145812048Y-91776488D01*
X145829331Y-91782088D01*
X145829386Y-91781909D01*
X145851228Y-91788660D01*
X145879483Y-91792782D01*
X145892632Y-91790535D01*
X145893626Y-91789516D01*
X145895000Y-91783636D01*
X145895000Y-91175680D01*
X145890878Y-91162995D01*
X145886757Y-91160000D01*
X145710680Y-91160000D01*
X145697995Y-91164122D01*
X145695000Y-91168243D01*
X145695000Y-91779343D01*
X145655000Y-91779343D01*
X145655000Y-91051820D01*
X148415000Y-91051820D01*
X148419122Y-91064505D01*
X148423243Y-91067500D01*
X148829320Y-91067500D01*
X148842005Y-91063378D01*
X148845000Y-91059257D01*
X148845000Y-90423180D01*
X148840878Y-90410495D01*
X148836757Y-90407500D01*
X148430681Y-90407500D01*
X148417996Y-90411622D01*
X148415001Y-90415743D01*
X148415001Y-90477747D01*
X148415220Y-90482390D01*
X148417345Y-90504874D01*
X148419910Y-90516570D01*
X148459300Y-90628734D01*
X148466147Y-90641667D01*
X148493487Y-90678682D01*
X148512851Y-90736722D01*
X148493487Y-90796318D01*
X148466147Y-90833333D01*
X148459300Y-90846266D01*
X148419912Y-90958427D01*
X148417344Y-90970129D01*
X148415218Y-90992614D01*
X148415000Y-90997250D01*
X148415000Y-91051820D01*
X145655000Y-91051820D01*
X145655000Y-90960000D01*
X146379319Y-90960000D01*
X146392004Y-90955878D01*
X146394999Y-90951757D01*
X146394999Y-90642943D01*
X146394472Y-90635746D01*
X146385994Y-90578145D01*
X146381483Y-90563627D01*
X146337127Y-90473284D01*
X146327730Y-90460158D01*
X146267064Y-90399598D01*
X146239238Y-90345105D01*
X146248757Y-90284665D01*
X146291984Y-90241363D01*
X146309383Y-90234465D01*
X146315535Y-90232677D01*
X146323658Y-90231716D01*
X146330642Y-90228362D01*
X146331974Y-90227941D01*
X146339623Y-90226668D01*
X146381680Y-90203975D01*
X146385785Y-90201884D01*
X146411043Y-90189755D01*
X146453896Y-90180000D01*
X147225000Y-90180000D01*
X147225000Y-90091820D01*
X148415000Y-90091820D01*
X148419122Y-90104505D01*
X148423243Y-90107500D01*
X148829320Y-90107500D01*
X148842005Y-90103378D01*
X148845000Y-90099257D01*
X148845000Y-89663181D01*
X148840878Y-89650496D01*
X148836757Y-89647501D01*
X148804753Y-89647501D01*
X148800110Y-89647720D01*
X148777626Y-89649845D01*
X148765930Y-89652410D01*
X148653766Y-89691800D01*
X148640833Y-89698647D01*
X148546316Y-89768459D01*
X148535959Y-89778816D01*
X148466147Y-89873333D01*
X148459300Y-89886266D01*
X148419912Y-89998427D01*
X148417344Y-90010129D01*
X148415218Y-90032614D01*
X148415000Y-90037250D01*
X148415000Y-90091820D01*
X147225000Y-90091820D01*
X147225000Y-89879319D01*
X147455000Y-89879319D01*
X147459122Y-89892004D01*
X147463243Y-89894999D01*
X147525247Y-89894999D01*
X147529890Y-89894780D01*
X147552374Y-89892655D01*
X147564070Y-89890090D01*
X147676234Y-89850700D01*
X147689167Y-89843853D01*
X147783684Y-89774041D01*
X147794041Y-89763684D01*
X147863853Y-89669167D01*
X147870700Y-89656234D01*
X147910088Y-89544073D01*
X147912656Y-89532371D01*
X147914782Y-89509886D01*
X147915000Y-89505250D01*
X147915000Y-89480680D01*
X147910878Y-89467995D01*
X147906757Y-89465000D01*
X147470680Y-89465000D01*
X147457995Y-89469122D01*
X147455000Y-89473243D01*
X147455000Y-89879319D01*
X147225000Y-89879319D01*
X147225000Y-89169593D01*
X147254000Y-89165000D01*
X147899319Y-89165000D01*
X147912004Y-89160878D01*
X147914999Y-89156757D01*
X147914999Y-89124753D01*
X147914780Y-89120110D01*
X147912655Y-89097626D01*
X147910090Y-89085930D01*
X147870700Y-88973766D01*
X147863853Y-88960833D01*
X147789641Y-88860359D01*
X147790964Y-88859382D01*
X147767194Y-88812729D01*
X147776765Y-88752297D01*
X147784880Y-88739054D01*
X147789353Y-88732897D01*
X147794859Y-88727391D01*
X147802170Y-88713044D01*
X147847481Y-88624115D01*
X147847481Y-88624114D01*
X147851017Y-88617175D01*
X147865500Y-88525735D01*
X147865499Y-88184266D01*
X147863607Y-88172317D01*
X147852236Y-88100519D01*
X147852235Y-88100516D01*
X147851017Y-88092825D01*
X147841588Y-88074320D01*
X151015750Y-88074320D01*
X151019872Y-88087005D01*
X151023993Y-88090000D01*
X152775070Y-88090000D01*
X152787755Y-88085878D01*
X152790750Y-88081757D01*
X152790750Y-86880680D01*
X152786628Y-86867995D01*
X152782507Y-86865000D01*
X151274111Y-86865000D01*
X151268265Y-86865346D01*
X151252397Y-86867234D01*
X151238231Y-86871128D01*
X151151236Y-86909770D01*
X151136429Y-86919946D01*
X151070383Y-86986108D01*
X151060233Y-87000931D01*
X151021750Y-87087980D01*
X151017877Y-87102185D01*
X151016082Y-87117580D01*
X151015750Y-87123292D01*
X151015750Y-88074320D01*
X147841588Y-88074320D01*
X147794859Y-87982609D01*
X147739366Y-87927116D01*
X147711589Y-87872599D01*
X147721160Y-87812167D01*
X147730829Y-87796844D01*
X147781907Y-87730279D01*
X147781910Y-87730275D01*
X147785861Y-87725125D01*
X147841330Y-87591209D01*
X147860250Y-87447500D01*
X147841330Y-87303791D01*
X147809475Y-87226885D01*
X147804675Y-87165888D01*
X147836644Y-87113719D01*
X147893172Y-87090305D01*
X147900939Y-87090000D01*
X149585000Y-87090000D01*
X149580593Y-86318733D01*
X149575569Y-85439522D01*
X149594143Y-85381224D01*
X149643437Y-85344978D01*
X149674521Y-85339956D01*
X153067237Y-85338471D01*
X154929873Y-85337655D01*
X154988072Y-85356537D01*
G37*
%TD.AperFunction*%
%TD*%
%TA.AperFunction,Conductor*%
%TO.N,GND*%
G36*
X141403061Y-99219685D02*
G01*
X141448816Y-99272489D01*
X141458760Y-99341647D01*
X141429735Y-99405203D01*
X141423703Y-99411681D01*
X140828014Y-100007370D01*
X140809225Y-100022790D01*
X140806531Y-100024590D01*
X140806529Y-100024592D01*
X140796376Y-100031376D01*
X140789592Y-100041529D01*
X140743907Y-100109901D01*
X140735485Y-100122505D01*
X140724959Y-100175425D01*
X140714103Y-100230000D01*
X140716486Y-100241980D01*
X140717117Y-100245152D01*
X140719500Y-100269344D01*
X140719500Y-101511076D01*
X140699815Y-101578115D01*
X140647011Y-101623870D01*
X140577853Y-101633814D01*
X140532379Y-101617808D01*
X140437908Y-101561938D01*
X140423706Y-101555792D01*
X140302118Y-101520468D01*
X140288243Y-101520508D01*
X140285000Y-101527662D01*
X140285000Y-103106675D01*
X140288910Y-103119992D01*
X140296685Y-103121110D01*
X140423706Y-103084208D01*
X140437908Y-103078062D01*
X140563661Y-103003692D01*
X140575897Y-102994200D01*
X140679203Y-102890894D01*
X140690689Y-102876087D01*
X140747332Y-102835182D01*
X140804849Y-102829151D01*
X140809779Y-102829800D01*
X140815099Y-102830500D01*
X140994844Y-102830500D01*
X141174900Y-102830499D01*
X141178916Y-102829970D01*
X141178922Y-102829970D01*
X141215083Y-102825210D01*
X141215084Y-102825210D01*
X141224487Y-102823972D01*
X141233083Y-102819964D01*
X141233085Y-102819963D01*
X141323486Y-102777808D01*
X141323487Y-102777807D01*
X141333316Y-102773224D01*
X141418224Y-102688316D01*
X141423486Y-102677032D01*
X141425148Y-102675144D01*
X141429032Y-102669597D01*
X141429650Y-102670030D01*
X141469654Y-102624592D01*
X141536847Y-102605437D01*
X141603729Y-102625649D01*
X141623550Y-102641752D01*
X141856167Y-102874369D01*
X141870048Y-102895146D01*
X141871899Y-102893909D01*
X141899943Y-102935879D01*
X141915141Y-102958624D01*
X141932790Y-102985038D01*
X141942943Y-102991822D01*
X141942945Y-102991824D01*
X141945639Y-102993624D01*
X141964428Y-103009044D01*
X142185003Y-103229619D01*
X142218488Y-103290942D01*
X142213504Y-103360634D01*
X142171632Y-103416567D01*
X142106168Y-103440984D01*
X142097322Y-103441300D01*
X140785252Y-103441300D01*
X140757326Y-103446855D01*
X140738747Y-103450550D01*
X140738745Y-103450551D01*
X140726769Y-103452933D01*
X140660448Y-103497248D01*
X140616133Y-103563569D01*
X140613751Y-103575545D01*
X140613750Y-103575547D01*
X140612288Y-103582897D01*
X140604500Y-103622052D01*
X140604500Y-105668148D01*
X140616133Y-105726631D01*
X140660448Y-105792952D01*
X140726769Y-105837267D01*
X140738745Y-105839649D01*
X140738747Y-105839650D01*
X140757326Y-105843345D01*
X140785252Y-105848900D01*
X142120148Y-105848900D01*
X142148074Y-105843345D01*
X142166653Y-105839650D01*
X142166655Y-105839649D01*
X142178631Y-105837267D01*
X142244952Y-105792952D01*
X142289267Y-105726631D01*
X142300900Y-105668148D01*
X142300900Y-105039500D01*
X142320585Y-104972461D01*
X142373389Y-104926706D01*
X142424900Y-104915500D01*
X142585656Y-104915500D01*
X142609848Y-104917883D01*
X142625000Y-104920897D01*
X142636980Y-104918514D01*
X142720514Y-104901898D01*
X142732494Y-104899515D01*
X142800622Y-104853994D01*
X142804378Y-104850238D01*
X142810040Y-104846039D01*
X142810671Y-104845408D01*
X142820824Y-104838624D01*
X142827608Y-104828471D01*
X142832494Y-104823585D01*
X142839191Y-104815425D01*
X143017086Y-104637530D01*
X143035875Y-104622110D01*
X143038569Y-104620310D01*
X143038571Y-104620308D01*
X143048724Y-104613524D01*
X143109615Y-104522395D01*
X143125600Y-104442033D01*
X143125601Y-104442029D01*
X143125600Y-104442029D01*
X143130996Y-104414900D01*
X143127982Y-104399747D01*
X143125600Y-104375557D01*
X143125600Y-103544443D01*
X143127982Y-103520253D01*
X143128614Y-103517076D01*
X143130996Y-103505100D01*
X143125600Y-103477971D01*
X143125601Y-103477971D01*
X143125600Y-103477967D01*
X143111998Y-103409583D01*
X143111997Y-103409581D01*
X143109615Y-103397605D01*
X143048724Y-103306476D01*
X143038571Y-103299692D01*
X143038569Y-103299690D01*
X143035875Y-103297890D01*
X143017086Y-103282470D01*
X142541797Y-102807181D01*
X142508312Y-102745858D01*
X142513296Y-102676166D01*
X142555168Y-102620233D01*
X142620632Y-102595816D01*
X142629478Y-102595500D01*
X143219498Y-102595500D01*
X143286537Y-102615185D01*
X143331879Y-102667093D01*
X143336110Y-102676166D01*
X143341776Y-102688316D01*
X143426684Y-102773224D01*
X143436517Y-102777809D01*
X143436625Y-102777885D01*
X143480249Y-102832463D01*
X143489500Y-102879459D01*
X143489500Y-104380656D01*
X143487117Y-104404848D01*
X143484103Y-104420000D01*
X143489500Y-104447132D01*
X143489500Y-104447133D01*
X143505485Y-104527495D01*
X143533529Y-104569465D01*
X143547599Y-104590522D01*
X143566376Y-104618624D01*
X143576532Y-104625410D01*
X143576534Y-104625412D01*
X143579225Y-104627210D01*
X143598014Y-104642630D01*
X143767470Y-104812086D01*
X143782890Y-104830875D01*
X143784690Y-104833569D01*
X143784692Y-104833571D01*
X143791476Y-104843724D01*
X143814477Y-104859093D01*
X143814478Y-104859094D01*
X143874972Y-104899515D01*
X143882605Y-104904615D01*
X143937328Y-104915500D01*
X143962967Y-104920600D01*
X143962971Y-104920601D01*
X143962971Y-104920600D01*
X143990100Y-104925996D01*
X144005253Y-104922982D01*
X144029443Y-104920600D01*
X144185100Y-104920600D01*
X144252139Y-104940285D01*
X144297894Y-104993089D01*
X144309100Y-105044600D01*
X144309100Y-105668148D01*
X144320733Y-105726631D01*
X144365048Y-105792952D01*
X144431369Y-105837267D01*
X144443345Y-105839649D01*
X144443347Y-105839650D01*
X144461926Y-105843345D01*
X144489852Y-105848900D01*
X145824748Y-105848900D01*
X145852674Y-105843345D01*
X145871253Y-105839650D01*
X145871255Y-105839649D01*
X145883231Y-105837267D01*
X145949552Y-105792952D01*
X145993867Y-105726631D01*
X146005500Y-105668148D01*
X146005500Y-103622052D01*
X145997712Y-103582897D01*
X145996250Y-103575547D01*
X145996249Y-103575545D01*
X145993867Y-103563569D01*
X145949552Y-103497248D01*
X145883231Y-103452933D01*
X145871255Y-103450551D01*
X145871253Y-103450550D01*
X145852674Y-103446855D01*
X145824748Y-103441300D01*
X144489852Y-103441300D01*
X144461926Y-103446855D01*
X144443347Y-103450550D01*
X144443345Y-103450551D01*
X144431369Y-103452933D01*
X144365048Y-103497248D01*
X144320733Y-103563569D01*
X144318351Y-103575545D01*
X144318350Y-103575547D01*
X144316888Y-103582897D01*
X144309100Y-103622052D01*
X144309100Y-104245600D01*
X144289415Y-104312639D01*
X144236611Y-104358394D01*
X144185100Y-104369600D01*
X144164500Y-104369600D01*
X144097461Y-104349915D01*
X144051706Y-104297111D01*
X144040500Y-104245600D01*
X144040500Y-103128924D01*
X144060185Y-103061885D01*
X144112989Y-103016130D01*
X144182147Y-103006186D01*
X144227621Y-103022192D01*
X144322092Y-103078062D01*
X144336294Y-103084208D01*
X144457882Y-103119532D01*
X144471757Y-103119492D01*
X144475000Y-103112338D01*
X144475000Y-103106675D01*
X144975000Y-103106675D01*
X144978910Y-103119992D01*
X144986685Y-103121110D01*
X145113706Y-103084208D01*
X145127908Y-103078062D01*
X145253661Y-103003692D01*
X145265897Y-102994200D01*
X145369200Y-102890897D01*
X145378692Y-102878661D01*
X145453061Y-102752910D01*
X145459209Y-102738702D01*
X145500376Y-102597002D01*
X145502216Y-102586931D01*
X145499273Y-102572923D01*
X145487991Y-102570000D01*
X144992830Y-102570000D01*
X144977831Y-102574404D01*
X144976644Y-102575774D01*
X144975000Y-102583332D01*
X144975000Y-103106675D01*
X144475000Y-103106675D01*
X144475000Y-101917675D01*
X144975000Y-101916774D01*
X144975000Y-102052170D01*
X144979404Y-102067169D01*
X144980774Y-102068356D01*
X144988332Y-102070000D01*
X145485960Y-102070000D01*
X145500523Y-102065724D01*
X145502551Y-102054249D01*
X145502164Y-102049324D01*
X145516532Y-101980948D01*
X145565586Y-101931194D01*
X145625558Y-101915602D01*
X147436783Y-101912338D01*
X147503856Y-101931902D01*
X147549706Y-101984623D01*
X147561005Y-102036607D01*
X147555774Y-104426876D01*
X147551970Y-106165282D01*
X147532138Y-106232279D01*
X147515651Y-106252692D01*
X147509930Y-106258413D01*
X147478544Y-106281216D01*
X147430048Y-106305926D01*
X147393153Y-106317913D01*
X147347019Y-106325220D01*
X147329737Y-106326581D01*
X147320000Y-106324864D01*
X147304391Y-106327616D01*
X147282861Y-106329500D01*
X139557139Y-106329500D01*
X139535609Y-106327616D01*
X139520000Y-106324864D01*
X139510263Y-106326581D01*
X139492981Y-106325220D01*
X139446847Y-106317913D01*
X139409952Y-106305926D01*
X139361456Y-106281216D01*
X139330070Y-106258413D01*
X139311319Y-106239662D01*
X139277834Y-106178339D01*
X139275000Y-106151981D01*
X139275000Y-103074459D01*
X139294685Y-103007420D01*
X139347489Y-102961665D01*
X139416647Y-102951721D01*
X139480203Y-102980746D01*
X139486681Y-102986778D01*
X139494103Y-102994200D01*
X139506339Y-103003692D01*
X139632092Y-103078062D01*
X139646294Y-103084208D01*
X139767882Y-103119532D01*
X139781757Y-103119492D01*
X139785000Y-103112338D01*
X139785000Y-101533325D01*
X139781090Y-101520008D01*
X139773315Y-101518890D01*
X139646294Y-101555792D01*
X139632092Y-101561938D01*
X139506339Y-101636308D01*
X139494103Y-101645800D01*
X139486681Y-101653222D01*
X139425358Y-101686707D01*
X139355666Y-101681723D01*
X139299733Y-101639851D01*
X139275316Y-101574387D01*
X139275000Y-101565541D01*
X139275000Y-100133873D01*
X139294685Y-100066834D01*
X139327004Y-100032915D01*
X140207244Y-99405203D01*
X140462690Y-99223041D01*
X140534685Y-99200000D01*
X141336022Y-99200000D01*
X141403061Y-99219685D01*
G37*
%TD.AperFunction*%
%TA.AperFunction,Conductor*%
G36*
X143104333Y-99232796D02*
G01*
X143160267Y-99274667D01*
X143184684Y-99340132D01*
X143185000Y-99348978D01*
X143185000Y-99497098D01*
X143165315Y-99564137D01*
X143150432Y-99582606D01*
X143149446Y-99584014D01*
X143141776Y-99591684D01*
X143091028Y-99700513D01*
X143084500Y-99750099D01*
X143084501Y-100109900D01*
X143085030Y-100113919D01*
X143085031Y-100113934D01*
X143085850Y-100120157D01*
X143075080Y-100189192D01*
X143038913Y-100234311D01*
X143024106Y-100245797D01*
X142920800Y-100349103D01*
X142911308Y-100361339D01*
X142836938Y-100487092D01*
X142830792Y-100501294D01*
X142795468Y-100622882D01*
X142795508Y-100636757D01*
X142802662Y-100640000D01*
X143185000Y-100640000D01*
X143185000Y-101140000D01*
X142808325Y-101140000D01*
X142795008Y-101143910D01*
X142793890Y-101151685D01*
X142830792Y-101278706D01*
X142836938Y-101292908D01*
X142911308Y-101418661D01*
X142920800Y-101430897D01*
X143024103Y-101534200D01*
X143036336Y-101543689D01*
X143124122Y-101595606D01*
X143171805Y-101646676D01*
X143185000Y-101702338D01*
X143185000Y-101920000D01*
X143180124Y-101920000D01*
X143180136Y-101955394D01*
X143142382Y-102014185D01*
X143078836Y-102043232D01*
X143061147Y-102044500D01*
X142389117Y-102044500D01*
X142322078Y-102024815D01*
X142276323Y-101972011D01*
X142266379Y-101902853D01*
X142295404Y-101839297D01*
X142327058Y-101815405D01*
X142326685Y-101814873D01*
X142335574Y-101808649D01*
X142345404Y-101804065D01*
X142429065Y-101720404D01*
X142433649Y-101710574D01*
X142475060Y-101621769D01*
X142475061Y-101621767D01*
X142479068Y-101613173D01*
X142481381Y-101595606D01*
X142484971Y-101568336D01*
X142484971Y-101568333D01*
X142485500Y-101564316D01*
X142485500Y-101215684D01*
X142479068Y-101166827D01*
X142472008Y-101151685D01*
X142433649Y-101069426D01*
X142433649Y-101069425D01*
X142429065Y-101059596D01*
X142345404Y-100975935D01*
X142345549Y-100975790D01*
X142306549Y-100926998D01*
X142299355Y-100857500D01*
X142330878Y-100795145D01*
X142341639Y-100785821D01*
X142345404Y-100784065D01*
X142429065Y-100700404D01*
X142433649Y-100690574D01*
X142475060Y-100601769D01*
X142475061Y-100601767D01*
X142479068Y-100593173D01*
X142485500Y-100544316D01*
X142485500Y-100195684D01*
X142484646Y-100189192D01*
X142480306Y-100156231D01*
X142479068Y-100146827D01*
X142473028Y-100133873D01*
X142433649Y-100049426D01*
X142433649Y-100049425D01*
X142429065Y-100039596D01*
X142399724Y-100010255D01*
X142366239Y-99948932D01*
X142371223Y-99879240D01*
X142399724Y-99834893D01*
X142973319Y-99261297D01*
X143034642Y-99227812D01*
X143104333Y-99232796D01*
G37*
%TD.AperFunction*%
%TD*%
%TA.AperFunction,Conductor*%
%TO.N,DVDD(23)*%
G36*
X145330148Y-91704352D02*
G01*
X145344500Y-91739000D01*
X145344500Y-91990503D01*
X145343558Y-92000060D01*
X145339592Y-92020000D01*
X145340534Y-92024736D01*
X145355442Y-92099681D01*
X145359034Y-92117741D01*
X145369542Y-92133466D01*
X145370283Y-92134575D01*
X145370284Y-92134577D01*
X145386742Y-92159209D01*
X145395000Y-92186431D01*
X145395000Y-92661000D01*
X145380648Y-92695648D01*
X145346000Y-92710000D01*
X141605000Y-92710000D01*
X141604328Y-96102156D01*
X141614123Y-96102121D01*
X141632141Y-96102056D01*
X141652561Y-96101983D01*
X141687261Y-96116211D01*
X141690953Y-96120634D01*
X141692091Y-96123196D01*
X141695292Y-96126391D01*
X141695293Y-96126393D01*
X141730803Y-96161841D01*
X141769735Y-96200705D01*
X141773873Y-96202534D01*
X141773874Y-96202535D01*
X141866708Y-96243576D01*
X141866710Y-96243577D01*
X141870077Y-96245065D01*
X141873735Y-96245492D01*
X141873737Y-96245492D01*
X141893839Y-96247836D01*
X141893848Y-96247837D01*
X141895250Y-96248000D01*
X144345496Y-96248000D01*
X144380144Y-96262352D01*
X144394496Y-96296960D01*
X144394960Y-96860960D01*
X144380637Y-96895620D01*
X144345960Y-96910000D01*
X143644000Y-96910000D01*
X143609352Y-96895648D01*
X143595000Y-96861000D01*
X143595000Y-96580000D01*
X141284000Y-96580000D01*
X141249352Y-96565648D01*
X141235000Y-96531000D01*
X141235000Y-92359000D01*
X141249352Y-92324352D01*
X141284000Y-92310000D01*
X144185000Y-92310000D01*
X144185000Y-92129000D01*
X144199352Y-92094352D01*
X144234000Y-92080000D01*
X144595000Y-92080000D01*
X144595000Y-91739000D01*
X144609352Y-91704352D01*
X144644000Y-91690000D01*
X145295500Y-91690000D01*
X145330148Y-91704352D01*
G37*
%TD.AperFunction*%
%TD*%
M02*
