M48
; DRILL file {KiCad (6.0.4)} date Wed Jul 20 20:12:40 2022
; FORMAT={-:-/ absolute / inch / decimal}
; #@! TF.CreationDate,2022-07-20T20:12:40-04:00
; #@! TF.GenerationSoftware,Kicad,Pcbnew,(6.0.4)
; #@! TF.FileFunction,Plated,1,2,PTH
FMAT,2
INCH
; #@! TA.AperFunction,Plated,PTH,ViaDrill
T1C0.0138
; #@! TA.AperFunction,Plated,PTH,ComponentDrill
T2C0.0138
; #@! TA.AperFunction,Plated,PTH,ComponentDrill
T3C0.0236
; #@! TA.AperFunction,Plated,PTH,ComponentDrill
T4C0.0315
%
G90
G05
T1
X5.1299Y-3.75
X5.1681Y-3.2988
X5.1681Y-3.3488
X5.1681Y-3.3988
X5.1858Y-3.75
X5.213Y-3.6996
X5.2156Y-3.3217
X5.2165Y-3.6134
X5.2388Y-3.3722
X5.2656Y-3.4217
X5.2888Y-3.3717
X5.3203Y-3.1807
X5.336Y-3.3488
X5.336Y-3.3986
X5.3677Y-3.7104
X5.3679Y-3.7949
X5.3781Y-3.5866
X5.3785Y-3.7594
X5.4671Y-3.439
X5.475Y-3.3445
X5.5132Y-3.9925
X5.5222Y-4.0732
X5.5226Y-4.1724
X5.5364Y-3.9209
X5.5719Y-4.0583
X5.5829Y-3.4185
X5.6207Y-3.4185
X5.6207Y-3.972
X5.6377Y-3.5344
X5.6411Y-4.1366
X5.6691Y-3.8031
X5.6774Y-3.8972
X5.6805Y-3.6378
X5.725Y-4.0012
X5.7337Y-4.0283
X5.7364Y-3.8114
X5.7612Y-4.0732
X5.7616Y-3.4416
X5.7616Y-4.1724
X5.7785Y-3.8531
X5.7927Y-3.8898
X5.7994Y-3.4428
X5.8167Y-3.3441
X5.8226Y-3.8051
X5.8344Y-3.2012
X5.8407Y-3.4031
X5.8907Y-3.3024
X5.9124Y-3.7595
X5.9396Y-3.5531
X5.9396Y-3.5909
X6.0951Y-3.5583
X6.1451Y-3.172
X6.1557Y-3.7502
X6.1569Y-3.8348
T2
X5.5953Y-3.6702
X5.5953Y-3.7204
X5.5953Y-3.7706
X5.6455Y-3.6702
X5.6455Y-3.7204
X5.6455Y-3.7706
X5.6957Y-3.6702
X5.6957Y-3.7204
X5.6957Y-3.7706
T4
X5.0557Y-3.5075
X5.0557Y-3.5941
X5.0557Y-3.6807
X5.0557Y-3.7673
X6.2368Y-3.122
X6.2368Y-3.2087
X6.2368Y-3.2953
X6.2368Y-3.3819
X6.2368Y-3.4685
X6.2368Y-3.5551
X6.2368Y-3.6417
T3
G00X5.4758Y-3.1208
M15
G01X5.4758Y-3.0971
M16
G05
G00X5.4758Y-3.2952
M15
G01X5.4758Y-3.2519
M16
G05
G00X5.8159Y-3.1208
M15
G01X5.8159Y-3.0971
M16
G05
G00X5.8159Y-3.2952
M15
G01X5.8159Y-3.2519
M16
G05
T0
M30
