%TF.GenerationSoftware,KiCad,Pcbnew,(6.0.4)*%
%TF.CreationDate,2022-07-20T20:12:39-04:00*%
%TF.ProjectId,Palette_Chip_KiCAD,50616c65-7474-4655-9f43-6869705f4b69,rev?*%
%TF.SameCoordinates,Original*%
%TF.FileFunction,Soldermask,Bot*%
%TF.FilePolarity,Negative*%
%FSLAX46Y46*%
G04 Gerber Fmt 4.6, Leading zero omitted, Abs format (unit mm)*
G04 Created by KiCad (PCBNEW (6.0.4)) date 2022-07-20 20:12:39*
%MOMM*%
%LPD*%
G01*
G04 APERTURE LIST*
G04 Aperture macros list*
%AMRoundRect*
0 Rectangle with rounded corners*
0 $1 Rounding radius*
0 $2 $3 $4 $5 $6 $7 $8 $9 X,Y pos of 4 corners*
0 Add a 4 corners polygon primitive as box body*
4,1,4,$2,$3,$4,$5,$6,$7,$8,$9,$2,$3,0*
0 Add four circle primitives for the rounded corners*
1,1,$1+$1,$2,$3*
1,1,$1+$1,$4,$5*
1,1,$1+$1,$6,$7*
1,1,$1+$1,$8,$9*
0 Add four rect primitives between the rounded corners*
20,1,$1+$1,$2,$3,$4,$5,0*
20,1,$1+$1,$4,$5,$6,$7,0*
20,1,$1+$1,$6,$7,$8,$9,0*
20,1,$1+$1,$8,$9,$2,$3,0*%
G04 Aperture macros list end*
%ADD10RoundRect,0.381000X-0.869000X-0.381000X0.869000X-0.381000X0.869000X0.381000X-0.869000X0.381000X0*%
%ADD11C,0.750000*%
%ADD12O,1.100000X2.200000*%
%ADD13O,1.100000X1.700000*%
%ADD14C,0.600000*%
G04 APERTURE END LIST*
D10*
%TO.C,2*%
X158415000Y-81500000D03*
%TD*%
D11*
%TO.C,USB1*%
X140515000Y-82617500D03*
X146295000Y-82617500D03*
D12*
X139085000Y-83147500D03*
D13*
X147725000Y-78967500D03*
X139085000Y-78967500D03*
D12*
X147725000Y-83147500D03*
%TD*%
D10*
%TO.C,7*%
X158415000Y-92500000D03*
%TD*%
%TO.C,Led2*%
X128415000Y-95690000D03*
%TD*%
%TO.C,5*%
X158415000Y-88100000D03*
%TD*%
%TO.C,6*%
X158415000Y-90300000D03*
%TD*%
%TO.C,4*%
X158415000Y-85900000D03*
%TD*%
%TO.C,1*%
X158415000Y-79300000D03*
%TD*%
%TO.C,Rot_A*%
X128415000Y-89090000D03*
%TD*%
%TO.C,3*%
X158415000Y-83700000D03*
%TD*%
%TO.C,Rot_B*%
X128415000Y-91290000D03*
%TD*%
%TO.C,Led1*%
X128415000Y-93490000D03*
%TD*%
D14*
X147745000Y-84940000D03*
X140265000Y-103460000D03*
X156355000Y-95255000D03*
X136345000Y-96390000D03*
X138865000Y-87350000D03*
X135135000Y-80790000D03*
X136340000Y-94245000D03*
X142765000Y-100890000D03*
X140275000Y-105980000D03*
X145635000Y-102320000D03*
X146345000Y-87417500D03*
X150865000Y-91210000D03*
X146345000Y-105980000D03*
X136615000Y-95490000D03*
X140625000Y-99590000D03*
X146335000Y-103460000D03*
X154815000Y-90380000D03*
X145415000Y-101630000D03*
X143285000Y-105070000D03*
X150175000Y-95492500D03*
X148355000Y-86440000D03*
X131270000Y-86330000D03*
X156085000Y-80570000D03*
X141805000Y-86830000D03*
X150865000Y-90250000D03*
X141525000Y-103080000D03*
X142765000Y-86830000D03*
X140035000Y-101410000D03*
X139065000Y-84950000D03*
X136605000Y-91100000D03*
X156385000Y-97405000D03*
X147305000Y-87447500D03*
X145705000Y-96810000D03*
X149625000Y-83880000D03*
X146775000Y-97870000D03*
X148195000Y-81310000D03*
X132410000Y-93970000D03*
X132500000Y-91780000D03*
X147895000Y-96650000D03*
X147135000Y-98800000D03*
X131270000Y-83790000D03*
X132475000Y-84370000D03*
X131270000Y-85060000D03*
X133065000Y-85655000D03*
X135535000Y-86325000D03*
X133745000Y-86910000D03*
X134335000Y-85640000D03*
X135535000Y-85060000D03*
X144285000Y-92400000D03*
X144205000Y-98990000D03*
X143995000Y-96600000D03*
X143197933Y-89774223D03*
X130300000Y-95250000D03*
X131720000Y-95250000D03*
M02*
