%TF.GenerationSoftware,KiCad,Pcbnew,(6.0.4)*%
%TF.CreationDate,2022-07-20T20:12:39-04:00*%
%TF.ProjectId,Palette_Chip_KiCAD,50616c65-7474-4655-9f43-6869705f4b69,rev?*%
%TF.SameCoordinates,Original*%
%TF.FileFunction,Legend,Top*%
%TF.FilePolarity,Positive*%
%FSLAX46Y46*%
G04 Gerber Fmt 4.6, Leading zero omitted, Abs format (unit mm)*
G04 Created by KiCad (PCBNEW (6.0.4)) date 2022-07-20 20:12:39*
%MOMM*%
%LPD*%
G01*
G04 APERTURE LIST*
%ADD10C,0.150000*%
%ADD11C,0.100000*%
%ADD12C,0.110000*%
%ADD13C,0.120000*%
%ADD14C,0.200000*%
%ADD15C,0.203200*%
%ADD16C,0.127000*%
G04 APERTURE END LIST*
D10*
%TO.C,D14*%
X154387380Y-80664285D02*
X153387380Y-80664285D01*
X153387380Y-80426190D01*
X153435000Y-80283333D01*
X153530238Y-80188095D01*
X153625476Y-80140476D01*
X153815952Y-80092857D01*
X153958809Y-80092857D01*
X154149285Y-80140476D01*
X154244523Y-80188095D01*
X154339761Y-80283333D01*
X154387380Y-80426190D01*
X154387380Y-80664285D01*
X154387380Y-79140476D02*
X154387380Y-79711904D01*
X154387380Y-79426190D02*
X153387380Y-79426190D01*
X153530238Y-79521428D01*
X153625476Y-79616666D01*
X153673095Y-79711904D01*
X153720714Y-78283333D02*
X154387380Y-78283333D01*
X153339761Y-78521428D02*
X154054047Y-78759523D01*
X154054047Y-78140476D01*
%TO.C,C15*%
X152782142Y-91837142D02*
X152734523Y-91884761D01*
X152591666Y-91932380D01*
X152496428Y-91932380D01*
X152353571Y-91884761D01*
X152258333Y-91789523D01*
X152210714Y-91694285D01*
X152163095Y-91503809D01*
X152163095Y-91360952D01*
X152210714Y-91170476D01*
X152258333Y-91075238D01*
X152353571Y-90980000D01*
X152496428Y-90932380D01*
X152591666Y-90932380D01*
X152734523Y-90980000D01*
X152782142Y-91027619D01*
X153734523Y-91932380D02*
X153163095Y-91932380D01*
X153448809Y-91932380D02*
X153448809Y-90932380D01*
X153353571Y-91075238D01*
X153258333Y-91170476D01*
X153163095Y-91218095D01*
X154639285Y-90932380D02*
X154163095Y-90932380D01*
X154115476Y-91408571D01*
X154163095Y-91360952D01*
X154258333Y-91313333D01*
X154496428Y-91313333D01*
X154591666Y-91360952D01*
X154639285Y-91408571D01*
X154686904Y-91503809D01*
X154686904Y-91741904D01*
X154639285Y-91837142D01*
X154591666Y-91884761D01*
X154496428Y-91932380D01*
X154258333Y-91932380D01*
X154163095Y-91884761D01*
X154115476Y-91837142D01*
D11*
%TO.C,2*%
X156680714Y-81319047D02*
X156699761Y-81300000D01*
X156737857Y-81280952D01*
X156833095Y-81280952D01*
X156871190Y-81300000D01*
X156890238Y-81319047D01*
X156909285Y-81357142D01*
X156909285Y-81395238D01*
X156890238Y-81452380D01*
X156661666Y-81680952D01*
X156909285Y-81680952D01*
%TO.C,R3*%
X133791428Y-89570000D02*
X133505714Y-89770000D01*
X133791428Y-89912857D02*
X133191428Y-89912857D01*
X133191428Y-89684285D01*
X133220000Y-89627142D01*
X133248571Y-89598571D01*
X133305714Y-89570000D01*
X133391428Y-89570000D01*
X133448571Y-89598571D01*
X133477142Y-89627142D01*
X133505714Y-89684285D01*
X133505714Y-89912857D01*
X133191428Y-89370000D02*
X133191428Y-88998571D01*
X133420000Y-89198571D01*
X133420000Y-89112857D01*
X133448571Y-89055714D01*
X133477142Y-89027142D01*
X133534285Y-88998571D01*
X133677142Y-88998571D01*
X133734285Y-89027142D01*
X133762857Y-89055714D01*
X133791428Y-89112857D01*
X133791428Y-89284285D01*
X133762857Y-89341428D01*
X133734285Y-89370000D01*
D10*
%TO.C,Y1*%
X142828809Y-104621290D02*
X142828809Y-105097480D01*
X142495476Y-104097480D02*
X142828809Y-104621290D01*
X143162142Y-104097480D01*
X144019285Y-105097480D02*
X143447857Y-105097480D01*
X143733571Y-105097480D02*
X143733571Y-104097480D01*
X143638333Y-104240338D01*
X143543095Y-104335576D01*
X143447857Y-104383195D01*
%TO.C,USB1*%
X142014523Y-85179404D02*
X142014523Y-85827023D01*
X142052619Y-85903214D01*
X142090714Y-85941309D01*
X142166904Y-85979404D01*
X142319285Y-85979404D01*
X142395476Y-85941309D01*
X142433571Y-85903214D01*
X142471666Y-85827023D01*
X142471666Y-85179404D01*
X142814523Y-85941309D02*
X142928809Y-85979404D01*
X143119285Y-85979404D01*
X143195476Y-85941309D01*
X143233571Y-85903214D01*
X143271666Y-85827023D01*
X143271666Y-85750833D01*
X143233571Y-85674642D01*
X143195476Y-85636547D01*
X143119285Y-85598452D01*
X142966904Y-85560357D01*
X142890714Y-85522261D01*
X142852619Y-85484166D01*
X142814523Y-85407976D01*
X142814523Y-85331785D01*
X142852619Y-85255595D01*
X142890714Y-85217500D01*
X142966904Y-85179404D01*
X143157380Y-85179404D01*
X143271666Y-85217500D01*
X143881190Y-85560357D02*
X143995476Y-85598452D01*
X144033571Y-85636547D01*
X144071666Y-85712738D01*
X144071666Y-85827023D01*
X144033571Y-85903214D01*
X143995476Y-85941309D01*
X143919285Y-85979404D01*
X143614523Y-85979404D01*
X143614523Y-85179404D01*
X143881190Y-85179404D01*
X143957380Y-85217500D01*
X143995476Y-85255595D01*
X144033571Y-85331785D01*
X144033571Y-85407976D01*
X143995476Y-85484166D01*
X143957380Y-85522261D01*
X143881190Y-85560357D01*
X143614523Y-85560357D01*
X144833571Y-85979404D02*
X144376428Y-85979404D01*
X144605000Y-85979404D02*
X144605000Y-85179404D01*
X144528809Y-85293690D01*
X144452619Y-85369880D01*
X144376428Y-85407976D01*
%TO.C,C12*%
X148832142Y-92677142D02*
X148784523Y-92724761D01*
X148641666Y-92772380D01*
X148546428Y-92772380D01*
X148403571Y-92724761D01*
X148308333Y-92629523D01*
X148260714Y-92534285D01*
X148213095Y-92343809D01*
X148213095Y-92200952D01*
X148260714Y-92010476D01*
X148308333Y-91915238D01*
X148403571Y-91820000D01*
X148546428Y-91772380D01*
X148641666Y-91772380D01*
X148784523Y-91820000D01*
X148832142Y-91867619D01*
X149784523Y-92772380D02*
X149213095Y-92772380D01*
X149498809Y-92772380D02*
X149498809Y-91772380D01*
X149403571Y-91915238D01*
X149308333Y-92010476D01*
X149213095Y-92058095D01*
X150165476Y-91867619D02*
X150213095Y-91820000D01*
X150308333Y-91772380D01*
X150546428Y-91772380D01*
X150641666Y-91820000D01*
X150689285Y-91867619D01*
X150736904Y-91962857D01*
X150736904Y-92058095D01*
X150689285Y-92200952D01*
X150117857Y-92772380D01*
X150736904Y-92772380D01*
D11*
%TO.C,7*%
X156631666Y-92280952D02*
X156898333Y-92280952D01*
X156726904Y-92680952D01*
D10*
%TO.C,C16*%
X135882142Y-80137142D02*
X135834523Y-80184761D01*
X135691666Y-80232380D01*
X135596428Y-80232380D01*
X135453571Y-80184761D01*
X135358333Y-80089523D01*
X135310714Y-79994285D01*
X135263095Y-79803809D01*
X135263095Y-79660952D01*
X135310714Y-79470476D01*
X135358333Y-79375238D01*
X135453571Y-79280000D01*
X135596428Y-79232380D01*
X135691666Y-79232380D01*
X135834523Y-79280000D01*
X135882142Y-79327619D01*
X136834523Y-80232380D02*
X136263095Y-80232380D01*
X136548809Y-80232380D02*
X136548809Y-79232380D01*
X136453571Y-79375238D01*
X136358333Y-79470476D01*
X136263095Y-79518095D01*
X137691666Y-79232380D02*
X137501190Y-79232380D01*
X137405952Y-79280000D01*
X137358333Y-79327619D01*
X137263095Y-79470476D01*
X137215476Y-79660952D01*
X137215476Y-80041904D01*
X137263095Y-80137142D01*
X137310714Y-80184761D01*
X137405952Y-80232380D01*
X137596428Y-80232380D01*
X137691666Y-80184761D01*
X137739285Y-80137142D01*
X137786904Y-80041904D01*
X137786904Y-79803809D01*
X137739285Y-79708571D01*
X137691666Y-79660952D01*
X137596428Y-79613333D01*
X137405952Y-79613333D01*
X137310714Y-79660952D01*
X137263095Y-79708571D01*
X137215476Y-79803809D01*
%TO.C,C10*%
X137362142Y-97014642D02*
X137314523Y-97062261D01*
X137171666Y-97109880D01*
X137076428Y-97109880D01*
X136933571Y-97062261D01*
X136838333Y-96967023D01*
X136790714Y-96871785D01*
X136743095Y-96681309D01*
X136743095Y-96538452D01*
X136790714Y-96347976D01*
X136838333Y-96252738D01*
X136933571Y-96157500D01*
X137076428Y-96109880D01*
X137171666Y-96109880D01*
X137314523Y-96157500D01*
X137362142Y-96205119D01*
X138314523Y-97109880D02*
X137743095Y-97109880D01*
X138028809Y-97109880D02*
X138028809Y-96109880D01*
X137933571Y-96252738D01*
X137838333Y-96347976D01*
X137743095Y-96395595D01*
X138933571Y-96109880D02*
X139028809Y-96109880D01*
X139124047Y-96157500D01*
X139171666Y-96205119D01*
X139219285Y-96300357D01*
X139266904Y-96490833D01*
X139266904Y-96728928D01*
X139219285Y-96919404D01*
X139171666Y-97014642D01*
X139124047Y-97062261D01*
X139028809Y-97109880D01*
X138933571Y-97109880D01*
X138838333Y-97062261D01*
X138790714Y-97014642D01*
X138743095Y-96919404D01*
X138695476Y-96728928D01*
X138695476Y-96490833D01*
X138743095Y-96300357D01*
X138790714Y-96205119D01*
X138838333Y-96157500D01*
X138933571Y-96109880D01*
D11*
%TO.C,Led2*%
X130120952Y-95870952D02*
X129930476Y-95870952D01*
X129930476Y-95470952D01*
X130406666Y-95851904D02*
X130368571Y-95870952D01*
X130292380Y-95870952D01*
X130254285Y-95851904D01*
X130235238Y-95813809D01*
X130235238Y-95661428D01*
X130254285Y-95623333D01*
X130292380Y-95604285D01*
X130368571Y-95604285D01*
X130406666Y-95623333D01*
X130425714Y-95661428D01*
X130425714Y-95699523D01*
X130235238Y-95737619D01*
X130768571Y-95870952D02*
X130768571Y-95470952D01*
X130768571Y-95851904D02*
X130730476Y-95870952D01*
X130654285Y-95870952D01*
X130616190Y-95851904D01*
X130597142Y-95832857D01*
X130578095Y-95794761D01*
X130578095Y-95680476D01*
X130597142Y-95642380D01*
X130616190Y-95623333D01*
X130654285Y-95604285D01*
X130730476Y-95604285D01*
X130768571Y-95623333D01*
X130940000Y-95509047D02*
X130959047Y-95490000D01*
X130997142Y-95470952D01*
X131092380Y-95470952D01*
X131130476Y-95490000D01*
X131149523Y-95509047D01*
X131168571Y-95547142D01*
X131168571Y-95585238D01*
X131149523Y-95642380D01*
X130920952Y-95870952D01*
X131168571Y-95870952D01*
%TO.C,R1*%
X142236428Y-99510000D02*
X141950714Y-99710000D01*
X142236428Y-99852857D02*
X141636428Y-99852857D01*
X141636428Y-99624285D01*
X141665000Y-99567142D01*
X141693571Y-99538571D01*
X141750714Y-99510000D01*
X141836428Y-99510000D01*
X141893571Y-99538571D01*
X141922142Y-99567142D01*
X141950714Y-99624285D01*
X141950714Y-99852857D01*
X142236428Y-98938571D02*
X142236428Y-99281428D01*
X142236428Y-99110000D02*
X141636428Y-99110000D01*
X141722142Y-99167142D01*
X141779285Y-99224285D01*
X141807857Y-99281428D01*
%TO.C,5*%
X156890238Y-87880952D02*
X156699761Y-87880952D01*
X156680714Y-88071428D01*
X156699761Y-88052380D01*
X156737857Y-88033333D01*
X156833095Y-88033333D01*
X156871190Y-88052380D01*
X156890238Y-88071428D01*
X156909285Y-88109523D01*
X156909285Y-88204761D01*
X156890238Y-88242857D01*
X156871190Y-88261904D01*
X156833095Y-88280952D01*
X156737857Y-88280952D01*
X156699761Y-88261904D01*
X156680714Y-88242857D01*
D10*
%TO.C,C9*%
X148618333Y-94697142D02*
X148570714Y-94744761D01*
X148427857Y-94792380D01*
X148332619Y-94792380D01*
X148189761Y-94744761D01*
X148094523Y-94649523D01*
X148046904Y-94554285D01*
X147999285Y-94363809D01*
X147999285Y-94220952D01*
X148046904Y-94030476D01*
X148094523Y-93935238D01*
X148189761Y-93840000D01*
X148332619Y-93792380D01*
X148427857Y-93792380D01*
X148570714Y-93840000D01*
X148618333Y-93887619D01*
X149094523Y-94792380D02*
X149285000Y-94792380D01*
X149380238Y-94744761D01*
X149427857Y-94697142D01*
X149523095Y-94554285D01*
X149570714Y-94363809D01*
X149570714Y-93982857D01*
X149523095Y-93887619D01*
X149475476Y-93840000D01*
X149380238Y-93792380D01*
X149189761Y-93792380D01*
X149094523Y-93840000D01*
X149046904Y-93887619D01*
X148999285Y-93982857D01*
X148999285Y-94220952D01*
X149046904Y-94316190D01*
X149094523Y-94363809D01*
X149189761Y-94411428D01*
X149380238Y-94411428D01*
X149475476Y-94363809D01*
X149523095Y-94316190D01*
X149570714Y-94220952D01*
D11*
%TO.C,6*%
X156871190Y-90080952D02*
X156795000Y-90080952D01*
X156756904Y-90100000D01*
X156737857Y-90119047D01*
X156699761Y-90176190D01*
X156680714Y-90252380D01*
X156680714Y-90404761D01*
X156699761Y-90442857D01*
X156718809Y-90461904D01*
X156756904Y-90480952D01*
X156833095Y-90480952D01*
X156871190Y-90461904D01*
X156890238Y-90442857D01*
X156909285Y-90404761D01*
X156909285Y-90309523D01*
X156890238Y-90271428D01*
X156871190Y-90252380D01*
X156833095Y-90233333D01*
X156756904Y-90233333D01*
X156718809Y-90252380D01*
X156699761Y-90271428D01*
X156680714Y-90309523D01*
D10*
%TO.C,S2*%
X153308095Y-95704761D02*
X153450952Y-95752380D01*
X153689047Y-95752380D01*
X153784285Y-95704761D01*
X153831904Y-95657142D01*
X153879523Y-95561904D01*
X153879523Y-95466666D01*
X153831904Y-95371428D01*
X153784285Y-95323809D01*
X153689047Y-95276190D01*
X153498571Y-95228571D01*
X153403333Y-95180952D01*
X153355714Y-95133333D01*
X153308095Y-95038095D01*
X153308095Y-94942857D01*
X153355714Y-94847619D01*
X153403333Y-94800000D01*
X153498571Y-94752380D01*
X153736666Y-94752380D01*
X153879523Y-94800000D01*
X154260476Y-94847619D02*
X154308095Y-94800000D01*
X154403333Y-94752380D01*
X154641428Y-94752380D01*
X154736666Y-94800000D01*
X154784285Y-94847619D01*
X154831904Y-94942857D01*
X154831904Y-95038095D01*
X154784285Y-95180952D01*
X154212857Y-95752380D01*
X154831904Y-95752380D01*
D11*
%TO.C,4*%
X156841190Y-85814285D02*
X156841190Y-86080952D01*
X156745952Y-85661904D02*
X156650714Y-85947619D01*
X156898333Y-85947619D01*
%TO.C,1*%
X156899285Y-79480952D02*
X156670714Y-79480952D01*
X156785000Y-79480952D02*
X156785000Y-79080952D01*
X156746904Y-79138095D01*
X156708809Y-79176190D01*
X156670714Y-79195238D01*
%TO.C,R4*%
X134791428Y-89570000D02*
X134505714Y-89770000D01*
X134791428Y-89912857D02*
X134191428Y-89912857D01*
X134191428Y-89684285D01*
X134220000Y-89627142D01*
X134248571Y-89598571D01*
X134305714Y-89570000D01*
X134391428Y-89570000D01*
X134448571Y-89598571D01*
X134477142Y-89627142D01*
X134505714Y-89684285D01*
X134505714Y-89912857D01*
X134391428Y-89055714D02*
X134791428Y-89055714D01*
X134162857Y-89198571D02*
X134591428Y-89341428D01*
X134591428Y-88970000D01*
%TO.C,Rot_A*%
X130154761Y-89270952D02*
X130021428Y-89080476D01*
X129926190Y-89270952D02*
X129926190Y-88870952D01*
X130078571Y-88870952D01*
X130116666Y-88890000D01*
X130135714Y-88909047D01*
X130154761Y-88947142D01*
X130154761Y-89004285D01*
X130135714Y-89042380D01*
X130116666Y-89061428D01*
X130078571Y-89080476D01*
X129926190Y-89080476D01*
X130383333Y-89270952D02*
X130345238Y-89251904D01*
X130326190Y-89232857D01*
X130307142Y-89194761D01*
X130307142Y-89080476D01*
X130326190Y-89042380D01*
X130345238Y-89023333D01*
X130383333Y-89004285D01*
X130440476Y-89004285D01*
X130478571Y-89023333D01*
X130497619Y-89042380D01*
X130516666Y-89080476D01*
X130516666Y-89194761D01*
X130497619Y-89232857D01*
X130478571Y-89251904D01*
X130440476Y-89270952D01*
X130383333Y-89270952D01*
X130630952Y-89004285D02*
X130783333Y-89004285D01*
X130688095Y-88870952D02*
X130688095Y-89213809D01*
X130707142Y-89251904D01*
X130745238Y-89270952D01*
X130783333Y-89270952D01*
X130821428Y-89309047D02*
X131126190Y-89309047D01*
X131202380Y-89156666D02*
X131392857Y-89156666D01*
X131164285Y-89270952D02*
X131297619Y-88870952D01*
X131430952Y-89270952D01*
D10*
%TO.C,U2*%
X132643095Y-80322380D02*
X132643095Y-81131904D01*
X132690714Y-81227142D01*
X132738333Y-81274761D01*
X132833571Y-81322380D01*
X133024047Y-81322380D01*
X133119285Y-81274761D01*
X133166904Y-81227142D01*
X133214523Y-81131904D01*
X133214523Y-80322380D01*
X133643095Y-80417619D02*
X133690714Y-80370000D01*
X133785952Y-80322380D01*
X134024047Y-80322380D01*
X134119285Y-80370000D01*
X134166904Y-80417619D01*
X134214523Y-80512857D01*
X134214523Y-80608095D01*
X134166904Y-80750952D01*
X133595476Y-81322380D01*
X134214523Y-81322380D01*
D11*
%TO.C,C11*%
X143039285Y-100075714D02*
X143067857Y-100104285D01*
X143096428Y-100190000D01*
X143096428Y-100247142D01*
X143067857Y-100332857D01*
X143010714Y-100390000D01*
X142953571Y-100418571D01*
X142839285Y-100447142D01*
X142753571Y-100447142D01*
X142639285Y-100418571D01*
X142582142Y-100390000D01*
X142525000Y-100332857D01*
X142496428Y-100247142D01*
X142496428Y-100190000D01*
X142525000Y-100104285D01*
X142553571Y-100075714D01*
X143096428Y-99504285D02*
X143096428Y-99847142D01*
X143096428Y-99675714D02*
X142496428Y-99675714D01*
X142582142Y-99732857D01*
X142639285Y-99790000D01*
X142667857Y-99847142D01*
X143096428Y-98932857D02*
X143096428Y-99275714D01*
X143096428Y-99104285D02*
X142496428Y-99104285D01*
X142582142Y-99161428D01*
X142639285Y-99218571D01*
X142667857Y-99275714D01*
%TO.C,R7*%
X145646428Y-87190000D02*
X145360714Y-87390000D01*
X145646428Y-87532857D02*
X145046428Y-87532857D01*
X145046428Y-87304285D01*
X145075000Y-87247142D01*
X145103571Y-87218571D01*
X145160714Y-87190000D01*
X145246428Y-87190000D01*
X145303571Y-87218571D01*
X145332142Y-87247142D01*
X145360714Y-87304285D01*
X145360714Y-87532857D01*
X145046428Y-86990000D02*
X145046428Y-86590000D01*
X145646428Y-86847142D01*
%TO.C,3*%
X156661666Y-83480952D02*
X156909285Y-83480952D01*
X156775952Y-83633333D01*
X156833095Y-83633333D01*
X156871190Y-83652380D01*
X156890238Y-83671428D01*
X156909285Y-83709523D01*
X156909285Y-83804761D01*
X156890238Y-83842857D01*
X156871190Y-83861904D01*
X156833095Y-83880952D01*
X156718809Y-83880952D01*
X156680714Y-83861904D01*
X156661666Y-83842857D01*
D10*
%TO.C,R2*%
X149722380Y-97056666D02*
X149246190Y-97390000D01*
X149722380Y-97628095D02*
X148722380Y-97628095D01*
X148722380Y-97247142D01*
X148770000Y-97151904D01*
X148817619Y-97104285D01*
X148912857Y-97056666D01*
X149055714Y-97056666D01*
X149150952Y-97104285D01*
X149198571Y-97151904D01*
X149246190Y-97247142D01*
X149246190Y-97628095D01*
X148817619Y-96675714D02*
X148770000Y-96628095D01*
X148722380Y-96532857D01*
X148722380Y-96294761D01*
X148770000Y-96199523D01*
X148817619Y-96151904D01*
X148912857Y-96104285D01*
X149008095Y-96104285D01*
X149150952Y-96151904D01*
X149722380Y-96723333D01*
X149722380Y-96104285D01*
D11*
%TO.C,C3*%
X142655000Y-102534285D02*
X142626428Y-102562857D01*
X142540714Y-102591428D01*
X142483571Y-102591428D01*
X142397857Y-102562857D01*
X142340714Y-102505714D01*
X142312142Y-102448571D01*
X142283571Y-102334285D01*
X142283571Y-102248571D01*
X142312142Y-102134285D01*
X142340714Y-102077142D01*
X142397857Y-102020000D01*
X142483571Y-101991428D01*
X142540714Y-101991428D01*
X142626428Y-102020000D01*
X142655000Y-102048571D01*
X142855000Y-101991428D02*
X143226428Y-101991428D01*
X143026428Y-102220000D01*
X143112142Y-102220000D01*
X143169285Y-102248571D01*
X143197857Y-102277142D01*
X143226428Y-102334285D01*
X143226428Y-102477142D01*
X143197857Y-102534285D01*
X143169285Y-102562857D01*
X143112142Y-102591428D01*
X142940714Y-102591428D01*
X142883571Y-102562857D01*
X142855000Y-102534285D01*
%TO.C,C14*%
X155219285Y-78854285D02*
X155190714Y-78882857D01*
X155105000Y-78911428D01*
X155047857Y-78911428D01*
X154962142Y-78882857D01*
X154905000Y-78825714D01*
X154876428Y-78768571D01*
X154847857Y-78654285D01*
X154847857Y-78568571D01*
X154876428Y-78454285D01*
X154905000Y-78397142D01*
X154962142Y-78340000D01*
X155047857Y-78311428D01*
X155105000Y-78311428D01*
X155190714Y-78340000D01*
X155219285Y-78368571D01*
X155790714Y-78911428D02*
X155447857Y-78911428D01*
X155619285Y-78911428D02*
X155619285Y-78311428D01*
X155562142Y-78397142D01*
X155505000Y-78454285D01*
X155447857Y-78482857D01*
X156305000Y-78511428D02*
X156305000Y-78911428D01*
X156162142Y-78282857D02*
X156019285Y-78711428D01*
X156390714Y-78711428D01*
D10*
%TO.C,R5*%
X139208333Y-88062380D02*
X138875000Y-87586190D01*
X138636904Y-88062380D02*
X138636904Y-87062380D01*
X139017857Y-87062380D01*
X139113095Y-87110000D01*
X139160714Y-87157619D01*
X139208333Y-87252857D01*
X139208333Y-87395714D01*
X139160714Y-87490952D01*
X139113095Y-87538571D01*
X139017857Y-87586190D01*
X138636904Y-87586190D01*
X140113095Y-87062380D02*
X139636904Y-87062380D01*
X139589285Y-87538571D01*
X139636904Y-87490952D01*
X139732142Y-87443333D01*
X139970238Y-87443333D01*
X140065476Y-87490952D01*
X140113095Y-87538571D01*
X140160714Y-87633809D01*
X140160714Y-87871904D01*
X140113095Y-87967142D01*
X140065476Y-88014761D01*
X139970238Y-88062380D01*
X139732142Y-88062380D01*
X139636904Y-88014761D01*
X139589285Y-87967142D01*
D11*
%TO.C,R8*%
X144666428Y-87190000D02*
X144380714Y-87390000D01*
X144666428Y-87532857D02*
X144066428Y-87532857D01*
X144066428Y-87304285D01*
X144095000Y-87247142D01*
X144123571Y-87218571D01*
X144180714Y-87190000D01*
X144266428Y-87190000D01*
X144323571Y-87218571D01*
X144352142Y-87247142D01*
X144380714Y-87304285D01*
X144380714Y-87532857D01*
X144323571Y-86847142D02*
X144295000Y-86904285D01*
X144266428Y-86932857D01*
X144209285Y-86961428D01*
X144180714Y-86961428D01*
X144123571Y-86932857D01*
X144095000Y-86904285D01*
X144066428Y-86847142D01*
X144066428Y-86732857D01*
X144095000Y-86675714D01*
X144123571Y-86647142D01*
X144180714Y-86618571D01*
X144209285Y-86618571D01*
X144266428Y-86647142D01*
X144295000Y-86675714D01*
X144323571Y-86732857D01*
X144323571Y-86847142D01*
X144352142Y-86904285D01*
X144380714Y-86932857D01*
X144437857Y-86961428D01*
X144552142Y-86961428D01*
X144609285Y-86932857D01*
X144637857Y-86904285D01*
X144666428Y-86847142D01*
X144666428Y-86732857D01*
X144637857Y-86675714D01*
X144609285Y-86647142D01*
X144552142Y-86618571D01*
X144437857Y-86618571D01*
X144380714Y-86647142D01*
X144352142Y-86675714D01*
X144323571Y-86732857D01*
D10*
%TO.C,U1*%
X142785476Y-89239404D02*
X142785476Y-89887023D01*
X142823571Y-89963214D01*
X142861666Y-90001309D01*
X142937857Y-90039404D01*
X143090238Y-90039404D01*
X143166428Y-90001309D01*
X143204523Y-89963214D01*
X143242619Y-89887023D01*
X143242619Y-89239404D01*
X144042619Y-90039404D02*
X143585476Y-90039404D01*
X143814047Y-90039404D02*
X143814047Y-89239404D01*
X143737857Y-89353690D01*
X143661666Y-89429880D01*
X143585476Y-89467976D01*
%TO.C,C2*%
X140348333Y-101517142D02*
X140300714Y-101564761D01*
X140157857Y-101612380D01*
X140062619Y-101612380D01*
X139919761Y-101564761D01*
X139824523Y-101469523D01*
X139776904Y-101374285D01*
X139729285Y-101183809D01*
X139729285Y-101040952D01*
X139776904Y-100850476D01*
X139824523Y-100755238D01*
X139919761Y-100660000D01*
X140062619Y-100612380D01*
X140157857Y-100612380D01*
X140300714Y-100660000D01*
X140348333Y-100707619D01*
X140729285Y-100707619D02*
X140776904Y-100660000D01*
X140872142Y-100612380D01*
X141110238Y-100612380D01*
X141205476Y-100660000D01*
X141253095Y-100707619D01*
X141300714Y-100802857D01*
X141300714Y-100898095D01*
X141253095Y-101040952D01*
X140681666Y-101612380D01*
X141300714Y-101612380D01*
%TO.C,C8*%
X137838333Y-92614642D02*
X137790714Y-92662261D01*
X137647857Y-92709880D01*
X137552619Y-92709880D01*
X137409761Y-92662261D01*
X137314523Y-92567023D01*
X137266904Y-92471785D01*
X137219285Y-92281309D01*
X137219285Y-92138452D01*
X137266904Y-91947976D01*
X137314523Y-91852738D01*
X137409761Y-91757500D01*
X137552619Y-91709880D01*
X137647857Y-91709880D01*
X137790714Y-91757500D01*
X137838333Y-91805119D01*
X138409761Y-92138452D02*
X138314523Y-92090833D01*
X138266904Y-92043214D01*
X138219285Y-91947976D01*
X138219285Y-91900357D01*
X138266904Y-91805119D01*
X138314523Y-91757500D01*
X138409761Y-91709880D01*
X138600238Y-91709880D01*
X138695476Y-91757500D01*
X138743095Y-91805119D01*
X138790714Y-91900357D01*
X138790714Y-91947976D01*
X138743095Y-92043214D01*
X138695476Y-92090833D01*
X138600238Y-92138452D01*
X138409761Y-92138452D01*
X138314523Y-92186071D01*
X138266904Y-92233690D01*
X138219285Y-92328928D01*
X138219285Y-92519404D01*
X138266904Y-92614642D01*
X138314523Y-92662261D01*
X138409761Y-92709880D01*
X138600238Y-92709880D01*
X138695476Y-92662261D01*
X138743095Y-92614642D01*
X138790714Y-92519404D01*
X138790714Y-92328928D01*
X138743095Y-92233690D01*
X138695476Y-92186071D01*
X138600238Y-92138452D01*
D11*
%TO.C,C6*%
X143639285Y-86880000D02*
X143667857Y-86908571D01*
X143696428Y-86994285D01*
X143696428Y-87051428D01*
X143667857Y-87137142D01*
X143610714Y-87194285D01*
X143553571Y-87222857D01*
X143439285Y-87251428D01*
X143353571Y-87251428D01*
X143239285Y-87222857D01*
X143182142Y-87194285D01*
X143125000Y-87137142D01*
X143096428Y-87051428D01*
X143096428Y-86994285D01*
X143125000Y-86908571D01*
X143153571Y-86880000D01*
X143096428Y-86365714D02*
X143096428Y-86480000D01*
X143125000Y-86537142D01*
X143153571Y-86565714D01*
X143239285Y-86622857D01*
X143353571Y-86651428D01*
X143582142Y-86651428D01*
X143639285Y-86622857D01*
X143667857Y-86594285D01*
X143696428Y-86537142D01*
X143696428Y-86422857D01*
X143667857Y-86365714D01*
X143639285Y-86337142D01*
X143582142Y-86308571D01*
X143439285Y-86308571D01*
X143382142Y-86337142D01*
X143353571Y-86365714D01*
X143325000Y-86422857D01*
X143325000Y-86537142D01*
X143353571Y-86594285D01*
X143382142Y-86622857D01*
X143439285Y-86651428D01*
%TO.C,C7*%
X147509285Y-87540000D02*
X147537857Y-87568571D01*
X147566428Y-87654285D01*
X147566428Y-87711428D01*
X147537857Y-87797142D01*
X147480714Y-87854285D01*
X147423571Y-87882857D01*
X147309285Y-87911428D01*
X147223571Y-87911428D01*
X147109285Y-87882857D01*
X147052142Y-87854285D01*
X146995000Y-87797142D01*
X146966428Y-87711428D01*
X146966428Y-87654285D01*
X146995000Y-87568571D01*
X147023571Y-87540000D01*
X146966428Y-87340000D02*
X146966428Y-86940000D01*
X147566428Y-87197142D01*
D10*
%TO.C,S1*%
X131998095Y-95719761D02*
X132140952Y-95767380D01*
X132379047Y-95767380D01*
X132474285Y-95719761D01*
X132521904Y-95672142D01*
X132569523Y-95576904D01*
X132569523Y-95481666D01*
X132521904Y-95386428D01*
X132474285Y-95338809D01*
X132379047Y-95291190D01*
X132188571Y-95243571D01*
X132093333Y-95195952D01*
X132045714Y-95148333D01*
X131998095Y-95053095D01*
X131998095Y-94957857D01*
X132045714Y-94862619D01*
X132093333Y-94815000D01*
X132188571Y-94767380D01*
X132426666Y-94767380D01*
X132569523Y-94815000D01*
X133521904Y-95767380D02*
X132950476Y-95767380D01*
X133236190Y-95767380D02*
X133236190Y-94767380D01*
X133140952Y-94910238D01*
X133045714Y-95005476D01*
X132950476Y-95053095D01*
D11*
%TO.C,C1*%
X142679285Y-86880000D02*
X142707857Y-86908571D01*
X142736428Y-86994285D01*
X142736428Y-87051428D01*
X142707857Y-87137142D01*
X142650714Y-87194285D01*
X142593571Y-87222857D01*
X142479285Y-87251428D01*
X142393571Y-87251428D01*
X142279285Y-87222857D01*
X142222142Y-87194285D01*
X142165000Y-87137142D01*
X142136428Y-87051428D01*
X142136428Y-86994285D01*
X142165000Y-86908571D01*
X142193571Y-86880000D01*
X142736428Y-86308571D02*
X142736428Y-86651428D01*
X142736428Y-86480000D02*
X142136428Y-86480000D01*
X142222142Y-86537142D01*
X142279285Y-86594285D01*
X142307857Y-86651428D01*
D10*
%TO.C,C13*%
X148832142Y-89607142D02*
X148784523Y-89654761D01*
X148641666Y-89702380D01*
X148546428Y-89702380D01*
X148403571Y-89654761D01*
X148308333Y-89559523D01*
X148260714Y-89464285D01*
X148213095Y-89273809D01*
X148213095Y-89130952D01*
X148260714Y-88940476D01*
X148308333Y-88845238D01*
X148403571Y-88750000D01*
X148546428Y-88702380D01*
X148641666Y-88702380D01*
X148784523Y-88750000D01*
X148832142Y-88797619D01*
X149784523Y-89702380D02*
X149213095Y-89702380D01*
X149498809Y-89702380D02*
X149498809Y-88702380D01*
X149403571Y-88845238D01*
X149308333Y-88940476D01*
X149213095Y-88988095D01*
X150117857Y-88702380D02*
X150736904Y-88702380D01*
X150403571Y-89083333D01*
X150546428Y-89083333D01*
X150641666Y-89130952D01*
X150689285Y-89178571D01*
X150736904Y-89273809D01*
X150736904Y-89511904D01*
X150689285Y-89607142D01*
X150641666Y-89654761D01*
X150546428Y-89702380D01*
X150260714Y-89702380D01*
X150165476Y-89654761D01*
X150117857Y-89607142D01*
%TO.C,IC1*%
X153387594Y-86296651D02*
X152387122Y-86296651D01*
X153292311Y-85248537D02*
X153339952Y-85296179D01*
X153387594Y-85439103D01*
X153387594Y-85534386D01*
X153339952Y-85677311D01*
X153244669Y-85772594D01*
X153149386Y-85820236D01*
X152958820Y-85867877D01*
X152815896Y-85867877D01*
X152625330Y-85820236D01*
X152530047Y-85772594D01*
X152434764Y-85677311D01*
X152387122Y-85534386D01*
X152387122Y-85439103D01*
X152434764Y-85296179D01*
X152482405Y-85248537D01*
X153387594Y-84295707D02*
X153387594Y-84867405D01*
X153387594Y-84581556D02*
X152387122Y-84581556D01*
X152530047Y-84676839D01*
X152625330Y-84772122D01*
X152672971Y-84867405D01*
D11*
%TO.C,Rot_B*%
X130156190Y-91470952D02*
X130022857Y-91280476D01*
X129927619Y-91470952D02*
X129927619Y-91070952D01*
X130080000Y-91070952D01*
X130118095Y-91090000D01*
X130137142Y-91109047D01*
X130156190Y-91147142D01*
X130156190Y-91204285D01*
X130137142Y-91242380D01*
X130118095Y-91261428D01*
X130080000Y-91280476D01*
X129927619Y-91280476D01*
X130384761Y-91470952D02*
X130346666Y-91451904D01*
X130327619Y-91432857D01*
X130308571Y-91394761D01*
X130308571Y-91280476D01*
X130327619Y-91242380D01*
X130346666Y-91223333D01*
X130384761Y-91204285D01*
X130441904Y-91204285D01*
X130480000Y-91223333D01*
X130499047Y-91242380D01*
X130518095Y-91280476D01*
X130518095Y-91394761D01*
X130499047Y-91432857D01*
X130480000Y-91451904D01*
X130441904Y-91470952D01*
X130384761Y-91470952D01*
X130632380Y-91204285D02*
X130784761Y-91204285D01*
X130689523Y-91070952D02*
X130689523Y-91413809D01*
X130708571Y-91451904D01*
X130746666Y-91470952D01*
X130784761Y-91470952D01*
X130822857Y-91509047D02*
X131127619Y-91509047D01*
X131356190Y-91261428D02*
X131413333Y-91280476D01*
X131432380Y-91299523D01*
X131451428Y-91337619D01*
X131451428Y-91394761D01*
X131432380Y-91432857D01*
X131413333Y-91451904D01*
X131375238Y-91470952D01*
X131222857Y-91470952D01*
X131222857Y-91070952D01*
X131356190Y-91070952D01*
X131394285Y-91090000D01*
X131413333Y-91109047D01*
X131432380Y-91147142D01*
X131432380Y-91185238D01*
X131413333Y-91223333D01*
X131394285Y-91242380D01*
X131356190Y-91261428D01*
X131222857Y-91261428D01*
%TO.C,Led1*%
X130110952Y-93670952D02*
X129920476Y-93670952D01*
X129920476Y-93270952D01*
X130396666Y-93651904D02*
X130358571Y-93670952D01*
X130282380Y-93670952D01*
X130244285Y-93651904D01*
X130225238Y-93613809D01*
X130225238Y-93461428D01*
X130244285Y-93423333D01*
X130282380Y-93404285D01*
X130358571Y-93404285D01*
X130396666Y-93423333D01*
X130415714Y-93461428D01*
X130415714Y-93499523D01*
X130225238Y-93537619D01*
X130758571Y-93670952D02*
X130758571Y-93270952D01*
X130758571Y-93651904D02*
X130720476Y-93670952D01*
X130644285Y-93670952D01*
X130606190Y-93651904D01*
X130587142Y-93632857D01*
X130568095Y-93594761D01*
X130568095Y-93480476D01*
X130587142Y-93442380D01*
X130606190Y-93423333D01*
X130644285Y-93404285D01*
X130720476Y-93404285D01*
X130758571Y-93423333D01*
X131158571Y-93670952D02*
X130930000Y-93670952D01*
X131044285Y-93670952D02*
X131044285Y-93270952D01*
X131006190Y-93328095D01*
X130968095Y-93366190D01*
X130930000Y-93385238D01*
D12*
%TO.C,C5*%
X146559285Y-87530000D02*
X146587857Y-87558571D01*
X146616428Y-87644285D01*
X146616428Y-87701428D01*
X146587857Y-87787142D01*
X146530714Y-87844285D01*
X146473571Y-87872857D01*
X146359285Y-87901428D01*
X146273571Y-87901428D01*
X146159285Y-87872857D01*
X146102142Y-87844285D01*
X146045000Y-87787142D01*
X146016428Y-87701428D01*
X146016428Y-87644285D01*
X146045000Y-87558571D01*
X146073571Y-87530000D01*
X146016428Y-86987142D02*
X146016428Y-87272857D01*
X146302142Y-87301428D01*
X146273571Y-87272857D01*
X146245000Y-87215714D01*
X146245000Y-87072857D01*
X146273571Y-87015714D01*
X146302142Y-86987142D01*
X146359285Y-86958571D01*
X146502142Y-86958571D01*
X146559285Y-86987142D01*
X146587857Y-87015714D01*
X146616428Y-87072857D01*
X146616428Y-87215714D01*
X146587857Y-87272857D01*
X146559285Y-87301428D01*
D11*
%TO.C,R6*%
X146825000Y-85791428D02*
X146625000Y-85505714D01*
X146482142Y-85791428D02*
X146482142Y-85191428D01*
X146710714Y-85191428D01*
X146767857Y-85220000D01*
X146796428Y-85248571D01*
X146825000Y-85305714D01*
X146825000Y-85391428D01*
X146796428Y-85448571D01*
X146767857Y-85477142D01*
X146710714Y-85505714D01*
X146482142Y-85505714D01*
X147339285Y-85191428D02*
X147225000Y-85191428D01*
X147167857Y-85220000D01*
X147139285Y-85248571D01*
X147082142Y-85334285D01*
X147053571Y-85448571D01*
X147053571Y-85677142D01*
X147082142Y-85734285D01*
X147110714Y-85762857D01*
X147167857Y-85791428D01*
X147282142Y-85791428D01*
X147339285Y-85762857D01*
X147367857Y-85734285D01*
X147396428Y-85677142D01*
X147396428Y-85534285D01*
X147367857Y-85477142D01*
X147339285Y-85448571D01*
X147282142Y-85420000D01*
X147167857Y-85420000D01*
X147110714Y-85448571D01*
X147082142Y-85477142D01*
X147053571Y-85534285D01*
D10*
%TO.C,C4*%
X146192142Y-100576666D02*
X146239761Y-100624285D01*
X146287380Y-100767142D01*
X146287380Y-100862380D01*
X146239761Y-101005238D01*
X146144523Y-101100476D01*
X146049285Y-101148095D01*
X145858809Y-101195714D01*
X145715952Y-101195714D01*
X145525476Y-101148095D01*
X145430238Y-101100476D01*
X145335000Y-101005238D01*
X145287380Y-100862380D01*
X145287380Y-100767142D01*
X145335000Y-100624285D01*
X145382619Y-100576666D01*
X145620714Y-99719523D02*
X146287380Y-99719523D01*
X145239761Y-99957619D02*
X145954047Y-100195714D01*
X145954047Y-99576666D01*
D13*
%TO.C,D14*%
X153075000Y-80450000D02*
X153075000Y-78450000D01*
X153075000Y-78450000D02*
X149225000Y-78450000D01*
X153075000Y-80450000D02*
X149225000Y-80450000D01*
%TO.C,C15*%
X153317164Y-90020000D02*
X153532836Y-90020000D01*
X153317164Y-90740000D02*
X153532836Y-90740000D01*
%TO.C,R3*%
X133900000Y-91423641D02*
X133900000Y-91116359D01*
X133140000Y-91423641D02*
X133140000Y-91116359D01*
%TO.C,Y1*%
X140676100Y-106372300D02*
X145933900Y-106372300D01*
X145933900Y-102917900D02*
X140676100Y-102917900D01*
X140676100Y-105955158D02*
X140676100Y-106372300D01*
X145933900Y-106372300D02*
X145933900Y-105955158D01*
X140676100Y-102917900D02*
X140676100Y-103335042D01*
X145933900Y-103335042D02*
X145933900Y-102917900D01*
X146607386Y-104645100D02*
G75*
G03*
X146607386Y-104645100I-101600J0D01*
G01*
%TO.C,C12*%
X149367164Y-90857500D02*
X149582836Y-90857500D01*
X149367164Y-91577500D02*
X149582836Y-91577500D01*
%TO.C,C16*%
X136632836Y-81150000D02*
X136417164Y-81150000D01*
X136632836Y-80430000D02*
X136417164Y-80430000D01*
%TO.C,C10*%
X138112836Y-95857500D02*
X137897164Y-95857500D01*
X138112836Y-95137500D02*
X137897164Y-95137500D01*
%TO.C,R1*%
X141585000Y-100726359D02*
X141585000Y-101033641D01*
X142345000Y-100726359D02*
X142345000Y-101033641D01*
%TO.C,C9*%
X148677164Y-95860000D02*
X148892836Y-95860000D01*
X148677164Y-95140000D02*
X148892836Y-95140000D01*
D11*
%TO.C,S2*%
X152220000Y-96900000D02*
X156395000Y-96900000D01*
X152220000Y-93700000D02*
X156395000Y-93700000D01*
D14*
X151320000Y-94300000D02*
G75*
G03*
X151320000Y-94100000I0J100000D01*
G01*
X151320000Y-94100000D02*
G75*
G03*
X151320000Y-94300000I0J-100000D01*
G01*
D13*
%TO.C,R4*%
X134120000Y-91423641D02*
X134120000Y-91116359D01*
X134880000Y-91423641D02*
X134880000Y-91116359D01*
%TO.C,U2*%
X133405000Y-81705000D02*
X136130000Y-81705000D01*
X136130000Y-87155000D02*
X136130000Y-86895000D01*
X133405000Y-87155000D02*
X130680000Y-87155000D01*
X136130000Y-81705000D02*
X136130000Y-81965000D01*
X133405000Y-81705000D02*
X130680000Y-81705000D01*
X130680000Y-87155000D02*
X130680000Y-86895000D01*
X130680000Y-81965000D02*
X129005000Y-81965000D01*
X133405000Y-87155000D02*
X136130000Y-87155000D01*
X130680000Y-81705000D02*
X130680000Y-81965000D01*
%TO.C,C11*%
X143235000Y-100302164D02*
X143235000Y-100517836D01*
X143955000Y-100302164D02*
X143955000Y-100517836D01*
%TO.C,R7*%
X144995000Y-88411359D02*
X144995000Y-88718641D01*
X145755000Y-88411359D02*
X145755000Y-88718641D01*
%TO.C,R2*%
X150820000Y-97043641D02*
X150820000Y-96736359D01*
X150060000Y-97043641D02*
X150060000Y-96736359D01*
%TO.C,C3*%
X144352836Y-102680000D02*
X144137164Y-102680000D01*
X144352836Y-101960000D02*
X144137164Y-101960000D01*
%TO.C,C14*%
X155497164Y-79800000D02*
X155712836Y-79800000D01*
X155497164Y-79080000D02*
X155712836Y-79080000D01*
%TO.C,R5*%
X139528641Y-86820000D02*
X139221359Y-86820000D01*
X139528641Y-86060000D02*
X139221359Y-86060000D01*
%TO.C,R8*%
X144015000Y-88718641D02*
X144015000Y-88411359D01*
X144775000Y-88718641D02*
X144775000Y-88411359D01*
%TO.C,U1*%
X146355000Y-98107500D02*
X147005000Y-98107500D01*
X139785000Y-98107500D02*
X139785000Y-97457500D01*
X140435000Y-90887500D02*
X139785000Y-90887500D01*
X140435000Y-98107500D02*
X139785000Y-98107500D01*
X147005000Y-98107500D02*
X147005000Y-97457500D01*
X147005000Y-90887500D02*
X147005000Y-91537500D01*
X146355000Y-90887500D02*
X147005000Y-90887500D01*
%TO.C,C2*%
X140407164Y-102680000D02*
X140622836Y-102680000D01*
X140407164Y-101960000D02*
X140622836Y-101960000D01*
%TO.C,C8*%
X138112836Y-91457500D02*
X137897164Y-91457500D01*
X138112836Y-90737500D02*
X137897164Y-90737500D01*
%TO.C,C6*%
X143775000Y-88367836D02*
X143775000Y-88152164D01*
X143055000Y-88367836D02*
X143055000Y-88152164D01*
%TO.C,C7*%
X147665000Y-88942836D02*
X147665000Y-88727164D01*
X146945000Y-88942836D02*
X146945000Y-88727164D01*
D11*
%TO.C,S1*%
X130910000Y-96915000D02*
X135085000Y-96915000D01*
X130910000Y-93715000D02*
X135085000Y-93715000D01*
D14*
X130010000Y-94315000D02*
G75*
G03*
X130010000Y-94115000I0J100000D01*
G01*
X130010000Y-94115000D02*
G75*
G03*
X130010000Y-94315000I0J-100000D01*
G01*
D13*
%TO.C,C1*%
X142815000Y-88370336D02*
X142815000Y-88154664D01*
X142095000Y-88370336D02*
X142095000Y-88154664D01*
%TO.C,C13*%
X149367164Y-90617500D02*
X149582836Y-90617500D01*
X149367164Y-89897500D02*
X149582836Y-89897500D01*
D15*
%TO.C,IC1*%
X149690750Y-83840000D02*
X156190750Y-83840000D01*
X156190750Y-86840000D02*
X149690750Y-86840000D01*
X149690750Y-86840000D02*
X149690750Y-83840000D01*
X156190750Y-83840000D02*
X156190750Y-86840000D01*
D16*
X156750750Y-82165000D02*
G75*
G03*
X156750750Y-82165000I-127000J0D01*
G01*
D13*
%TO.C,C5*%
X146705000Y-88942836D02*
X146705000Y-88727164D01*
X145985000Y-88942836D02*
X145985000Y-88727164D01*
%TO.C,R6*%
X146781359Y-86820000D02*
X147088641Y-86820000D01*
X146781359Y-86060000D02*
X147088641Y-86060000D01*
%TO.C,C4*%
X144315000Y-100302164D02*
X144315000Y-100517836D01*
X145035000Y-100302164D02*
X145035000Y-100517836D01*
%TD*%
M02*
