%TF.GenerationSoftware,KiCad,Pcbnew,(6.0.4)*%
%TF.CreationDate,2022-07-20T20:12:39-04:00*%
%TF.ProjectId,Palette_Chip_KiCAD,50616c65-7474-4655-9f43-6869705f4b69,rev?*%
%TF.SameCoordinates,Original*%
%TF.FileFunction,Paste,Top*%
%TF.FilePolarity,Positive*%
%FSLAX46Y46*%
G04 Gerber Fmt 4.6, Leading zero omitted, Abs format (unit mm)*
G04 Created by KiCad (PCBNEW (6.0.4)) date 2022-07-20 20:12:39*
%MOMM*%
%LPD*%
G01*
G04 APERTURE LIST*
G04 Aperture macros list*
%AMRoundRect*
0 Rectangle with rounded corners*
0 $1 Rounding radius*
0 $2 $3 $4 $5 $6 $7 $8 $9 X,Y pos of 4 corners*
0 Add a 4 corners polygon primitive as box body*
4,1,4,$2,$3,$4,$5,$6,$7,$8,$9,$2,$3,0*
0 Add four circle primitives for the rounded corners*
1,1,$1+$1,$2,$3*
1,1,$1+$1,$4,$5*
1,1,$1+$1,$6,$7*
1,1,$1+$1,$8,$9*
0 Add four rect primitives between the rounded corners*
20,1,$1+$1,$2,$3,$4,$5,0*
20,1,$1+$1,$4,$5,$6,$7,0*
20,1,$1+$1,$6,$7,$8,$9,0*
20,1,$1+$1,$8,$9,$2,$3,0*%
G04 Aperture macros list end*
%ADD10R,1.100000X1.100000*%
%ADD11RoundRect,0.140000X-0.140000X-0.170000X0.140000X-0.170000X0.140000X0.170000X-0.140000X0.170000X0*%
%ADD12RoundRect,0.135000X0.185000X-0.135000X0.185000X0.135000X-0.185000X0.135000X-0.185000X-0.135000X0*%
%ADD13R,1.295400X2.006600*%
%ADD14RoundRect,0.050000X0.300000X0.725000X-0.300000X0.725000X-0.300000X-0.725000X0.300000X-0.725000X0*%
%ADD15RoundRect,0.050000X0.150000X0.725000X-0.150000X0.725000X-0.150000X-0.725000X0.150000X-0.725000X0*%
%ADD16RoundRect,0.140000X0.140000X0.170000X-0.140000X0.170000X-0.140000X-0.170000X0.140000X-0.170000X0*%
%ADD17RoundRect,0.135000X-0.185000X0.135000X-0.185000X-0.135000X0.185000X-0.135000X0.185000X0.135000X0*%
%ADD18R,1.050000X0.650000*%
%ADD19RoundRect,0.150000X-0.650000X-0.150000X0.650000X-0.150000X0.650000X0.150000X-0.650000X0.150000X0*%
%ADD20RoundRect,0.140000X-0.170000X0.140000X-0.170000X-0.140000X0.170000X-0.140000X0.170000X0.140000X0*%
%ADD21RoundRect,0.135000X0.135000X0.185000X-0.135000X0.185000X-0.135000X-0.185000X0.135000X-0.185000X0*%
%ADD22RoundRect,0.250000X-0.292217X-0.292217X0.292217X-0.292217X0.292217X0.292217X-0.292217X0.292217X0*%
%ADD23RoundRect,0.050000X-0.387500X-0.050000X0.387500X-0.050000X0.387500X0.050000X-0.387500X0.050000X0*%
%ADD24RoundRect,0.050000X-0.050000X-0.387500X0.050000X-0.387500X0.050000X0.387500X-0.050000X0.387500X0*%
%ADD25RoundRect,0.140000X0.170000X-0.140000X0.170000X0.140000X-0.170000X0.140000X-0.170000X-0.140000X0*%
%ADD26R,1.000000X2.150000*%
%ADD27R,3.250000X2.150000*%
%ADD28RoundRect,0.135000X-0.135000X-0.185000X0.135000X-0.185000X0.135000X0.185000X-0.135000X0.185000X0*%
G04 APERTURE END LIST*
D10*
%TO.C,D14*%
X152275000Y-79450000D03*
X149475000Y-79450000D03*
%TD*%
D11*
%TO.C,C15*%
X152945000Y-90380000D03*
X153905000Y-90380000D03*
%TD*%
D12*
%TO.C,R3*%
X133520000Y-91780000D03*
X133520000Y-90760000D03*
%TD*%
D13*
%TO.C,Y1*%
X145157300Y-104645100D03*
X141452700Y-104645100D03*
%TD*%
D14*
%TO.C,USB1*%
X146630000Y-84062500D03*
X145855000Y-84062500D03*
D15*
X145155000Y-84062500D03*
X144655000Y-84062500D03*
X144155000Y-84062500D03*
X143655000Y-84062500D03*
X143155000Y-84062500D03*
X142655000Y-84062500D03*
X142155000Y-84062500D03*
X141655000Y-84062500D03*
D14*
X140955000Y-84062500D03*
X140180000Y-84062500D03*
%TD*%
D11*
%TO.C,C12*%
X148995000Y-91217500D03*
X149955000Y-91217500D03*
%TD*%
D16*
%TO.C,C16*%
X137005000Y-80790000D03*
X136045000Y-80790000D03*
%TD*%
%TO.C,C10*%
X138485000Y-95497500D03*
X137525000Y-95497500D03*
%TD*%
D17*
%TO.C,R1*%
X141965000Y-100370000D03*
X141965000Y-101390000D03*
%TD*%
D11*
%TO.C,C9*%
X148305000Y-95500000D03*
X149265000Y-95500000D03*
%TD*%
D18*
%TO.C,S2*%
X152245000Y-94225000D03*
X156395000Y-94225000D03*
X152245000Y-96375000D03*
X156395000Y-96375000D03*
%TD*%
D12*
%TO.C,R4*%
X134500000Y-91780000D03*
X134500000Y-90760000D03*
%TD*%
D19*
%TO.C,U2*%
X129805000Y-82525000D03*
X129805000Y-83795000D03*
X129805000Y-85065000D03*
X129805000Y-86335000D03*
X137005000Y-86335000D03*
X137005000Y-85065000D03*
X137005000Y-83795000D03*
X137005000Y-82525000D03*
%TD*%
D20*
%TO.C,C11*%
X143595000Y-99930000D03*
X143595000Y-100890000D03*
%TD*%
D17*
%TO.C,R7*%
X145375000Y-88055000D03*
X145375000Y-89075000D03*
%TD*%
D12*
%TO.C,R2*%
X150440000Y-97400000D03*
X150440000Y-96380000D03*
%TD*%
D16*
%TO.C,C3*%
X144725000Y-102320000D03*
X143765000Y-102320000D03*
%TD*%
D11*
%TO.C,C14*%
X155125000Y-79440000D03*
X156085000Y-79440000D03*
%TD*%
D21*
%TO.C,R5*%
X139885000Y-86440000D03*
X138865000Y-86440000D03*
%TD*%
D12*
%TO.C,R8*%
X144395000Y-89075000D03*
X144395000Y-88055000D03*
%TD*%
D22*
%TO.C,U1*%
X142757500Y-95135000D03*
X144032500Y-93860000D03*
X144032500Y-95135000D03*
X142757500Y-93860000D03*
D23*
X139957500Y-91897500D03*
X139957500Y-92297500D03*
X139957500Y-92697500D03*
X139957500Y-93097500D03*
X139957500Y-93497500D03*
X139957500Y-93897500D03*
X139957500Y-94297500D03*
X139957500Y-94697500D03*
X139957500Y-95097500D03*
X139957500Y-95497500D03*
X139957500Y-95897500D03*
X139957500Y-96297500D03*
X139957500Y-96697500D03*
X139957500Y-97097500D03*
D24*
X140795000Y-97935000D03*
X141195000Y-97935000D03*
X141595000Y-97935000D03*
X141995000Y-97935000D03*
X142395000Y-97935000D03*
X142795000Y-97935000D03*
X143195000Y-97935000D03*
X143595000Y-97935000D03*
X143995000Y-97935000D03*
X144395000Y-97935000D03*
X144795000Y-97935000D03*
X145195000Y-97935000D03*
X145595000Y-97935000D03*
X145995000Y-97935000D03*
D23*
X146832500Y-97097500D03*
X146832500Y-96697500D03*
X146832500Y-96297500D03*
X146832500Y-95897500D03*
X146832500Y-95497500D03*
X146832500Y-95097500D03*
X146832500Y-94697500D03*
X146832500Y-94297500D03*
X146832500Y-93897500D03*
X146832500Y-93497500D03*
X146832500Y-93097500D03*
X146832500Y-92697500D03*
X146832500Y-92297500D03*
X146832500Y-91897500D03*
D24*
X145995000Y-91060000D03*
X145595000Y-91060000D03*
X145195000Y-91060000D03*
X144795000Y-91060000D03*
X144395000Y-91060000D03*
X143995000Y-91060000D03*
X143595000Y-91060000D03*
X143195000Y-91060000D03*
X142795000Y-91060000D03*
X142395000Y-91060000D03*
X141995000Y-91060000D03*
X141595000Y-91060000D03*
X141195000Y-91060000D03*
X140795000Y-91060000D03*
%TD*%
D11*
%TO.C,C2*%
X140035000Y-102320000D03*
X140995000Y-102320000D03*
%TD*%
D16*
%TO.C,C8*%
X138485000Y-91097500D03*
X137525000Y-91097500D03*
%TD*%
D25*
%TO.C,C6*%
X143415000Y-88740000D03*
X143415000Y-87780000D03*
%TD*%
%TO.C,C7*%
X147305000Y-89315000D03*
X147305000Y-88355000D03*
%TD*%
D18*
%TO.C,S1*%
X130935000Y-94240000D03*
X135085000Y-94240000D03*
X130935000Y-96390000D03*
X135085000Y-96390000D03*
%TD*%
D25*
%TO.C,C1*%
X142455000Y-88742500D03*
X142455000Y-87782500D03*
%TD*%
D11*
%TO.C,C13*%
X148995000Y-90257500D03*
X149955000Y-90257500D03*
%TD*%
D26*
%TO.C,IC1*%
X155240750Y-82440000D03*
X152940750Y-82440000D03*
X150640750Y-82440000D03*
D27*
X152940750Y-88240000D03*
%TD*%
D25*
%TO.C,C5*%
X146345000Y-89315000D03*
X146345000Y-88355000D03*
%TD*%
D28*
%TO.C,R6*%
X146425000Y-86440000D03*
X147445000Y-86440000D03*
%TD*%
D20*
%TO.C,C4*%
X144675000Y-99930000D03*
X144675000Y-100890000D03*
%TD*%
M02*
