<svg version="1.1" xmlns="http://www.w3.org/2000/svg" xmlns:xlink="http://www.w3.org/1999/xlink" stroke-linecap="round" stroke-linejoin="round" stroke-width="0" fill-rule="evenodd" clip-rule="evenodd" id="fQ8_zNuH0GNOXL0H4lb2_bottom" viewBox="128420 -106630 30000 28710" width="30mm" height="28.71mm" class="w-100 h-100"><defs><style>.fQ8_zNuH0GNOXL0H4lb2_fr4 {color: #666666;}
.fQ8_zNuH0GNOXL0H4lb2_cu {color: #cccccc;}
.fQ8_zNuH0GNOXL0H4lb2_cf {color: #f5f5f5;}
.fQ8_zNuH0GNOXL0H4lb2_sm {color: #000000; opacity: 0.75;}
.fQ8_zNuH0GNOXL0H4lb2_ss {color: #ffffff;}
.fQ8_zNuH0GNOXL0H4lb2_sp {color: #999999;}
.fQ8_zNuH0GNOXL0H4lb2_out {color: #000000;}</style><g id="n671m2NWYhKpzwaLPG1n_pad-10"><polygon points="-869,-381 869,-381 869,381 -869,381"/><circle cx="-869" cy="-381" r="381"/><circle cx="869" cy="-381" r="381"/><circle cx="869" cy="381" r="381"/><circle cx="-869" cy="381" r="381"/><polygon points="-869,-762 869,-762 869,0 -869,0"/><polygon points="1250,-381 1250,381 488,381 488,-381"/><polygon points="869,0 -869,0 -869,762 869,762"/><polygon points="-488,381 -488,-381 -1250,-381 -1250,381"/></g><circle cx="0" cy="0" r="375" id="n671m2NWYhKpzwaLPG1n_pad-11"/><rect x="-550" y="-1100" width="1100" height="2200" rx="550" ry="550" id="n671m2NWYhKpzwaLPG1n_pad-12"/><rect x="-550" y="-850" width="1100" height="1700" rx="550" ry="550" id="n671m2NWYhKpzwaLPG1n_pad-13"/><circle cx="0" cy="0" r="300" id="n671m2NWYhKpzwaLPG1n_pad-14"/><g id="xdB3zcShXp3JUv9Q86rt_pad-10"><polygon points="-869,-381 869,-381 869,381 -869,381"/><circle cx="-869" cy="-381" r="381"/><circle cx="869" cy="-381" r="381"/><circle cx="869" cy="381" r="381"/><circle cx="-869" cy="381" r="381"/><polygon points="-869,-762 869,-762 869,0 -869,0"/><polygon points="1250,-381 1250,381 488,381 488,-381"/><polygon points="869,0 -869,0 -869,762 869,762"/><polygon points="-488,381 -488,-381 -1250,-381 -1250,381"/></g><rect x="-500" y="-1050" width="1000" height="2100" rx="500" ry="500" id="xdB3zcShXp3JUv9Q86rt_pad-11"/><rect x="-500" y="-800" width="1000" height="1600" rx="500" ry="500" id="xdB3zcShXp3JUv9Q86rt_pad-12"/><circle cx="0" cy="0" r="300" id="xdB3zcShXp3JUv9Q86rt_pad-13"/><circle cx="0" cy="0" r="300" id="xdB3zcShXp3JUv9Q86rt_pad-14"/><circle cx="0" cy="0" r="6.9" id="I6Gzz4vJ9-Bzt9J_Zvqt_pad-1"/><circle cx="0" cy="0" r="6.9" id="I6Gzz4vJ9-Bzt9J_Zvqt_pad-2"/><circle cx="0" cy="0" r="15.75" id="I6Gzz4vJ9-Bzt9J_Zvqt_pad-4"/><circle cx="0" cy="0" r="12.8" id="S2GJvavu8G-Y01BL7Ixv_pad-1"/><g id="fQ8_zNuH0GNOXL0H4lb2_bottom_soldermask"><use xlink:href="#n671m2NWYhKpzwaLPG1n_pad-10" x="158415" y="-81500"/><use xlink:href="#n671m2NWYhKpzwaLPG1n_pad-11" x="140515" y="-82617.5"/><use xlink:href="#n671m2NWYhKpzwaLPG1n_pad-11" x="146295" y="-82617.5"/><use xlink:href="#n671m2NWYhKpzwaLPG1n_pad-12" x="139085" y="-83147.5"/><use xlink:href="#n671m2NWYhKpzwaLPG1n_pad-13" x="147725" y="-78967.5"/><use xlink:href="#n671m2NWYhKpzwaLPG1n_pad-13" x="139085" y="-78967.5"/><use xlink:href="#n671m2NWYhKpzwaLPG1n_pad-12" x="147725" y="-83147.5"/><use xlink:href="#n671m2NWYhKpzwaLPG1n_pad-10" x="158415" y="-92500"/><use xlink:href="#n671m2NWYhKpzwaLPG1n_pad-10" x="128415" y="-95690"/><use xlink:href="#n671m2NWYhKpzwaLPG1n_pad-10" x="158415" y="-88100"/><use xlink:href="#n671m2NWYhKpzwaLPG1n_pad-10" x="158415" y="-90300"/><use xlink:href="#n671m2NWYhKpzwaLPG1n_pad-10" x="158415" y="-85900"/><use xlink:href="#n671m2NWYhKpzwaLPG1n_pad-10" x="158415" y="-79300"/><use xlink:href="#n671m2NWYhKpzwaLPG1n_pad-10" x="128415" y="-89090"/><use xlink:href="#n671m2NWYhKpzwaLPG1n_pad-10" x="158415" y="-83700"/><use xlink:href="#n671m2NWYhKpzwaLPG1n_pad-10" x="128415" y="-91290"/><use xlink:href="#n671m2NWYhKpzwaLPG1n_pad-10" x="128415" y="-93490"/><use xlink:href="#n671m2NWYhKpzwaLPG1n_pad-14" x="147745" y="-84940"/><use xlink:href="#n671m2NWYhKpzwaLPG1n_pad-14" x="140265" y="-103460"/><use xlink:href="#n671m2NWYhKpzwaLPG1n_pad-14" x="156355" y="-95255"/><use xlink:href="#n671m2NWYhKpzwaLPG1n_pad-14" x="136345" y="-96390"/><use xlink:href="#n671m2NWYhKpzwaLPG1n_pad-14" x="138865" y="-87350"/><use xlink:href="#n671m2NWYhKpzwaLPG1n_pad-14" x="135135" y="-80790"/><use xlink:href="#n671m2NWYhKpzwaLPG1n_pad-14" x="136340" y="-94245"/><use xlink:href="#n671m2NWYhKpzwaLPG1n_pad-14" x="142765" y="-100890"/><use xlink:href="#n671m2NWYhKpzwaLPG1n_pad-14" x="140275" y="-105980"/><use xlink:href="#n671m2NWYhKpzwaLPG1n_pad-14" x="145635" y="-102320"/><use xlink:href="#n671m2NWYhKpzwaLPG1n_pad-14" x="146345" y="-87417.5"/><use xlink:href="#n671m2NWYhKpzwaLPG1n_pad-14" x="150865" y="-91210"/><use xlink:href="#n671m2NWYhKpzwaLPG1n_pad-14" x="146345" y="-105980"/><use xlink:href="#n671m2NWYhKpzwaLPG1n_pad-14" x="136615" y="-95490"/><use xlink:href="#n671m2NWYhKpzwaLPG1n_pad-14" x="140625" y="-99590"/><use xlink:href="#n671m2NWYhKpzwaLPG1n_pad-14" x="146335" y="-103460"/><use xlink:href="#n671m2NWYhKpzwaLPG1n_pad-14" x="154815" y="-90380"/><use xlink:href="#n671m2NWYhKpzwaLPG1n_pad-14" x="145415" y="-101630"/><use xlink:href="#n671m2NWYhKpzwaLPG1n_pad-14" x="143285" y="-105070"/><use xlink:href="#n671m2NWYhKpzwaLPG1n_pad-14" x="150175" y="-95492.5"/><use xlink:href="#n671m2NWYhKpzwaLPG1n_pad-14" x="148355" y="-86440"/><use xlink:href="#n671m2NWYhKpzwaLPG1n_pad-14" x="131270" y="-86330"/><use xlink:href="#n671m2NWYhKpzwaLPG1n_pad-14" x="156085" y="-80570"/><use xlink:href="#n671m2NWYhKpzwaLPG1n_pad-14" x="141805" y="-86830"/><use xlink:href="#n671m2NWYhKpzwaLPG1n_pad-14" x="150865" y="-90250"/><use xlink:href="#n671m2NWYhKpzwaLPG1n_pad-14" x="141525" y="-103080"/><use xlink:href="#n671m2NWYhKpzwaLPG1n_pad-14" x="142765" y="-86830"/><use xlink:href="#n671m2NWYhKpzwaLPG1n_pad-14" x="140035" y="-101410"/><use xlink:href="#n671m2NWYhKpzwaLPG1n_pad-14" x="139065" y="-84950"/><use xlink:href="#n671m2NWYhKpzwaLPG1n_pad-14" x="136605" y="-91100"/><use xlink:href="#n671m2NWYhKpzwaLPG1n_pad-14" x="156385" y="-97405"/><use xlink:href="#n671m2NWYhKpzwaLPG1n_pad-14" x="147305" y="-87447.5"/><use xlink:href="#n671m2NWYhKpzwaLPG1n_pad-14" x="145705" y="-96810"/><use xlink:href="#n671m2NWYhKpzwaLPG1n_pad-14" x="149625" y="-83880"/><use xlink:href="#n671m2NWYhKpzwaLPG1n_pad-14" x="146775" y="-97870"/><use xlink:href="#n671m2NWYhKpzwaLPG1n_pad-14" x="148195" y="-81310"/><use xlink:href="#n671m2NWYhKpzwaLPG1n_pad-14" x="132410" y="-93970"/><use xlink:href="#n671m2NWYhKpzwaLPG1n_pad-14" x="132500" y="-91780"/><use xlink:href="#n671m2NWYhKpzwaLPG1n_pad-14" x="147895" y="-96650"/><use xlink:href="#n671m2NWYhKpzwaLPG1n_pad-14" x="147135" y="-98800"/><use xlink:href="#n671m2NWYhKpzwaLPG1n_pad-14" x="131270" y="-83790"/><use xlink:href="#n671m2NWYhKpzwaLPG1n_pad-14" x="132475" y="-84370"/><use xlink:href="#n671m2NWYhKpzwaLPG1n_pad-14" x="131270" y="-85060"/><use xlink:href="#n671m2NWYhKpzwaLPG1n_pad-14" x="133065" y="-85655"/><use xlink:href="#n671m2NWYhKpzwaLPG1n_pad-14" x="135535" y="-86325"/><use xlink:href="#n671m2NWYhKpzwaLPG1n_pad-14" x="133745" y="-86910"/><use xlink:href="#n671m2NWYhKpzwaLPG1n_pad-14" x="134335" y="-85640"/><use xlink:href="#n671m2NWYhKpzwaLPG1n_pad-14" x="135535" y="-85060"/><use xlink:href="#n671m2NWYhKpzwaLPG1n_pad-14" x="144285" y="-92400"/><use xlink:href="#n671m2NWYhKpzwaLPG1n_pad-14" x="144205" y="-98990"/><use xlink:href="#n671m2NWYhKpzwaLPG1n_pad-14" x="143995" y="-96600"/><use xlink:href="#n671m2NWYhKpzwaLPG1n_pad-14" x="143197.933" y="-89774.223"/><use xlink:href="#n671m2NWYhKpzwaLPG1n_pad-14" x="130300" y="-95250"/><use xlink:href="#n671m2NWYhKpzwaLPG1n_pad-14" x="131720" y="-95250"/></g><g id="fQ8_zNuH0GNOXL0H4lb2_bottom_copper"><use xlink:href="#xdB3zcShXp3JUv9Q86rt_pad-10" x="158415" y="-81500"/><use xlink:href="#xdB3zcShXp3JUv9Q86rt_pad-11" x="139085" y="-83147.5"/><use xlink:href="#xdB3zcShXp3JUv9Q86rt_pad-12" x="147725" y="-78967.5"/><use xlink:href="#xdB3zcShXp3JUv9Q86rt_pad-12" x="139085" y="-78967.5"/><use xlink:href="#xdB3zcShXp3JUv9Q86rt_pad-11" x="147725" y="-83147.5"/><use xlink:href="#xdB3zcShXp3JUv9Q86rt_pad-10" x="158415" y="-92500"/><use xlink:href="#xdB3zcShXp3JUv9Q86rt_pad-10" x="128415" y="-95690"/><use xlink:href="#xdB3zcShXp3JUv9Q86rt_pad-10" x="158415" y="-88100"/><use xlink:href="#xdB3zcShXp3JUv9Q86rt_pad-10" x="158415" y="-90300"/><use xlink:href="#xdB3zcShXp3JUv9Q86rt_pad-10" x="158415" y="-85900"/><use xlink:href="#xdB3zcShXp3JUv9Q86rt_pad-10" x="158415" y="-79300"/><use xlink:href="#xdB3zcShXp3JUv9Q86rt_pad-10" x="128415" y="-89090"/><use xlink:href="#xdB3zcShXp3JUv9Q86rt_pad-10" x="158415" y="-83700"/><use xlink:href="#xdB3zcShXp3JUv9Q86rt_pad-13" x="143395" y="-95772.5"/><use xlink:href="#xdB3zcShXp3JUv9Q86rt_pad-13" x="144670" y="-94497.5"/><use xlink:href="#xdB3zcShXp3JUv9Q86rt_pad-13" x="143395" y="-93222.5"/><use xlink:href="#xdB3zcShXp3JUv9Q86rt_pad-13" x="143395" y="-94497.5"/><use xlink:href="#xdB3zcShXp3JUv9Q86rt_pad-13" x="142120" y="-95772.5"/><use xlink:href="#xdB3zcShXp3JUv9Q86rt_pad-13" x="142120" y="-93222.5"/><use xlink:href="#xdB3zcShXp3JUv9Q86rt_pad-13" x="142120" y="-94497.5"/><use xlink:href="#xdB3zcShXp3JUv9Q86rt_pad-13" x="144670" y="-95772.5"/><use xlink:href="#xdB3zcShXp3JUv9Q86rt_pad-13" x="144670" y="-93222.5"/><use xlink:href="#xdB3zcShXp3JUv9Q86rt_pad-10" x="128415" y="-91290"/><use xlink:href="#xdB3zcShXp3JUv9Q86rt_pad-10" x="128415" y="-93490"/><use xlink:href="#xdB3zcShXp3JUv9Q86rt_pad-14" x="147745" y="-84940"/><use xlink:href="#xdB3zcShXp3JUv9Q86rt_pad-14" x="140265" y="-103460"/><use xlink:href="#xdB3zcShXp3JUv9Q86rt_pad-14" x="156355" y="-95255"/><use xlink:href="#xdB3zcShXp3JUv9Q86rt_pad-14" x="136345" y="-96390"/><use xlink:href="#xdB3zcShXp3JUv9Q86rt_pad-14" x="138865" y="-87350"/><use xlink:href="#xdB3zcShXp3JUv9Q86rt_pad-14" x="135135" y="-80790"/><use xlink:href="#xdB3zcShXp3JUv9Q86rt_pad-14" x="136340" y="-94245"/><use xlink:href="#xdB3zcShXp3JUv9Q86rt_pad-14" x="142765" y="-100890"/><use xlink:href="#xdB3zcShXp3JUv9Q86rt_pad-14" x="140275" y="-105980"/><use xlink:href="#xdB3zcShXp3JUv9Q86rt_pad-14" x="145635" y="-102320"/><use xlink:href="#xdB3zcShXp3JUv9Q86rt_pad-14" x="146345" y="-87417.5"/><use xlink:href="#xdB3zcShXp3JUv9Q86rt_pad-14" x="150865" y="-91210"/><use xlink:href="#xdB3zcShXp3JUv9Q86rt_pad-14" x="146345" y="-105980"/><use xlink:href="#xdB3zcShXp3JUv9Q86rt_pad-14" x="136615" y="-95490"/><use xlink:href="#xdB3zcShXp3JUv9Q86rt_pad-14" x="140625" y="-99590"/><use xlink:href="#xdB3zcShXp3JUv9Q86rt_pad-14" x="146335" y="-103460"/><use xlink:href="#xdB3zcShXp3JUv9Q86rt_pad-14" x="154815" y="-90380"/><use xlink:href="#xdB3zcShXp3JUv9Q86rt_pad-14" x="145415" y="-101630"/><use xlink:href="#xdB3zcShXp3JUv9Q86rt_pad-14" x="143285" y="-105070"/><use xlink:href="#xdB3zcShXp3JUv9Q86rt_pad-14" x="150175" y="-95492.5"/><use xlink:href="#xdB3zcShXp3JUv9Q86rt_pad-14" x="148355" y="-86440"/><use xlink:href="#xdB3zcShXp3JUv9Q86rt_pad-14" x="131270" y="-86330"/><use xlink:href="#xdB3zcShXp3JUv9Q86rt_pad-14" x="156085" y="-80570"/><use xlink:href="#xdB3zcShXp3JUv9Q86rt_pad-14" x="141805" y="-86830"/><use xlink:href="#xdB3zcShXp3JUv9Q86rt_pad-14" x="150865" y="-90250"/><use xlink:href="#xdB3zcShXp3JUv9Q86rt_pad-14" x="141525" y="-103080"/><use xlink:href="#xdB3zcShXp3JUv9Q86rt_pad-14" x="142765" y="-86830"/><use xlink:href="#xdB3zcShXp3JUv9Q86rt_pad-14" x="140035" y="-101410"/><use xlink:href="#xdB3zcShXp3JUv9Q86rt_pad-14" x="139065" y="-84950"/><use xlink:href="#xdB3zcShXp3JUv9Q86rt_pad-14" x="136605" y="-91100"/><use xlink:href="#xdB3zcShXp3JUv9Q86rt_pad-14" x="156385" y="-97405"/><use xlink:href="#xdB3zcShXp3JUv9Q86rt_pad-14" x="147305" y="-87447.5"/><use xlink:href="#xdB3zcShXp3JUv9Q86rt_pad-14" x="145705" y="-96810"/><use xlink:href="#xdB3zcShXp3JUv9Q86rt_pad-14" x="149625" y="-83880"/><use xlink:href="#xdB3zcShXp3JUv9Q86rt_pad-14" x="146775" y="-97870"/><use xlink:href="#xdB3zcShXp3JUv9Q86rt_pad-14" x="148195" y="-81310"/><use xlink:href="#xdB3zcShXp3JUv9Q86rt_pad-14" x="132410" y="-93970"/><use xlink:href="#xdB3zcShXp3JUv9Q86rt_pad-14" x="132500" y="-91780"/><use xlink:href="#xdB3zcShXp3JUv9Q86rt_pad-14" x="147895" y="-96650"/><use xlink:href="#xdB3zcShXp3JUv9Q86rt_pad-14" x="147135" y="-98800"/><use xlink:href="#xdB3zcShXp3JUv9Q86rt_pad-14" x="131270" y="-83790"/><use xlink:href="#xdB3zcShXp3JUv9Q86rt_pad-14" x="132475" y="-84370"/><use xlink:href="#xdB3zcShXp3JUv9Q86rt_pad-14" x="131270" y="-85060"/><use xlink:href="#xdB3zcShXp3JUv9Q86rt_pad-14" x="133065" y="-85655"/><use xlink:href="#xdB3zcShXp3JUv9Q86rt_pad-14" x="135535" y="-86325"/><use xlink:href="#xdB3zcShXp3JUv9Q86rt_pad-14" x="133745" y="-86910"/><use xlink:href="#xdB3zcShXp3JUv9Q86rt_pad-14" x="134335" y="-85640"/><use xlink:href="#xdB3zcShXp3JUv9Q86rt_pad-14" x="135535" y="-85060"/><use xlink:href="#xdB3zcShXp3JUv9Q86rt_pad-14" x="144285" y="-92400"/><use xlink:href="#xdB3zcShXp3JUv9Q86rt_pad-14" x="144205" y="-98990"/><use xlink:href="#xdB3zcShXp3JUv9Q86rt_pad-14" x="143995" y="-96600"/><use xlink:href="#xdB3zcShXp3JUv9Q86rt_pad-14" x="143197.933" y="-89774.223"/><use xlink:href="#xdB3zcShXp3JUv9Q86rt_pad-14" x="130300" y="-95250"/><use xlink:href="#xdB3zcShXp3JUv9Q86rt_pad-14" x="131720" y="-95250"/><path d="M 145715 -96810 146775 -97870" fill="none" stroke-width="400"/><path d="M 149625 -82740 149625 -83880" fill="none" stroke-width="200"/><path d="M 145705 -96810 145715 -96810" fill="none" stroke-width="400"/><path d="M 148195 -81310 149625 -82740" fill="none" stroke-width="200"/><path d="M 145705 -96810 145725 -96810" fill="none" stroke-width="400"/><path d="M 132410 -91870 132410 -93970 M 132500 -91780 132410 -91870" fill="none" stroke-width="150"/><path d="M 147135 -98800 147324.511 -98610.489 M 147324.511 -97220.489 147895 -96650 M 147324.511 -98610.489 147324.511 -97220.489" fill="none" stroke-width="200"/><path d="M 131270 -83790 131895 -83790 132475 -84370 M 132470 -85060 133065 -85655 M 131270 -85060 132470 -85060 M 134330 -86325 135535 -86325 M 133745 -86910 134330 -86325 M 134915 -85060 134335 -85640 M 135535 -85060 134915 -85060" fill="none" stroke-width="150"/><path d="M 143197.933 -91312.933 144285 -92400 M 143995 -96600 143995 -98780 144205 -98990 M 143197.933 -89774.223 143197.933 -91312.933" fill="none" stroke-width="400"/><path d="M 131720 -95250 130300 -95250" fill="none" stroke-width="150"/><path d="M 138313.108 -78239.407 138349.072 -78288.907 138347.947 -78353.36 138304.404 -78472.996 138301.817 -78483.69 138285.39 -78613.725 138285 -78619.913 138285 -78801.82 138289.122 -78814.505 138293.243 -78817.5 139869.32 -78817.5 139882.005 -78813.378 139885 -78809.257 139885 -78625.144 139884.691 -78619.615 139870.673 -78494.645 139868.234 -78483.908 139822.319 -78352.058 139821.037 -78290.886 139855.957 -78240.644 139915.812 -78220.5 146894.917 -78220.5 146953.108 -78239.407 146989.072 -78288.907 146987.947 -78353.36 146944.404 -78472.996 146941.817 -78483.69 146925.39 -78613.725 146925 -78619.913 146925 -78801.82 146929.122 -78814.505 146933.243 -78817.5 148509.32 -78817.5 148522.005 -78813.378 148525 -78809.257 148525 -78625.144 148524.691 -78619.615 148510.673 -78494.645 148508.234 -78483.908 148462.319 -78352.058 148461.037 -78290.886 148495.957 -78240.644 148555.812 -78220.5 157215.089 -78220.5 157273.28 -78239.407 157309.244 -78288.907 157309.244 -78350.093 157273.28 -78399.593 157264.033 -78404.773 157264.356 -78405.333 157258.736 -78408.578 157252.741 -78411.061 157131.269 -78504.269 157038.061 -78625.741 156979.467 -78767.198 156964.5 -78880.884 156964.5 -79719.116 156979.467 -79832.802 157038.061 -79974.259 157131.269 -80095.731 157252.741 -80188.939 157394.198 -80247.533 157507.884 -80262.5 158020.5 -80262.5 158078.691 -80281.407 158114.655 -80330.907 158119.5 -80361.5 158119.5 -80438.5 158100.593 -80496.691 158051.093 -80532.655 158020.5 -80537.5 157507.884 -80537.5 157394.198 -80552.467 157252.741 -80611.061 157131.269 -80704.269 157038.061 -80825.741 156979.467 -80967.198 156964.5 -81080.884 156964.5 -81919.116 156979.467 -82032.802 157038.061 -82174.259 157131.269 -82295.731 157252.741 -82388.939 157394.198 -82447.533 157507.884 -82462.5 158020.5 -82462.5 158078.691 -82481.407 158114.655 -82530.907 158119.5 -82561.5 158119.5 -82638.5 158100.593 -82696.691 158051.093 -82732.655 158020.5 -82737.5 157507.884 -82737.5 157394.198 -82752.467 157252.741 -82811.061 157131.269 -82904.269 157038.061 -83025.741 156979.467 -83167.198 156964.5 -83280.884 156964.5 -84119.116 156979.467 -84232.802 157038.061 -84374.259 157131.269 -84495.731 157252.741 -84588.939 157394.198 -84647.533 157507.884 -84662.5 158020.5 -84662.5 158078.691 -84681.407 158114.655 -84730.907 158119.5 -84761.5 158119.5 -84838.5 158100.593 -84896.691 158051.093 -84932.655 158020.5 -84937.5 157507.884 -84937.5 157394.198 -84952.467 157252.741 -85011.061 157131.269 -85104.269 157038.061 -85225.741 157023.781 -85260.216 156983.649 -85357.103 156979.467 -85367.198 156964.5 -85480.884 156964.5 -86319.116 156979.467 -86432.802 157038.061 -86574.259 157131.269 -86695.731 157252.741 -86788.939 157394.198 -86847.533 157507.884 -86862.5 158020.5 -86862.5 158078.691 -86881.407 158114.655 -86930.907 158119.5 -86961.5 158119.5 -87038.5 158100.593 -87096.691 158051.093 -87132.655 158020.5 -87137.5 157507.884 -87137.5 157394.198 -87152.467 157252.741 -87211.061 157131.269 -87304.269 157038.061 -87425.741 156979.467 -87567.198 156964.5 -87680.884 156964.5 -88519.116 156979.467 -88632.802 157038.061 -88774.259 157131.269 -88895.731 157252.741 -88988.939 157394.198 -89047.533 157507.884 -89062.5 158020.5 -89062.5 158078.691 -89081.407 158114.655 -89130.907 158119.5 -89161.5 158119.5 -89238.5 158100.593 -89296.691 158051.093 -89332.655 158020.5 -89337.5 157507.884 -89337.5 157394.198 -89352.467 157252.741 -89411.061 157131.269 -89504.269 157038.061 -89625.741 156979.467 -89767.198 156964.5 -89880.884 156964.5 -90719.116 156979.467 -90832.802 157038.061 -90974.259 157131.269 -91095.731 157252.741 -91188.939 157394.198 -91247.533 157507.884 -91262.5 158020.5 -91262.5 158078.691 -91281.407 158114.655 -91330.907 158119.5 -91361.5 158119.5 -91438.5 158100.593 -91496.691 158051.093 -91532.655 158020.5 -91537.5 157507.884 -91537.5 157394.198 -91552.467 157388.201 -91554.951 157360.582 -91566.391 157252.741 -91611.061 157131.269 -91704.269 157038.061 -91825.741 156979.467 -91967.198 156964.5 -92080.884 156964.5 -92919.116 156979.467 -93032.802 157038.061 -93174.259 157131.269 -93295.731 157252.741 -93388.939 157394.198 -93447.533 157507.884 -93462.5 158020.5 -93462.5 158078.691 -93481.407 158114.655 -93530.907 158119.5 -93561.5 158119.5 -97285.047 158117.996 -97302.236 158114.864 -97320 158116.368 -97328.531 158116.368 -97331.983 158115.149 -97347.469 158111.604 -97369.855 158107.294 -97397.064 158097.723 -97426.521 158069.421 -97482.068 158051.215 -97507.128 158007.128 -97551.215 157982.068 -97569.421 157926.521 -97597.723 157897.064 -97607.294 157847.47 -97615.149 157831.983 -97616.368 157828.531 -97616.368 157820 -97614.864 157802.236 -97617.996 157785.047 -97619.5 148554.953 -97619.5 148537.764 -97617.996 148520 -97614.864 148516.415 -97615.496 148343.471 -97632.53 148338.819 -97633.941 148338.815 -97633.942 148178.382 -97682.608 148178.376 -97682.61 148173.726 -97684.021 148017.288 -97767.639 147880.169 -97880.169 147877.08 -97883.933 147800.539 -97977.199 147749.008 -98010.186 147687.929 -98006.584 147640.632 -97967.769 147625.011 -97914.394 147625.011 -97385.968 147643.918 -97327.777 147654.007 -97315.964 147790.959 -97179.012 147845.476 -97151.235 147862.774 -97150.033 147907.09 -97150.846 147950.446 -97151.641 147950.448 -97151.641 147957.499 -97151.77 147964.302 -97149.915 147964.304 -97149.915 148064.687 -97122.547 148095.817 -97114.06 148217.991 -97039.045 148224.973 -97031.332 148309.468 -96937.982 148314.2 -96932.754 148376.71 -96803.733 148384.896 -96755.082 148399.862 -96666.124 148399.862 -96666.12 148400.496 -96662.354 148400.647 -96650 148380.323 -96508.082 148320.984 -96377.572 148252.595 -96298.203 148232.005 -96274.307 148232.004 -96274.306 148227.4 -96268.963 148107.095 -96190.985 147969.739 -96149.907 147886.497 -96149.398 147833.427 -96149.074 147833.426 -96149.074 147826.376 -96149.031 147819.599 -96150.968 147819.598 -96150.968 147695.309 -96186.49 147695.307 -96186.491 147688.529 -96188.428 147567.28 -96264.93 147562.613 -96270.214 147562.611 -96270.216 147477.044 -96367.103 147477.042 -96367.105 147472.377 -96372.388 147469.381 -96378.77 147469.38 -96378.771 147450.199 -96419.624 147411.447 -96502.163 147410.362 -96509.132 147410.361 -96509.135 147397.176 -96593.823 147389.391 -96643.823 147390.306 -96650.82 147390.306 -96650.822 147393.107 -96672.242 147381.905 -96732.393 147364.947 -96755.082 147149.86 -96970.169 147146.731 -96972.869 147142.242 -96975.064 147136.024 -96981.767 147108.618 -97011.311 147106.042 -97013.987 147092.263 -97027.766 147089.718 -97031.476 147086.282 -97035.389 147066.11 -97057.135 147062.723 -97065.623 147062.723 -97065.624 147061.845 -97067.825 147051.531 -97087.141 147050.19 -97089.096 147050.189 -97089.099 147045.019 -97096.635 147042.909 -97105.527 147038.87 -97122.547 147034.497 -97136.373 147027.217 -97154.621 147024.628 -97161.111 147024.011 -97167.404 147024.011 -97173.573 147021.336 -97196.432 147019.171 -97205.555 147023.107 -97234.476 147024.011 -97247.826 147024.011 -97289.086 147005.104 -97347.277 146955.604 -97383.241 146896.646 -97383.935 146861.656 -97373.471 146820.018 -97348.626 146222.142 -96750.749 146194.146 -96694.779 146193.936 -96693.309 146190.323 -96668.082 146185.982 -96658.533 146133.905 -96543.996 146133.904 -96543.995 146130.984 -96537.572 146037.4 -96428.963 145917.095 -96350.985 145779.739 -96309.907 145696.497 -96309.398 145643.427 -96309.074 145643.426 -96309.074 145636.376 -96309.031 145629.599 -96310.968 145629.598 -96310.968 145505.309 -96346.49 145505.307 -96346.491 145498.529 -96348.428 145377.28 -96424.93 145372.613 -96430.214 145372.611 -96430.216 145287.044 -96527.103 145287.042 -96527.105 145282.377 -96532.388 145221.447 -96662.163 145220.362 -96669.132 145220.361 -96669.135 145207.19 -96753.733 145199.391 -96803.823 145217.98 -96945.979 145220.821 -96952.435 145220.821 -96952.436 145271.594 -97067.825 145275.72 -97077.203 145319.783 -97129.622 145363.431 -97181.549 145363.434 -97181.551 145367.97 -97186.948 145487.313 -97266.39 145574.755 -97293.708 145617.425 -97307.039 145617.426 -97307.039 145621.124 -97308.194 145621.123 -97308.194 145624.157 -97309.142 145623.994 -97309.663 145673.71 -97335.103 146255.668 -97917.06 146283.828 -97974.228 146287.98 -98005.979 146290.818 -98012.43 146290.819 -98012.432 146342.879 -98130.747 146345.72 -98137.203 146391.845 -98192.075 146433.431 -98241.549 146433.434 -98241.551 146437.97 -98246.948 146557.313 -98326.39 146564.04 -98328.492 146564.043 -98328.493 146668.722 -98361.196 146718.627 -98396.596 146738.194 -98454.568 146720.57 -98510.978 146720.918 -98511.206 146720.119 -98512.422 146719.948 -98512.97 146718.848 -98514.358 146717.046 -98517.102 146712.377 -98522.388 146651.447 -98652.163 146629.391 -98793.823 146647.98 -98935.979 146650.821 -98942.435 146650.821 -98942.436 146694.149 -99040.905 146705.72 -99067.203 146718.792 -99082.754 146793.431 -99171.549 146793.434 -99171.551 146797.97 -99176.948 146917.313 -99256.39 147017.92 -99287.821 147047.425 -99297.039 147047.426 -99297.039 147054.157 -99299.142 147125.828 -99300.456 147190.445 -99301.641 147190.447 -99301.641 147197.499 -99301.77 147204.302 -99299.915 147204.304 -99299.915 147303.928 -99272.754 147335.817 -99264.06 147457.991 -99189.045 147459.383 -99187.507 147514.111 -99165.727 147573.401 -99180.84 147612.484 -99227.916 147619.5 -99264.521 147619.5 -105995.047 147617.996 -106012.236 147614.864 -106030 147616.368 -106038.531 147616.368 -106041.983 147615.149 -106057.47 147607.294 -106107.064 147597.723 -106136.521 147569.421 -106192.068 147551.215 -106217.128 147507.128 -106261.215 147482.068 -106279.421 147426.521 -106307.723 147397.064 -106317.294 147347.47 -106325.149 147331.983 -106326.368 147328.531 -106326.368 147320 -106324.864 147302.236 -106327.996 147285.047 -106329.5 139554.953 -106329.5 139537.764 -106327.996 139520 -106324.864 139511.469 -106326.368 139508.017 -106326.368 139492.53 -106325.149 139442.936 -106317.294 139413.479 -106307.723 139357.932 -106279.421 139332.872 -106261.215 139288.785 -106217.128 139270.579 -106192.068 139242.277 -106136.521 139232.706 -106107.064 139224.851 -106057.47 139223.632 -106041.983 139223.632 -106038.531 139225.136 -106030 139222.004 -106012.236 139220.5 -105995.047 139220.5 -98554.953 139222.004 -98537.761 139223.632 -98528.527 139225.136 -98520 139224.504 -98516.415 139207.47 -98343.471 139202.289 -98326.39 139157.392 -98178.382 139157.39 -98178.376 139155.979 -98173.726 139072.361 -98017.288 138990.107 -97917.06 138962.92 -97883.933 138959.831 -97880.169 138822.712 -97767.639 138666.274 -97684.021 138661.624 -97682.61 138661.618 -97682.608 138501.185 -97633.942 138501.181 -97633.941 138496.529 -97632.53 138488.758 -97631.765 138385.376 -97621.582 138381.323 -97620.893 138379.378 -97620.117 138373.085 -97619.5 138369.098 -97619.5 138359.394 -97619.023 138332.428 -97616.367 138323.585 -97615.496 138320 -97614.864 138302.236 -97617.996 138285.047 -97619.5 129054.953 -97619.5 129037.764 -97617.996 129020 -97614.864 129011.469 -97616.368 129008.017 -97616.368 128992.53 -97615.149 128942.936 -97607.294 128913.479 -97597.723 128857.932 -97569.421 128832.872 -97551.215 128788.785 -97507.128 128770.579 -97482.068 128742.277 -97426.521 128732.706 -97397.064 128728.397 -97369.855 128724.851 -97347.469 128723.632 -97331.983 128723.632 -97328.531 128725.136 -97320 128722.004 -97302.236 128720.5 -97285.047 128720.5 -96751.5 128739.407 -96693.309 128788.907 -96657.345 128819.5 -96652.5 129322.116 -96652.5 129435.802 -96637.533 129577.259 -96578.939 129698.731 -96485.731 129791.939 -96364.259 129821.322 -96293.324 141817.137 -96293.324 141817.418 -96295.098 141818.259 -96296.11 141823.409 -96299.084 141957.375 -96354.573 141969.8 -96357.903 142113.566 -96376.83 142126.434 -96376.83 142270.2 -96357.903 142282.625 -96354.573 142416.591 -96299.084 142418.115 -96298.203 142421.468 -96293.324 143092.137 -96293.324 143092.418 -96295.098 143093.259 -96296.11 143098.409 -96299.084 143232.375 -96354.573 143244.8 -96357.903 143388.566 -96376.83 143407.57 -96376.83 143465.761 -96395.737 143501.725 -96445.237 143505.391 -96491.06 143489.391 -96593.823 143490.306 -96600.82 143490.306 -96600.821 143491.814 -96612.354 143507.98 -96735.979 143510.821 -96742.435 143510.821 -96742.436 143537.793 -96803.733 143565.72 -96867.203 143571.281 -96873.819 143571.283 -96873.821 143571.778 -96875.044 143573.985 -96878.589 143573.369 -96878.972 143594.253 -96930.531 143594.5 -96937.523 143594.5 -98843.433 143601.955 -98866.375 143605.581 -98881.481 143609.354 -98905.304 143620.305 -98926.797 143626.248 -98941.143 143633.704 -98964.09 143638.285 -98970.395 143647.883 -98983.605 143655.998 -98996.846 143666.95 -99018.342 143685.668 -99037.06 143713.828 -99094.228 143717.98 -99125.979 143720.818 -99132.43 143720.819 -99132.432 143747.353 -99192.734 143775.72 -99257.203 143788.792 -99272.754 143863.431 -99361.549 143863.434 -99361.551 143867.97 -99366.948 143873.841 -99370.856 143873.842 -99370.857 143886.143 -99379.045 143987.313 -99446.39 144087.92 -99477.821 144117.425 -99487.039 144117.426 -99487.039 144124.157 -99489.142 144195.828 -99490.456 144260.445 -99491.641 144260.447 -99491.641 144267.499 -99491.77 144274.302 -99489.915 144274.304 -99489.915 144349.503 -99469.413 144405.817 -99454.06 144527.991 -99379.045 144535.403 -99370.857 144619.468 -99277.982 144624.2 -99272.754 144686.71 -99143.733 144688.612 -99132.432 144709.862 -99006.124 144709.862 -99006.12 144710.496 -99002.354 144710.647 -98990 144690.323 -98848.082 144630.984 -98717.572 144537.4 -98608.963 144440.651 -98546.253 144402.107 -98498.739 144395.5 -98463.18 144395.5 -96938.958 144411.91 -96885.284 144414.2 -96882.754 144476.71 -96753.733 144480.301 -96732.393 144499.862 -96616.124 144499.862 -96616.12 144500.496 -96612.354 144500.647 -96600 144500.104 -96596.207 144483.449 -96479.907 144493.916 -96419.624 144537.818 -96377.006 144594.371 -96367.72 144663.567 -96376.83 144676.434 -96376.83 144820.2 -96357.903 144832.625 -96354.573 144966.591 -96299.084 144968.115 -96298.203 144973.01 -96291.081 144972.962 -96289.282 144970.077 -96284.709 144458.665 -95773.297 144887.164 -95773.297 144887.96 -95778.328 145178.941 -96069.309 145190.824 -96075.363 145192.596 -96075.083 145193.61 -96074.239 145196.584 -96069.088 145252.073 -95935.125 145255.403 -95922.7 145274.33 -95778.934 145274.33 -95766.066 145255.403 -95622.3 145252.073 -95609.875 145196.584 -95475.912 145195.704 -95474.388 145188.579 -95469.49 145186.784 -95469.537 145182.207 -95472.425 144893.218 -95761.414 144887.164 -95773.297 144458.665 -95773.297 144161.059 -95475.691 144149.176 -95469.637 144147.404 -95469.917 144146.39 -95470.761 144143.416 -95475.912 144123.964 -95522.873 144084.228 -95569.399 144024.733 -95583.683 143968.205 -95560.268 143941.036 -95522.873 143921.584 -95475.912 143920.704 -95474.388 143913.579 -95469.49 143911.784 -95469.537 143907.207 -95472.425 143098.191 -96281.441 143092.137 -96293.324 142421.468 -96293.324 142423.01 -96291.081 142422.962 -96289.282 142420.077 -96284.709 142131.086 -95995.718 142119.203 -95989.664 142114.172 -95990.46 141823.191 -96281.441 141817.137 -96293.324 129821.322 -96293.324 129850.533 -96222.802 129865.5 -96109.116 129865.5 -95778.934 141515.67 -95778.934 141534.597 -95922.7 141537.927 -95935.125 141593.416 -96069.088 141594.296 -96070.612 141601.421 -96075.51 141603.216 -96075.463 141607.793 -96072.575 141896.782 -95783.586 141902.024 -95773.297 142337.164 -95773.297 142337.96 -95778.328 142628.941 -96069.309 142640.824 -96075.363 142642.596 -96075.083 142643.61 -96074.239 142646.584 -96069.088 142666.036 -96022.127 142705.772 -95975.601 142765.267 -95961.317 142821.795 -95984.732 142848.964 -96022.127 142868.416 -96069.088 142869.296 -96070.612 142876.421 -96075.51 142878.216 -96075.463 142882.793 -96072.575 143171.782 -95783.586 143177.836 -95771.703 143177.04 -95766.672 142886.059 -95475.691 142874.176 -95469.637 142872.404 -95469.917 142871.39 -95470.761 142868.416 -95475.912 142848.964 -95522.873 142809.228 -95569.399 142749.733 -95583.683 142693.205 -95560.268 142666.036 -95522.873 142646.584 -95475.912 142645.704 -95474.388 142638.579 -95469.49 142636.784 -95469.537 142632.207 -95472.425 142343.218 -95761.414 142337.164 -95773.297 141902.024 -95773.297 141902.836 -95771.703 141902.04 -95766.672 141611.059 -95475.691 141599.176 -95469.637 141597.404 -95469.917 141596.39 -95470.761 141593.416 -95475.912 141537.927 -95609.875 141534.597 -95622.3 141515.67 -95766.066 141515.67 -95778.934 129865.5 -95778.934 129865.5 -95746.894 129884.407 -95688.703 129933.907 -95652.739 129995.093 -95652.739 130019.356 -95664.482 130082.313 -95706.39 130182.92 -95737.821 130212.425 -95747.039 130212.426 -95747.039 130219.157 -95749.142 130290.828 -95750.456 130355.445 -95751.641 130355.447 -95751.641 130362.499 -95751.77 130369.302 -95749.915 130369.304 -95749.915 130444.503 -95729.413 130500.817 -95714.06 130622.991 -95639.045 130627.726 -95633.814 130696.291 -95558.064 130749.359 -95527.61 130769.689 -95525.5 131251.582 -95525.5 131309.773 -95544.407 131327.365 -95560.798 131382.97 -95626.948 131388.841 -95630.856 131388.842 -95630.857 131401.143 -95639.045 131502.313 -95706.39 131602.92 -95737.821 131632.425 -95747.039 131632.426 -95747.039 131639.157 -95749.142 131710.828 -95750.456 131775.445 -95751.641 131775.447 -95751.641 131782.499 -95751.77 131789.302 -95749.915 131789.304 -95749.915 131864.503 -95729.413 131920.817 -95714.06 132042.991 -95639.045 132050.403 -95630.857 132134.468 -95537.982 132139.2 -95532.754 132201.71 -95403.733 132225.496 -95262.354 132225.599 -95253.921 141816.99 -95253.921 141817.037 -95255.716 141819.925 -95260.293 142108.914 -95549.282 142120.797 -95555.336 142125.828 -95554.54 142416.809 -95263.559 142421.719 -95253.921 143091.99 -95253.921 143092.037 -95255.716 143094.925 -95260.293 143383.914 -95549.282 143395.797 -95555.336 143400.828 -95554.54 143691.809 -95263.559 143696.719 -95253.921 144366.99 -95253.921 144367.037 -95255.716 144369.925 -95260.293 144658.914 -95549.282 144670.797 -95555.336 144675.828 -95554.54 144966.809 -95263.559 144972.863 -95251.676 144972.582 -95249.902 144971.741 -95248.89 144966.591 -95245.916 144919.628 -95226.464 144873.102 -95186.728 144858.818 -95127.233 144882.233 -95070.705 144919.628 -95043.536 144966.591 -95024.084 144968.115 -95023.203 144973.01 -95016.081 144972.962 -95014.282 144970.077 -95009.709 144681.086 -94720.718 144669.203 -94714.664 144664.172 -94715.46 144373.191 -95006.441 144367.137 -95018.324 144367.418 -95020.098 144368.259 -95021.11 144373.409 -95024.083 144420.373 -95043.536 144466.899 -95083.272 144481.183 -95142.767 144457.769 -95199.295 144420.373 -95226.464 144373.412 -95245.916 144371.888 -95246.796 144366.99 -95253.921 143696.719 -95253.921 143697.863 -95251.676 143697.582 -95249.902 143696.741 -95248.89 143691.591 -95245.916 143644.628 -95226.464 143598.102 -95186.728 143583.818 -95127.233 143607.233 -95070.705 143644.628 -95043.536 143691.591 -95024.084 143693.115 -95023.203 143698.01 -95016.081 143697.962 -95014.282 143695.077 -95009.709 143406.086 -94720.718 143394.203 -94714.664 143389.172 -94715.46 143098.191 -95006.441 143092.137 -95018.324 143092.418 -95020.098 143093.259 -95021.11 143098.409 -95024.083 143145.373 -95043.536 143191.899 -95083.272 143206.183 -95142.767 143182.769 -95199.295 143145.373 -95226.464 143098.412 -95245.916 143096.888 -95246.796 143091.99 -95253.921 142421.719 -95253.921 142422.863 -95251.676 142422.582 -95249.902 142421.741 -95248.89 142416.591 -95245.916 142369.628 -95226.464 142323.102 -95186.728 142308.818 -95127.233 142332.233 -95070.705 142369.628 -95043.536 142416.591 -95024.084 142418.115 -95023.203 142423.01 -95016.081 142422.962 -95014.282 142420.077 -95009.709 142131.086 -94720.718 142119.203 -94714.664 142114.172 -94715.46 141823.191 -95006.441 141817.137 -95018.324 141817.418 -95020.098 141818.259 -95021.11 141823.409 -95024.083 141870.373 -95043.536 141916.899 -95083.272 141931.183 -95142.767 141907.769 -95199.295 141870.373 -95226.464 141823.412 -95245.916 141821.888 -95246.796 141816.99 -95253.921 132225.599 -95253.921 132225.647 -95250 132205.323 -95108.082 132166.731 -95023.203 132148.905 -94983.996 132148.904 -94983.995 132145.984 -94977.572 132052.4 -94868.963 131932.095 -94790.985 131794.739 -94749.907 131711.497 -94749.398 131658.427 -94749.074 131658.426 -94749.074 131651.376 -94749.031 131644.599 -94750.968 131644.598 -94750.968 131520.309 -94786.49 131520.307 -94786.491 131513.529 -94788.428 131392.28 -94864.93 131387.613 -94870.214 131387.611 -94870.216 131369.861 -94890.315 131325.872 -94940.124 131325.068 -94941.034 131272.376 -94972.134 131250.864 -94974.5 130768.715 -94974.5 130710.524 -94955.593 130693.719 -94940.127 130632.4 -94868.963 130512.095 -94790.985 130374.739 -94749.907 130291.497 -94749.398 130238.427 -94749.074 130238.426 -94749.074 130231.376 -94749.031 130224.599 -94750.968 130224.598 -94750.968 130100.309 -94786.49 130100.307 -94786.491 130093.529 -94788.428 129972.28 -94864.93 129967.612 -94870.216 129967.611 -94870.217 129893.43 -94954.211 129840.738 -94985.312 129779.829 -94979.5 129740.684 -94948.944 129702.685 -94899.422 129698.731 -94894.269 129577.259 -94801.061 129435.802 -94742.467 129322.116 -94727.5 128819.5 -94727.5 128761.309 -94708.593 128725.345 -94659.093 128720.5 -94628.5 128720.5 -94551.5 128735.955 -94503.934 141515.67 -94503.934 141534.597 -94647.7 141537.927 -94660.125 141593.416 -94794.088 141594.296 -94795.612 141601.421 -94800.51 141603.216 -94800.463 141607.793 -94797.575 141896.782 -94508.586 141902.024 -94498.297 142337.164 -94498.297 142337.96 -94503.328 142628.941 -94794.309 142640.824 -94800.363 142642.596 -94800.083 142643.61 -94799.239 142646.584 -94794.088 142666.036 -94747.127 142705.772 -94700.601 142765.267 -94686.317 142821.795 -94709.732 142848.964 -94747.127 142868.416 -94794.088 142869.296 -94795.612 142876.421 -94800.51 142878.216 -94800.463 142882.793 -94797.575 143171.782 -94508.586 143177.024 -94498.297 143612.164 -94498.297 143612.96 -94503.328 143903.941 -94794.309 143915.824 -94800.363 143917.596 -94800.083 143918.61 -94799.239 143921.584 -94794.088 143941.036 -94747.127 143980.772 -94700.601 144040.267 -94686.317 144096.795 -94709.732 144123.964 -94747.127 144143.416 -94794.088 144144.296 -94795.612 144151.421 -94800.51 144153.216 -94800.463 144157.793 -94797.575 144446.782 -94508.586 144452.024 -94498.297 144887.164 -94498.297 144887.96 -94503.328 145178.941 -94794.309 145190.824 -94800.363 145192.596 -94800.083 145193.61 -94799.239 145196.584 -94794.088 145252.073 -94660.125 145255.403 -94647.7 145274.33 -94503.934 145274.33 -94491.066 145255.403 -94347.3 145252.073 -94334.875 145196.584 -94200.912 145195.704 -94199.388 145188.579 -94194.49 145186.784 -94194.537 145182.207 -94197.425 144893.218 -94486.414 144887.164 -94498.297 144452.024 -94498.297 144452.836 -94496.703 144452.04 -94491.672 144161.059 -94200.691 144149.176 -94194.637 144147.404 -94194.917 144146.39 -94195.761 144143.416 -94200.912 144123.964 -94247.873 144084.228 -94294.399 144024.733 -94308.683 143968.205 -94285.268 143941.036 -94247.873 143921.584 -94200.912 143920.704 -94199.388 143913.579 -94194.49 143911.784 -94194.537 143907.207 -94197.425 143618.218 -94486.414 143612.164 -94498.297 143177.024 -94498.297 143177.836 -94496.703 143177.04 -94491.672 142886.059 -94200.691 142874.176 -94194.637 142872.404 -94194.917 142871.39 -94195.761 142868.416 -94200.912 142848.964 -94247.873 142809.228 -94294.399 142749.733 -94308.683 142693.205 -94285.268 142666.036 -94247.873 142646.584 -94200.912 142645.704 -94199.388 142638.579 -94194.49 142636.784 -94194.537 142632.207 -94197.425 142343.218 -94486.414 142337.164 -94498.297 141902.024 -94498.297 141902.836 -94496.703 141902.04 -94491.672 141611.059 -94200.691 141599.176 -94194.637 141597.404 -94194.917 141596.39 -94195.761 141593.416 -94200.912 141537.927 -94334.875 141534.597 -94347.3 141515.67 -94491.066 141515.67 -94503.934 128735.955 -94503.934 128739.407 -94493.309 128788.907 -94457.345 128819.5 -94452.5 129322.116 -94452.5 129435.802 -94437.533 129444.187 -94434.06 129472.138 -94422.482 129577.259 -94378.939 129698.731 -94285.731 129791.939 -94164.259 129850.533 -94022.802 129858.298 -93963.823 131904.391 -93963.823 131905.306 -93970.82 131905.306 -93970.821 131907.307 -93986.124 131922.98 -94105.979 131925.821 -94112.435 131925.821 -94112.436 131964.752 -94200.912 131980.72 -94237.203 132021.123 -94285.268 132068.431 -94341.549 132068.434 -94341.551 132072.97 -94346.948 132078.841 -94350.856 132078.842 -94350.857 132091.143 -94359.045 132192.313 -94426.39 132274.534 -94452.077 132322.425 -94467.039 132322.426 -94467.039 132329.157 -94469.142 132400.828 -94470.456 132465.445 -94471.641 132465.447 -94471.641 132472.499 -94471.77 132479.302 -94469.915 132479.304 -94469.915 132554.503 -94449.413 132610.817 -94434.06 132732.991 -94359.045 132740.403 -94350.857 132824.468 -94257.982 132829.2 -94252.754 132891.71 -94123.733 132895.875 -94098.982 132914.862 -93986.124 132914.862 -93986.12 132915.496 -93982.354 132915.538 -93978.921 141816.99 -93978.921 141817.037 -93980.716 141819.925 -93985.293 142108.914 -94274.282 142120.797 -94280.336 142125.828 -94279.54 142416.809 -93988.559 142421.719 -93978.921 143091.99 -93978.921 143092.037 -93980.716 143094.925 -93985.293 143383.914 -94274.282 143395.797 -94280.336 143400.828 -94279.54 143691.809 -93988.559 143696.719 -93978.921 144366.99 -93978.921 144367.037 -93980.716 144369.925 -93985.293 144658.914 -94274.282 144670.797 -94280.336 144675.828 -94279.54 144966.809 -93988.559 144972.863 -93976.676 144972.582 -93974.902 144971.741 -93973.89 144966.591 -93970.916 144919.628 -93951.464 144873.102 -93911.728 144858.818 -93852.233 144882.233 -93795.705 144919.628 -93768.536 144966.591 -93749.084 144968.115 -93748.203 144973.01 -93741.081 144972.962 -93739.282 144970.077 -93734.709 144681.086 -93445.718 144669.203 -93439.664 144664.172 -93440.46 144373.191 -93731.441 144367.137 -93743.324 144367.418 -93745.098 144368.259 -93746.11 144373.409 -93749.083 144420.373 -93768.536 144466.899 -93808.272 144481.183 -93867.767 144457.769 -93924.295 144420.373 -93951.464 144373.412 -93970.916 144371.888 -93971.796 144366.99 -93978.921 143696.719 -93978.921 143697.863 -93976.676 143697.582 -93974.902 143696.741 -93973.89 143691.591 -93970.916 143644.628 -93951.464 143598.102 -93911.728 143583.818 -93852.233 143607.233 -93795.705 143644.628 -93768.536 143691.591 -93749.084 143693.115 -93748.203 143698.01 -93741.081 143697.962 -93739.282 143695.077 -93734.709 143406.086 -93445.718 143394.203 -93439.664 143389.172 -93440.46 143098.191 -93731.441 143092.137 -93743.324 143092.418 -93745.098 143093.259 -93746.11 143098.409 -93749.083 143145.373 -93768.536 143191.899 -93808.272 143206.183 -93867.767 143182.769 -93924.295 143145.373 -93951.464 143098.412 -93970.916 143096.888 -93971.796 143091.99 -93978.921 142421.719 -93978.921 142422.863 -93976.676 142422.582 -93974.902 142421.741 -93973.89 142416.591 -93970.916 142369.628 -93951.464 142323.102 -93911.728 142308.818 -93852.233 142332.233 -93795.705 142369.628 -93768.536 142416.591 -93749.084 142418.115 -93748.203 142423.01 -93741.081 142422.962 -93739.282 142420.077 -93734.709 142131.086 -93445.718 142119.203 -93439.664 142114.172 -93440.46 141823.191 -93731.441 141817.137 -93743.324 141817.418 -93745.098 141818.259 -93746.11 141823.409 -93749.083 141870.373 -93768.536 141916.899 -93808.272 141931.183 -93867.767 141907.769 -93924.295 141870.373 -93951.464 141823.412 -93970.916 141821.888 -93971.796 141816.99 -93978.921 132915.538 -93978.921 132915.647 -93970 132895.323 -93828.082 132835.984 -93697.572 132742.4 -93588.963 132730.653 -93581.349 132692.107 -93533.833 132685.5 -93498.274 132685.5 -93228.934 141515.67 -93228.934 141534.597 -93372.7 141537.927 -93385.125 141593.416 -93519.088 141594.296 -93520.612 141601.421 -93525.51 141603.216 -93525.463 141607.793 -93522.575 141896.782 -93233.586 141902.024 -93223.297 142337.164 -93223.297 142337.96 -93228.328 142628.941 -93519.309 142640.824 -93525.363 142642.596 -93525.083 142643.61 -93524.239 142646.584 -93519.088 142666.036 -93472.127 142705.772 -93425.601 142765.267 -93411.317 142821.795 -93434.732 142848.964 -93472.127 142868.416 -93519.088 142869.296 -93520.612 142876.421 -93525.51 142878.216 -93525.463 142882.793 -93522.575 143171.782 -93233.586 143177.836 -93221.703 143177.04 -93216.672 142886.059 -92925.691 142874.176 -92919.637 142872.404 -92919.917 142871.39 -92920.761 142868.416 -92925.912 142848.964 -92972.873 142809.228 -93019.399 142749.733 -93033.683 142693.205 -93010.268 142666.036 -92972.873 142646.584 -92925.912 142645.704 -92924.388 142638.579 -92919.49 142636.784 -92919.537 142632.207 -92922.425 142343.218 -93211.414 142337.164 -93223.297 141902.024 -93223.297 141902.836 -93221.703 141902.04 -93216.672 141611.059 -92925.691 141599.176 -92919.637 141597.404 -92919.917 141596.39 -92920.761 141593.416 -92925.912 141537.927 -93059.875 141534.597 -93072.3 141515.67 -93216.066 141515.67 -93228.934 132685.5 -93228.934 132685.5 -92703.921 141816.99 -92703.921 141817.037 -92705.716 141819.925 -92710.293 142108.914 -92999.282 142120.797 -93005.336 142125.828 -93004.54 142416.809 -92713.559 142422.863 -92701.676 142422.582 -92699.902 142421.741 -92698.89 142416.591 -92695.916 142282.625 -92640.427 142270.2 -92637.097 142126.434 -92618.17 142113.566 -92618.17 141969.8 -92637.097 141957.375 -92640.427 141823.412 -92695.916 141821.888 -92696.796 141816.99 -92703.921 132685.5 -92703.921 132685.5 -92308.85 132704.407 -92250.659 132732.698 -92224.485 132822.991 -92169.045 132831.938 -92159.161 132914.468 -92067.982 132919.2 -92062.754 132981.71 -91933.733 132985.875 -91908.982 133004.862 -91796.124 133004.862 -91796.12 133005.496 -91792.354 133005.647 -91780 132985.323 -91638.082 132947.526 -91554.951 132928.905 -91513.996 132928.904 -91513.995 132925.984 -91507.572 132845.714 -91414.414 132837.005 -91404.307 132837.004 -91404.306 132832.4 -91398.963 132712.095 -91320.985 132574.739 -91279.907 132491.497 -91279.398 132438.427 -91279.074 132438.426 -91279.074 132431.376 -91279.031 132424.599 -91280.968 132424.598 -91280.968 132300.309 -91316.49 132300.307 -91316.491 132293.529 -91318.428 132172.28 -91394.93 132167.613 -91400.214 132167.611 -91400.216 132082.044 -91497.103 132082.042 -91497.105 132077.377 -91502.388 132074.381 -91508.77 132074.38 -91508.771 132063.166 -91532.655 132016.447 -91632.163 131994.391 -91773.823 131995.306 -91780.82 131995.306 -91780.821 132010.872 -91899.855 132012.98 -91915.979 132015.821 -91922.435 132015.821 -91922.436 132060.646 -92024.307 132070.72 -92047.203 132099.032 -92080.884 132111.283 -92095.459 132134.253 -92152.169 132134.5 -92159.161 132134.5 -93497.388 132115.593 -93555.579 132093.41 -93576.354 132093.616 -93576.596 132088.525 -93580.928 132088.325 -93581.116 132082.28 -93584.93 132077.609 -93590.219 131992.044 -93687.103 131992.042 -93687.105 131987.377 -93692.388 131926.447 -93822.163 131925.362 -93829.132 131925.361 -93829.135 131913.413 -93905.875 131904.391 -93963.823 129858.298 -93963.823 129865.5 -93909.116 129865.5 -93070.884 129850.533 -92957.198 129791.939 -92815.741 129698.731 -92694.269 129577.259 -92601.061 129435.802 -92542.467 129322.116 -92527.5 128819.5 -92527.5 128761.309 -92508.593 128725.345 -92459.093 128720.5 -92428.5 128720.5 -92351.5 128739.407 -92293.309 128788.907 -92257.345 128819.5 -92252.5 129322.116 -92252.5 129435.802 -92237.533 129577.259 -92178.939 129698.731 -92085.731 129791.939 -91964.259 129850.533 -91822.802 129865.5 -91709.116 129865.5 -90870.884 129850.533 -90757.198 129791.939 -90615.741 129698.731 -90494.269 129577.259 -90401.061 129435.802 -90342.467 129322.116 -90327.5 128819.5 -90327.5 128761.309 -90308.593 128725.345 -90259.093 128720.5 -90228.5 128720.5 -90151.5 128739.407 -90093.309 128788.907 -90057.345 128819.5 -90052.5 129322.116 -90052.5 129435.802 -90037.533 129577.259 -89978.939 129698.731 -89885.731 129789.033 -89768.046 142692.324 -89768.046 142693.239 -89775.043 142693.239 -89775.044 142694.747 -89786.577 142710.913 -89910.202 142713.754 -89916.658 142713.754 -89916.659 142742.251 -89981.422 142768.653 -90041.426 142774.214 -90048.042 142774.216 -90048.044 142774.711 -90049.267 142776.918 -90052.812 142776.302 -90053.195 142797.186 -90104.754 142797.433 -90111.746 142797.433 -91376.366 142804.888 -91399.308 142808.514 -91414.414 142812.287 -91438.237 142823.238 -91459.73 142829.181 -91474.076 142836.637 -91497.023 142844.302 -91507.572 142850.816 -91516.538 142858.931 -91529.779 142869.883 -91551.275 142892.446 -91573.838 142892.449 -91573.842 143765.668 -92447.061 143793.828 -92504.228 143797.98 -92535.979 143800.819 -92542.431 143800.82 -92542.435 143808.441 -92559.754 143814.572 -92620.632 143783.749 -92673.486 143727.746 -92698.129 143679.941 -92691.091 143557.625 -92640.427 143545.2 -92637.097 143401.434 -92618.17 143388.566 -92618.17 143244.8 -92637.097 143232.375 -92640.427 143098.412 -92695.916 143096.888 -92696.796 143091.99 -92703.921 143092.037 -92705.716 143094.925 -92710.293 143903.941 -93519.309 143915.824 -93525.363 143917.596 -93525.083 143918.61 -93524.239 143921.584 -93519.088 143941.036 -93472.127 143980.772 -93425.601 144040.267 -93411.317 144096.795 -93434.732 144123.964 -93472.127 144143.416 -93519.088 144144.296 -93520.612 144151.421 -93525.51 144153.216 -93525.463 144157.793 -93522.575 144457.071 -93223.297 144887.164 -93223.297 144887.96 -93228.328 145178.941 -93519.309 145190.824 -93525.363 145192.596 -93525.083 145193.61 -93524.239 145196.584 -93519.088 145252.073 -93385.125 145255.403 -93372.7 145274.33 -93228.934 145274.33 -93216.066 145255.403 -93072.3 145252.073 -93059.875 145196.584 -92925.912 145195.704 -92924.388 145188.579 -92919.49 145186.784 -92919.537 145182.207 -92922.425 144893.218 -93211.414 144887.164 -93223.297 144457.071 -93223.297 144966.809 -92713.559 144972.863 -92701.676 144972.582 -92699.902 144971.741 -92698.89 144966.591 -92695.917 144830.189 -92639.418 144783.663 -92599.682 144769.379 -92540.187 144770.446 -92531.529 144789.862 -92416.124 144789.862 -92416.12 144790.496 -92412.354 144790.647 -92400 144770.323 -92258.082 144710.984 -92127.572 144641.733 -92047.203 144622.005 -92024.307 144622.004 -92024.306 144617.4 -92018.963 144497.095 -91940.985 144490.337 -91938.964 144490.335 -91938.963 144371.657 -91903.471 144330.019 -91878.626 143627.429 -91176.036 143599.652 -91121.519 143598.433 -91106.032 143598.433 -90113.181 143614.843 -90059.507 143617.133 -90056.977 143679.643 -89927.956 143683.808 -89903.205 143702.795 -89790.347 143702.795 -89790.343 143703.429 -89786.577 143703.58 -89774.223 143683.256 -89632.305 143661.476 -89584.403 143626.838 -89508.219 143626.837 -89508.218 143623.917 -89501.795 143530.333 -89393.186 143410.028 -89315.208 143272.672 -89274.13 143189.43 -89273.621 143136.36 -89273.297 143136.359 -89273.297 143129.309 -89273.254 143122.532 -89275.191 143122.531 -89275.191 142998.242 -89310.713 142998.24 -89310.714 142991.462 -89312.651 142870.213 -89389.153 142865.546 -89394.437 142865.544 -89394.439 142779.977 -89491.326 142779.975 -89491.328 142775.31 -89496.611 142772.314 -89502.993 142772.313 -89502.994 142769.86 -89508.219 142714.38 -89626.386 142692.324 -89768.046 129789.033 -89768.046 129791.939 -89764.259 129850.533 -89622.802 129865.5 -89509.116 129865.5 -88670.884 129850.533 -88557.198 129791.939 -88415.741 129698.731 -88294.269 129577.259 -88201.061 129435.802 -88142.467 129322.116 -88127.5 128819.5 -88127.5 128761.309 -88108.593 128725.345 -88059.093 128720.5 -88028.5 128720.5 -86903.823 133239.391 -86903.823 133240.306 -86910.82 133240.306 -86910.821 133241.814 -86922.354 133257.98 -87045.979 133260.821 -87052.435 133260.821 -87052.436 133268.586 -87070.082 133315.72 -87177.203 133344.181 -87211.061 133403.431 -87281.549 133403.434 -87281.551 133407.97 -87286.948 133413.841 -87290.856 133413.842 -87290.857 133426.143 -87299.045 133527.313 -87366.39 133627.92 -87397.821 133657.425 -87407.039 133657.426 -87407.039 133664.157 -87409.142 133735.828 -87410.456 133800.445 -87411.641 133800.447 -87411.641 133807.499 -87411.77 133814.302 -87409.915 133814.304 -87409.915 133889.503 -87389.413 133945.817 -87374.06 134067.991 -87299.045 134075.403 -87290.857 134159.468 -87197.982 134164.2 -87192.754 134226.71 -87063.733 134230.875 -87038.982 134249.862 -86926.124 134249.862 -86926.12 134250.496 -86922.354 134250.647 -86910 134243.132 -86857.526 134253.599 -86797.244 134271.128 -86773.488 134415.12 -86629.496 134469.637 -86601.719 134485.124 -86600.5 135066.582 -86600.5 135124.773 -86619.407 135142.365 -86635.798 135197.97 -86701.948 135203.841 -86705.856 135203.842 -86705.857 135216.143 -86714.045 135317.313 -86781.39 135404.102 -86808.504 135447.425 -86822.039 135447.426 -86822.039 135454.157 -86824.142 135525.828 -86825.456 135590.445 -86826.641 135590.447 -86826.641 135597.499 -86826.77 135604.302 -86824.915 135604.304 -86824.915 135679.503 -86804.413 135735.817 -86789.06 135857.991 -86714.045 135865.403 -86705.857 135949.468 -86612.982 135954.2 -86607.754 136016.71 -86478.733 136025.521 -86426.366 136039.862 -86341.124 136039.862 -86341.12 136040.496 -86337.354 136040.647 -86325 136020.323 -86183.082 135987.552 -86111.006 135963.905 -86058.996 135963.904 -86058.995 135960.984 -86052.572 135867.4 -85943.963 135747.095 -85865.985 135609.739 -85824.907 135526.497 -85824.398 135473.427 -85824.074 135473.426 -85824.074 135466.376 -85824.031 135459.599 -85825.968 135459.598 -85825.968 135335.309 -85861.49 135335.307 -85861.491 135328.529 -85863.428 135207.28 -85939.93 135202.613 -85945.214 135202.611 -85945.216 135140.068 -86016.034 135087.376 -86047.134 135065.864 -86049.5 134850.765 -86049.5 134792.574 -86030.593 134756.61 -85981.093 134756.61 -85919.907 134761.671 -85907.334 134813.634 -85800.082 134816.71 -85793.733 134820.875 -85768.982 134839.862 -85656.124 134839.862 -85656.12 134840.496 -85652.354 134840.647 -85640 134833.132 -85587.526 134843.599 -85527.244 134861.128 -85503.488 134998.196 -85366.42 135052.713 -85338.643 135113.145 -85348.214 135143.981 -85372.721 135157.662 -85388.996 135193.431 -85431.549 135193.434 -85431.551 135197.97 -85436.948 135203.841 -85440.856 135203.842 -85440.857 135216.143 -85449.045 135317.313 -85516.39 135417.92 -85547.821 135447.425 -85557.039 135447.426 -85557.039 135454.157 -85559.142 135525.828 -85560.456 135590.445 -85561.641 135590.447 -85561.641 135597.499 -85561.77 135604.302 -85559.915 135604.304 -85559.915 135724.138 -85527.244 135735.817 -85524.06 135857.991 -85449.045 135865.403 -85440.857 135949.468 -85347.982 135954.2 -85342.754 136016.71 -85213.733 136019.051 -85199.823 136039.862 -85076.124 136039.862 -85076.12 136040.496 -85072.354 136040.647 -85060 136020.323 -84918.082 135986.353 -84843.368 135963.905 -84793.996 135963.904 -84793.995 135960.984 -84787.572 135900.582 -84717.472 135872.005 -84684.307 135872.002 -84684.304 135867.4 -84678.963 135747.095 -84600.985 135609.739 -84559.907 135526.497 -84559.398 135473.427 -84559.074 135473.426 -84559.074 135466.376 -84559.031 135459.599 -84560.968 135459.598 -84560.968 135335.309 -84596.49 135335.307 -84596.491 135328.529 -84598.428 135207.28 -84674.93 135202.613 -84680.214 135202.611 -84680.216 135191.693 -84692.579 135140.872 -84750.124 135140.068 -84751.034 135087.376 -84782.134 135065.864 -84784.5 134951.884 -84784.5 134932.571 -84782.598 134915 -84779.103 134887.868 -84784.5 134887.867 -84784.5 134807.505 -84800.485 134783.343 -84816.63 134783.341 -84816.631 134772.519 -84823.862 134739.378 -84846.006 134739.377 -84846.007 134716.376 -84861.376 134710.957 -84869.486 134706.426 -84876.267 134694.115 -84891.269 134474.507 -85110.877 134419.99 -85138.654 134403.898 -85139.871 134273.427 -85139.074 134273.426 -85139.074 134266.376 -85139.031 134259.599 -85140.968 134259.598 -85140.968 134135.309 -85176.49 134135.307 -85176.491 134128.529 -85178.428 134007.28 -85254.93 134002.613 -85260.214 134002.611 -85260.216 133917.044 -85357.103 133917.042 -85357.105 133912.377 -85362.388 133909.381 -85368.77 133909.38 -85368.771 133899.884 -85388.996 133851.447 -85492.163 133850.362 -85499.132 133850.361 -85499.135 133840.609 -85561.77 133829.391 -85633.823 133830.306 -85640.82 133830.306 -85640.821 133833.276 -85663.533 133847.98 -85775.979 133850.821 -85782.435 133850.821 -85782.436 133887.584 -85865.985 133905.72 -85907.203 133936.62 -85943.963 133993.431 -86011.549 133993.434 -86011.551 133997.97 -86016.948 134003.841 -86020.856 134003.842 -86020.857 134047.743 -86050.08 134085.706 -86098.064 134088.215 -86159.198 134062.889 -86202.495 133884.507 -86380.877 133829.99 -86408.654 133813.898 -86409.871 133683.427 -86409.074 133683.426 -86409.074 133676.376 -86409.031 133669.599 -86410.968 133669.598 -86410.968 133545.309 -86446.49 133545.307 -86446.491 133538.529 -86448.428 133417.28 -86524.93 133412.613 -86530.214 133412.611 -86530.216 133327.044 -86627.103 133327.042 -86627.105 133322.377 -86632.388 133261.447 -86762.163 133260.362 -86769.132 133260.361 -86769.135 133251.797 -86824.142 133239.391 -86903.823 128720.5 -86903.823 128720.5 -85053.823 130764.391 -85053.823 130765.306 -85060.82 130765.306 -85060.821 130780.685 -85178.428 130782.98 -85195.979 130785.821 -85202.435 130785.821 -85202.436 130796.076 -85225.741 130840.72 -85327.203 130878.983 -85372.722 130928.431 -85431.549 130928.434 -85431.551 130932.97 -85436.948 130938.841 -85440.856 130938.842 -85440.857 130951.143 -85449.045 131052.313 -85516.39 131152.92 -85547.821 131182.425 -85557.039 131182.426 -85557.039 131189.157 -85559.142 131260.828 -85560.456 131325.445 -85561.641 131325.447 -85561.641 131332.499 -85561.77 131339.302 -85559.915 131339.304 -85559.915 131459.138 -85527.244 131470.817 -85524.06 131592.991 -85449.045 131597.726 -85443.814 131666.291 -85368.064 131719.359 -85337.61 131739.689 -85335.5 132314.876 -85335.5 132373.067 -85354.407 132384.88 -85364.496 132538.633 -85518.249 132566.41 -85572.766 132566.45 -85603.483 132560.765 -85640 132559.391 -85648.823 132560.306 -85655.82 132560.306 -85655.821 132576.863 -85782.436 132577.98 -85790.979 132580.821 -85797.435 132580.821 -85797.436 132609.006 -85861.49 132635.72 -85922.203 132681.845 -85977.076 132723.431 -86026.549 132723.434 -86026.551 132727.97 -86031.948 132733.841 -86035.856 132733.842 -86035.857 132751.165 -86047.388 132847.313 -86111.39 132947.92 -86142.821 132977.425 -86152.039 132977.426 -86152.039 132984.157 -86154.142 133055.828 -86155.456 133120.445 -86156.641 133120.447 -86156.641 133127.499 -86156.77 133134.302 -86154.915 133134.304 -86154.915 133238.982 -86126.376 133265.817 -86119.06 133387.991 -86044.045 133395.403 -86035.857 133479.468 -85942.982 133484.2 -85937.754 133546.71 -85808.733 133548.166 -85800.082 133569.862 -85671.124 133569.862 -85671.12 133570.496 -85667.354 133570.647 -85655 133550.323 -85513.082 133518.829 -85443.814 133493.905 -85388.996 133493.904 -85388.995 133490.984 -85382.572 133397.4 -85273.963 133277.095 -85195.985 133139.739 -85154.907 132996.376 -85154.031 132996.393 -85151.241 132948.155 -85142.562 132924.933 -85125.317 132738.427 -84938.811 132710.65 -84884.294 132720.221 -84823.862 132756.63 -84784.441 132791.978 -84762.737 132797.991 -84759.045 132874.128 -84674.93 132889.468 -84657.982 132894.2 -84652.754 132956.71 -84523.733 132960.875 -84498.982 132979.862 -84386.124 132979.862 -84386.12 132980.496 -84382.354 132980.647 -84370 132960.323 -84228.082 132927.735 -84156.409 132903.905 -84103.996 132903.904 -84103.995 132900.984 -84097.572 132807.4 -83988.963 132687.095 -83910.985 132549.739 -83869.907 132406.376 -83869.031 132406.393 -83866.241 132358.155 -83857.562 132334.933 -83840.317 132234.472 -83739.856 138285 -83739.856 138285.309 -83745.385 138299.327 -83870.355 138301.766 -83881.092 138357.149 -84040.129 138361.901 -84050.048 138451.146 -84192.87 138457.976 -84201.487 138576.645 -84320.988 138585.221 -84327.882 138727.41 -84418.119 138737.296 -84422.941 138895.952 -84479.436 138906.654 -84481.946 138919.431 -84483.469 138932.516 -84480.879 138933.954 -84479.325 138935 -84474.569 138935 -84470.506 139235 -84470.506 139239.122 -84483.191 139241.137 -84484.656 139245.348 -84485.098 139252.373 -84484.36 139263.114 -84481.998 139422.536 -84427.727 139432.496 -84423.04 139575.931 -84334.799 139584.599 -84328.027 139704.925 -84210.194 139711.876 -84201.671 139803.108 -84060.109 139807.995 -84050.263 139865.596 -83892.004 139868.183 -83881.31 139884.61 -83751.275 139885 -83745.087 139885 -83739.856 146925 -83739.856 146925.309 -83745.385 146939.327 -83870.355 146941.766 -83881.092 146997.149 -84040.129 147001.901 -84050.048 147091.146 -84192.87 147097.976 -84201.487 147216.645 -84320.988 147225.221 -84327.882 147367.41 -84418.119 147377.296 -84422.941 147535.952 -84479.436 147546.654 -84481.946 147559.431 -84483.469 147572.516 -84480.879 147573.954 -84479.325 147575 -84474.569 147575 -84470.506 147875 -84470.506 147879.122 -84483.191 147881.137 -84484.656 147885.348 -84485.098 147892.373 -84484.36 147903.114 -84481.998 148062.536 -84427.727 148072.496 -84423.04 148215.931 -84334.799 148224.599 -84328.027 148344.925 -84210.194 148351.876 -84201.671 148443.108 -84060.109 148447.995 -84050.263 148505.596 -83892.004 148508.183 -83881.31 148524.61 -83751.275 148525 -83745.087 148525 -83313.18 148520.878 -83300.495 148516.757 -83297.5 147890.68 -83297.5 147877.995 -83301.622 147875 -83305.743 147875 -84470.506 147575 -84470.506 147575 -83313.18 147570.878 -83300.495 147566.757 -83297.5 146940.68 -83297.5 146927.995 -83301.622 146925 -83305.743 146925 -83739.856 139885 -83739.856 139885 -83313.18 139880.878 -83300.495 139876.757 -83297.5 139250.68 -83297.5 139237.995 -83301.622 139235 -83305.743 139235 -84470.506 138935 -84470.506 138935 -83313.18 138930.878 -83300.495 138926.757 -83297.5 138300.68 -83297.5 138287.995 -83301.622 138285 -83305.743 138285 -83739.856 132234.472 -83739.856 132115.885 -83621.269 132103.574 -83606.267 132099.043 -83599.486 132093.624 -83591.376 132070.623 -83576.007 132070.622 -83576.006 132027.976 -83547.511 132027.974 -83547.51 132002.495 -83530.485 131922.133 -83514.5 131922.132 -83514.5 131895 -83509.103 131877.429 -83512.598 131858.116 -83514.5 131738.715 -83514.5 131680.524 -83495.593 131663.719 -83480.127 131602.4 -83408.963 131482.095 -83330.985 131344.739 -83289.907 131261.497 -83289.398 131208.427 -83289.074 131208.426 -83289.074 131201.376 -83289.031 131194.599 -83290.968 131194.598 -83290.968 131070.309 -83326.49 131070.307 -83326.491 131063.529 -83328.428 130942.28 -83404.93 130937.613 -83410.214 130937.611 -83410.216 130852.044 -83507.103 130852.042 -83507.105 130847.377 -83512.388 130786.447 -83642.163 130764.391 -83783.823 130782.98 -83925.979 130785.821 -83932.435 130785.821 -83932.436 130837.572 -84050.048 130840.72 -84057.203 130886.845 -84112.076 130928.431 -84161.549 130928.434 -84161.551 130932.97 -84166.948 130938.841 -84170.856 130938.842 -84170.857 130951.143 -84179.045 131052.313 -84246.39 131124.829 -84269.045 131182.425 -84287.039 131182.426 -84287.039 131189.157 -84289.142 131260.828 -84290.456 131325.445 -84291.641 131325.447 -84291.641 131332.499 -84291.77 131339.302 -84289.915 131339.304 -84289.915 131445.886 -84260.857 131470.817 -84254.06 131592.991 -84179.045 131597.726 -84173.814 131666.291 -84098.064 131719.359 -84067.61 131739.689 -84065.5 131739.876 -84065.5 131798.067 -84084.407 131809.88 -84094.496 131948.633 -84233.249 131976.41 -84287.766 131976.45 -84318.483 131972.468 -84344.06 131969.391 -84363.823 131970.306 -84370.82 131970.306 -84370.821 131985.966 -84490.578 131987.98 -84505.979 131990.821 -84512.435 131990.821 -84512.436 132011.323 -84559.031 132044.969 -84635.496 132045.72 -84637.203 132045.424 -84637.333 132059.095 -84692.579 132036.075 -84749.269 131984.13 -84781.601 131960.348 -84784.5 131738.715 -84784.5 131680.524 -84765.593 131663.719 -84750.127 131602.4 -84678.963 131482.095 -84600.985 131344.739 -84559.907 131261.497 -84559.398 131208.427 -84559.074 131208.426 -84559.074 131201.376 -84559.031 131194.599 -84560.968 131194.598 -84560.968 131070.309 -84596.49 131070.307 -84596.491 131063.529 -84598.428 130942.28 -84674.93 130937.613 -84680.214 130937.611 -84680.216 130852.044 -84777.103 130852.042 -84777.105 130847.377 -84782.388 130786.447 -84912.163 130785.362 -84919.132 130785.361 -84919.135 130779.785 -84954.951 130764.391 -85053.823 128720.5 -85053.823 128720.5 -82981.82 138285 -82981.82 138289.122 -82994.505 138293.243 -82997.5 138919.32 -82997.5 138932.005 -82993.378 138935 -82989.257 138935 -82981.82 139235 -82981.82 139239.122 -82994.505 139243.243 -82997.5 139869.32 -82997.5 139882.005 -82993.378 139899.062 -82969.902 139901.828 -82971.912 139909.235 -82957.355 139963.737 -82929.547 140024.174 -82939.086 140057.819 -82967.052 140081.183 -82997.5 140104.549 -83027.951 140109.698 -83031.902 140219.621 -83116.25 140219.625 -83116.252 140224.767 -83120.198 140230.756 -83122.679 140230.76 -83122.681 140323.756 -83161.201 140364.764 -83178.187 140477.28 -83193 140552.72 -83193 140665.236 -83178.187 140706.244 -83161.201 140799.24 -83122.681 140799.244 -83122.679 140805.233 -83120.198 140810.375 -83116.252 140810.379 -83116.25 140920.302 -83031.902 140925.451 -83027.951 140948.817 -82997.5 141013.75 -82912.879 141013.752 -82912.875 141017.698 -82907.733 141020.179 -82901.744 141020.181 -82901.74 141073.203 -82773.733 141075.687 -82767.736 141095.466 -82617.5 145714.534 -82617.5 145734.313 -82767.736 145736.797 -82773.733 145789.819 -82901.74 145789.821 -82901.744 145792.302 -82907.733 145796.248 -82912.875 145796.25 -82912.879 145861.183 -82997.5 145884.549 -83027.951 145889.698 -83031.902 145999.621 -83116.25 145999.625 -83116.252 146004.767 -83120.198 146010.756 -83122.679 146010.76 -83122.681 146103.756 -83161.201 146144.764 -83178.187 146257.28 -83193 146332.72 -83193 146445.236 -83178.187 146486.244 -83161.201 146579.24 -83122.681 146579.244 -83122.679 146585.233 -83120.198 146590.375 -83116.252 146590.379 -83116.25 146700.302 -83031.902 146705.451 -83027.951 146728.817 -82997.5 146755.67 -82962.505 146806.095 -82927.85 146867.259 -82929.452 146915.801 -82966.699 146928.367 -82992.182 146929.122 -82994.506 146933.243 -82997.5 147559.32 -82997.5 147572.005 -82993.378 147575 -82989.257 147575 -81824.494 147570.878 -81811.809 147568.863 -81810.344 147564.652 -81809.902 147557.627 -81810.64 147546.886 -81813.002 147387.464 -81867.273 147377.504 -81871.96 147234.069 -81960.201 147225.401 -81966.973 147105.075 -82084.806 147098.124 -82093.329 147006.892 -82234.891 147002.005 -82244.737 146976.819 -82313.935 146939.149 -82362.15 146880.334 -82379.015 146822.839 -82358.088 146799.201 -82330.896 146797.698 -82327.267 146705.451 -82207.049 146669.429 -82179.408 146590.379 -82118.75 146590.375 -82118.748 146585.233 -82114.802 146579.244 -82112.321 146579.24 -82112.319 146451.233 -82059.297 146445.236 -82056.813 146332.72 -82042 146257.28 -82042 146144.764 -82056.813 146138.767 -82059.297 146010.76 -82112.319 146010.756 -82112.321 146004.767 -82114.802 145999.625 -82118.748 145999.621 -82118.75 145920.571 -82179.408 145884.549 -82207.049 145880.598 -82212.198 145796.25 -82322.121 145796.248 -82322.125 145792.302 -82327.267 145789.821 -82333.256 145789.819 -82333.26 145774.499 -82370.246 145734.313 -82467.264 145714.534 -82617.5 141095.466 -82617.5 141075.687 -82467.264 141035.501 -82370.246 141020.181 -82333.26 141020.179 -82333.256 141017.698 -82327.267 141013.752 -82322.125 141013.75 -82322.121 140929.402 -82212.198 140925.451 -82207.049 140889.429 -82179.408 140810.379 -82118.75 140810.375 -82118.748 140805.233 -82114.802 140799.244 -82112.321 140799.24 -82112.319 140671.233 -82059.297 140665.236 -82056.813 140552.72 -82042 140477.28 -82042 140364.764 -82056.813 140358.767 -82059.297 140230.76 -82112.319 140230.756 -82112.321 140224.767 -82114.802 140219.625 -82118.748 140219.621 -82118.75 140140.571 -82179.408 140104.549 -82207.049 140012.302 -82327.267 140011.074 -82330.231 139966.637 -82370.246 139905.787 -82376.644 139852.797 -82346.054 139832.873 -82312.365 139812.851 -82254.871 139808.099 -82244.952 139718.854 -82102.13 139712.024 -82093.513 139593.355 -81974.012 139584.779 -81967.118 139442.59 -81876.881 139432.704 -81872.059 139274.048 -81815.564 139263.346 -81813.054 139250.569 -81811.531 139237.484 -81814.121 139236.046 -81815.675 139235 -81820.431 139235 -82981.82 138935 -82981.82 138935 -81824.494 138930.878 -81811.809 138928.863 -81810.344 138924.652 -81809.902 138917.627 -81810.64 138906.886 -81813.002 138747.464 -81867.273 138737.504 -81871.96 138594.069 -81960.201 138585.401 -81966.973 138465.075 -82084.806 138458.124 -82093.329 138366.892 -82234.891 138362.005 -82244.737 138304.404 -82402.996 138301.817 -82413.69 138285.39 -82543.725 138285 -82549.913 138285 -82981.82 128720.5 -82981.82 128720.5 -81303.823 147689.391 -81303.823 147690.306 -81310.82 147690.306 -81310.821 147699.445 -81380.707 147707.98 -81445.979 147765.72 -81577.203 147857.97 -81686.948 147859.775 -81688.15 147889.425 -81739.095 147883.242 -81799.967 147877.616 -81808.531 147875 -81820.431 147875 -82981.82 147879.122 -82994.505 147883.243 -82997.5 148509.32 -82997.5 148522.005 -82993.378 148525 -82989.257 148525 -82555.144 148524.691 -82549.615 148510.673 -82424.645 148508.234 -82413.908 148454.994 -82261.025 148453.712 -82199.853 148488.631 -82149.611 148546.413 -82129.489 148604.987 -82147.173 148618.491 -82158.463 149295.504 -82835.476 149323.281 -82889.993 149324.5 -82905.48 149324.5 -83427.333 149305.593 -83485.524 149297.061 -83494.737 149297.28 -83494.93 149207.044 -83597.103 149207.042 -83597.105 149202.377 -83602.388 149141.447 -83732.163 149140.362 -83739.132 149140.361 -83739.135 149132.314 -83790.821 149119.391 -83873.823 149120.306 -83880.82 149120.306 -83880.821 149134.447 -83988.963 149137.98 -84015.979 149140.821 -84022.435 149140.821 -84022.436 149171.53 -84092.226 149195.72 -84147.203 149234.107 -84192.87 149283.431 -84251.549 149283.434 -84251.551 149287.97 -84256.948 149293.841 -84260.856 149293.842 -84260.857 149305.778 -84268.802 149407.313 -84336.39 149495.123 -84363.823 149537.425 -84377.039 149537.426 -84377.039 149544.157 -84379.142 149615.828 -84380.456 149680.445 -84381.641 149680.447 -84381.641 149687.499 -84381.77 149694.302 -84379.915 149694.304 -84379.915 149778.915 -84356.847 149825.817 -84344.06 149947.991 -84269.045 149955.403 -84260.857 150039.468 -84167.982 150044.2 -84162.754 150098.701 -84050.263 150103.634 -84040.082 150106.71 -84033.733 150110.875 -84008.982 150129.862 -83896.124 150129.862 -83896.12 150130.496 -83892.354 150130.647 -83880 150110.323 -83738.082 150088.543 -83690.18 150053.905 -83613.996 150053.904 -83613.995 150050.984 -83607.572 149989.229 -83535.902 149962.007 -83504.309 149962.005 -83504.307 149957.4 -83498.963 149957.512 -83498.866 149927.998 -83449.549 149925.5 -83427.449 149925.5 -82793.508 149925.803 -82789.383 149927.425 -82784.658 149925.57 -82735.238 149925.5 -82731.525 149925.5 -82712.052 149924.675 -82707.622 149924.338 -82702.417 149923.569 -82681.926 149923.226 -82672.791 149918.681 -82662.212 149912.317 -82641.263 149911.884 -82638.936 149911.882 -82638.931 149910.209 -82629.947 149896.232 -82607.271 149889.548 -82594.404 149881.795 -82576.358 149881.794 -82576.357 149879.036 -82569.937 149875.022 -82565.051 149870.658 -82560.687 149856.387 -82542.632 149856.264 -82542.433 149851.468 -82534.652 149828.231 -82516.982 149818.161 -82508.19 148726.771 -81416.8 148698.994 -81362.283 148699.148 -81330.366 148699.862 -81326.125 148699.863 -81326.119 148700.496 -81322.354 148700.647 -81310 148680.323 -81168.082 148620.984 -81037.572 148527.4 -80928.963 148407.095 -80850.985 148269.739 -80809.907 148186.497 -80809.398 148133.427 -80809.074 148133.426 -80809.074 148126.376 -80809.031 148119.599 -80810.968 148119.598 -80810.968 147995.309 -80846.49 147995.307 -80846.491 147988.529 -80848.428 147867.28 -80924.93 147862.613 -80930.214 147862.611 -80930.216 147777.044 -81027.103 147777.042 -81027.105 147772.377 -81032.388 147711.447 -81162.163 147689.391 -81303.823 128720.5 -81303.823 128720.5 -79309.856 138285 -79309.856 138285.309 -79315.385 138299.327 -79440.355 138301.766 -79451.092 138357.149 -79610.129 138361.901 -79620.048 138451.146 -79762.87 138457.976 -79771.487 138576.645 -79890.988 138585.221 -79897.882 138727.41 -79988.119 138737.296 -79992.941 138895.952 -80049.436 138906.654 -80051.946 138919.431 -80053.469 138932.516 -80050.879 138933.954 -80049.325 138935 -80044.569 138935 -80040.506 139235 -80040.506 139239.122 -80053.191 139241.137 -80054.656 139245.348 -80055.098 139252.373 -80054.36 139263.114 -80051.998 139422.536 -79997.727 139432.496 -79993.04 139575.931 -79904.799 139584.599 -79898.027 139704.925 -79780.194 139711.876 -79771.671 139803.108 -79630.109 139807.995 -79620.263 139865.596 -79462.004 139868.183 -79451.31 139884.61 -79321.275 139885 -79315.087 139885 -79309.856 146925 -79309.856 146925.309 -79315.385 146939.327 -79440.355 146941.766 -79451.092 146997.149 -79610.129 147001.901 -79620.048 147091.146 -79762.87 147097.976 -79771.487 147216.645 -79890.988 147225.221 -79897.882 147367.41 -79988.119 147377.296 -79992.941 147535.952 -80049.436 147546.654 -80051.946 147559.431 -80053.469 147572.516 -80050.879 147573.954 -80049.325 147575 -80044.569 147575 -80040.506 147875 -80040.506 147879.122 -80053.191 147881.137 -80054.656 147885.348 -80055.098 147892.373 -80054.36 147903.114 -80051.998 148062.536 -79997.727 148072.496 -79993.04 148215.931 -79904.799 148224.599 -79898.027 148344.925 -79780.194 148351.876 -79771.671 148443.108 -79630.109 148447.995 -79620.263 148505.596 -79462.004 148508.183 -79451.31 148524.61 -79321.275 148525 -79315.087 148525 -79133.18 148520.878 -79120.495 148516.757 -79117.5 147890.68 -79117.5 147877.995 -79121.622 147875 -79125.743 147875 -80040.506 147575 -80040.506 147575 -79133.18 147570.878 -79120.495 147566.757 -79117.5 146940.68 -79117.5 146927.995 -79121.622 146925 -79125.743 146925 -79309.856 139885 -79309.856 139885 -79133.18 139880.878 -79120.495 139876.757 -79117.5 139250.68 -79117.5 139237.995 -79121.622 139235 -79125.743 139235 -80040.506 138935 -80040.506 138935 -79133.18 138930.878 -79120.495 138926.757 -79117.5 138300.68 -79117.5 138287.995 -79121.622 138285 -79125.743 138285 -79309.856 128720.5 -79309.856 128720.5 -78554.953 128722.004 -78537.761 128723.632 -78528.528 128725.136 -78520 128723.632 -78511.469 128723.632 -78508.017 128724.851 -78492.53 128732.706 -78442.936 128742.277 -78413.479 128770.579 -78357.932 128788.785 -78332.872 128832.872 -78288.785 128857.932 -78270.579 128913.479 -78242.277 128942.936 -78232.706 128992.53 -78224.851 129008.017 -78223.632 129011.469 -78223.632 129020 -78225.136 129037.764 -78222.004 129054.953 -78220.5 138254.917 -78220.5 138313.108 -78239.407"/></g><g id="fQ8_zNuH0GNOXL0H4lb2_bottom_drill1" transform="scale(25.4,25.4)"><use xlink:href="#I6Gzz4vJ9-Bzt9J_Zvqt_pad-1" x="5129.9" y="-3750"/><use xlink:href="#I6Gzz4vJ9-Bzt9J_Zvqt_pad-1" x="5168.1" y="-3298.8"/><use xlink:href="#I6Gzz4vJ9-Bzt9J_Zvqt_pad-1" x="5168.1" y="-3348.8"/><use xlink:href="#I6Gzz4vJ9-Bzt9J_Zvqt_pad-1" x="5168.1" y="-3398.8"/><use xlink:href="#I6Gzz4vJ9-Bzt9J_Zvqt_pad-1" x="5185.8" y="-3750"/><use xlink:href="#I6Gzz4vJ9-Bzt9J_Zvqt_pad-1" x="5213" y="-3699.6"/><use xlink:href="#I6Gzz4vJ9-Bzt9J_Zvqt_pad-1" x="5215.6" y="-3321.7"/><use xlink:href="#I6Gzz4vJ9-Bzt9J_Zvqt_pad-1" x="5216.5" y="-3613.4"/><use xlink:href="#I6Gzz4vJ9-Bzt9J_Zvqt_pad-1" x="5238.8" y="-3372.2"/><use xlink:href="#I6Gzz4vJ9-Bzt9J_Zvqt_pad-1" x="5265.6" y="-3421.7"/><use xlink:href="#I6Gzz4vJ9-Bzt9J_Zvqt_pad-1" x="5288.8" y="-3371.7"/><use xlink:href="#I6Gzz4vJ9-Bzt9J_Zvqt_pad-1" x="5320.3" y="-3180.7"/><use xlink:href="#I6Gzz4vJ9-Bzt9J_Zvqt_pad-1" x="5336" y="-3348.8"/><use xlink:href="#I6Gzz4vJ9-Bzt9J_Zvqt_pad-1" x="5336" y="-3398.6"/><use xlink:href="#I6Gzz4vJ9-Bzt9J_Zvqt_pad-1" x="5367.7" y="-3710.4"/><use xlink:href="#I6Gzz4vJ9-Bzt9J_Zvqt_pad-1" x="5367.9" y="-3794.9"/><use xlink:href="#I6Gzz4vJ9-Bzt9J_Zvqt_pad-1" x="5378.1" y="-3586.6"/><use xlink:href="#I6Gzz4vJ9-Bzt9J_Zvqt_pad-1" x="5378.5" y="-3759.4"/><use xlink:href="#I6Gzz4vJ9-Bzt9J_Zvqt_pad-1" x="5467.1" y="-3439"/><use xlink:href="#I6Gzz4vJ9-Bzt9J_Zvqt_pad-1" x="5475" y="-3344.5"/><use xlink:href="#I6Gzz4vJ9-Bzt9J_Zvqt_pad-1" x="5513.2" y="-3992.5"/><use xlink:href="#I6Gzz4vJ9-Bzt9J_Zvqt_pad-1" x="5522.2" y="-4073.2"/><use xlink:href="#I6Gzz4vJ9-Bzt9J_Zvqt_pad-1" x="5522.6" y="-4172.4"/><use xlink:href="#I6Gzz4vJ9-Bzt9J_Zvqt_pad-1" x="5536.4" y="-3920.9"/><use xlink:href="#I6Gzz4vJ9-Bzt9J_Zvqt_pad-1" x="5571.9" y="-4058.3"/><use xlink:href="#I6Gzz4vJ9-Bzt9J_Zvqt_pad-1" x="5582.9" y="-3418.5"/><use xlink:href="#I6Gzz4vJ9-Bzt9J_Zvqt_pad-1" x="5620.7" y="-3418.5"/><use xlink:href="#I6Gzz4vJ9-Bzt9J_Zvqt_pad-1" x="5620.7" y="-3972"/><use xlink:href="#I6Gzz4vJ9-Bzt9J_Zvqt_pad-1" x="5637.7" y="-3534.4"/><use xlink:href="#I6Gzz4vJ9-Bzt9J_Zvqt_pad-1" x="5641.1" y="-4136.6"/><use xlink:href="#I6Gzz4vJ9-Bzt9J_Zvqt_pad-1" x="5669.1" y="-3803.1"/><use xlink:href="#I6Gzz4vJ9-Bzt9J_Zvqt_pad-1" x="5677.4" y="-3897.2"/><use xlink:href="#I6Gzz4vJ9-Bzt9J_Zvqt_pad-1" x="5680.5" y="-3637.8"/><use xlink:href="#I6Gzz4vJ9-Bzt9J_Zvqt_pad-1" x="5725" y="-4001.2"/><use xlink:href="#I6Gzz4vJ9-Bzt9J_Zvqt_pad-1" x="5733.7" y="-4028.3"/><use xlink:href="#I6Gzz4vJ9-Bzt9J_Zvqt_pad-1" x="5736.4" y="-3811.4"/><use xlink:href="#I6Gzz4vJ9-Bzt9J_Zvqt_pad-1" x="5761.2" y="-4073.2"/><use xlink:href="#I6Gzz4vJ9-Bzt9J_Zvqt_pad-1" x="5761.6" y="-3441.6"/><use xlink:href="#I6Gzz4vJ9-Bzt9J_Zvqt_pad-1" x="5761.6" y="-4172.4"/><use xlink:href="#I6Gzz4vJ9-Bzt9J_Zvqt_pad-1" x="5778.5" y="-3853.1"/><use xlink:href="#I6Gzz4vJ9-Bzt9J_Zvqt_pad-1" x="5792.7" y="-3889.8"/><use xlink:href="#I6Gzz4vJ9-Bzt9J_Zvqt_pad-1" x="5799.4" y="-3442.8"/><use xlink:href="#I6Gzz4vJ9-Bzt9J_Zvqt_pad-1" x="5816.7" y="-3344.1"/><use xlink:href="#I6Gzz4vJ9-Bzt9J_Zvqt_pad-1" x="5822.6" y="-3805.1"/><use xlink:href="#I6Gzz4vJ9-Bzt9J_Zvqt_pad-1" x="5834.4" y="-3201.2"/><use xlink:href="#I6Gzz4vJ9-Bzt9J_Zvqt_pad-1" x="5840.7" y="-3403.1"/><use xlink:href="#I6Gzz4vJ9-Bzt9J_Zvqt_pad-1" x="5890.7" y="-3302.4"/><use xlink:href="#I6Gzz4vJ9-Bzt9J_Zvqt_pad-1" x="5912.4" y="-3759.5"/><use xlink:href="#I6Gzz4vJ9-Bzt9J_Zvqt_pad-1" x="5939.6" y="-3553.1"/><use xlink:href="#I6Gzz4vJ9-Bzt9J_Zvqt_pad-1" x="5939.6" y="-3590.9"/><use xlink:href="#I6Gzz4vJ9-Bzt9J_Zvqt_pad-1" x="6095.1" y="-3558.3"/><use xlink:href="#I6Gzz4vJ9-Bzt9J_Zvqt_pad-1" x="6145.1" y="-3172"/><use xlink:href="#I6Gzz4vJ9-Bzt9J_Zvqt_pad-1" x="6155.7" y="-3750.2"/><use xlink:href="#I6Gzz4vJ9-Bzt9J_Zvqt_pad-1" x="6156.9" y="-3834.8"/><use xlink:href="#I6Gzz4vJ9-Bzt9J_Zvqt_pad-2" x="5595.3" y="-3670.2"/><use xlink:href="#I6Gzz4vJ9-Bzt9J_Zvqt_pad-2" x="5595.3" y="-3720.4"/><use xlink:href="#I6Gzz4vJ9-Bzt9J_Zvqt_pad-2" x="5595.3" y="-3770.6"/><use xlink:href="#I6Gzz4vJ9-Bzt9J_Zvqt_pad-2" x="5645.5" y="-3670.2"/><use xlink:href="#I6Gzz4vJ9-Bzt9J_Zvqt_pad-2" x="5645.5" y="-3720.4"/><use xlink:href="#I6Gzz4vJ9-Bzt9J_Zvqt_pad-2" x="5645.5" y="-3770.6"/><use xlink:href="#I6Gzz4vJ9-Bzt9J_Zvqt_pad-2" x="5695.7" y="-3670.2"/><use xlink:href="#I6Gzz4vJ9-Bzt9J_Zvqt_pad-2" x="5695.7" y="-3720.4"/><use xlink:href="#I6Gzz4vJ9-Bzt9J_Zvqt_pad-2" x="5695.7" y="-3770.6"/><use xlink:href="#I6Gzz4vJ9-Bzt9J_Zvqt_pad-4" x="5055.7" y="-3507.5"/><use xlink:href="#I6Gzz4vJ9-Bzt9J_Zvqt_pad-4" x="5055.7" y="-3594.1"/><use xlink:href="#I6Gzz4vJ9-Bzt9J_Zvqt_pad-4" x="5055.7" y="-3680.7"/><use xlink:href="#I6Gzz4vJ9-Bzt9J_Zvqt_pad-4" x="5055.7" y="-3767.3"/><use xlink:href="#I6Gzz4vJ9-Bzt9J_Zvqt_pad-4" x="6236.8" y="-3122"/><use xlink:href="#I6Gzz4vJ9-Bzt9J_Zvqt_pad-4" x="6236.8" y="-3208.7"/><use xlink:href="#I6Gzz4vJ9-Bzt9J_Zvqt_pad-4" x="6236.8" y="-3295.3"/><use xlink:href="#I6Gzz4vJ9-Bzt9J_Zvqt_pad-4" x="6236.8" y="-3381.9"/><use xlink:href="#I6Gzz4vJ9-Bzt9J_Zvqt_pad-4" x="6236.8" y="-3468.5"/><use xlink:href="#I6Gzz4vJ9-Bzt9J_Zvqt_pad-4" x="6236.8" y="-3555.1"/><use xlink:href="#I6Gzz4vJ9-Bzt9J_Zvqt_pad-4" x="6236.8" y="-3641.7"/><path d="M 5475.8 -3120.8 5475.8 -3097.1 M 5475.8 -3295.2 5475.8 -3251.9 M 5815.9 -3120.8 5815.9 -3097.1 M 5815.9 -3295.2 5815.9 -3251.9" fill="none" stroke-width="23.6"/></g><g id="fQ8_zNuH0GNOXL0H4lb2_bottom_drill2" transform="scale(25.4,25.4)"><use xlink:href="#S2GJvavu8G-Y01BL7Ixv_pad-1" x="5532.1" y="-3252.7"/><use xlink:href="#S2GJvavu8G-Y01BL7Ixv_pad-1" x="5759.6" y="-3252.7"/></g><clipPath id="fQ8_zNuH0GNOXL0H4lb2_bottom_outline"><path d="M 143420 -106630 139520 -106630 A 600 600 0 0 0 138920 -106030 L 138920 -98520 A 600 600 0 0 1 138320 -97920 L 129020 -97920 A 600 600 0 0 0 128420 -97320 L 128420 -78520 A 600 600 0 0 0 129020 -77920 L 157820 -77920 A 600 600 0 0 0 158420 -78520 L 158420 -97320 A 600 600 0 0 0 157820 -97920 L 148520 -97920 A 600 600 0 0 1 147920 -98520 L 147920 -106030 A 600 600 0 0 0 147320 -106630 L 143420 -106630" fill="none" stroke-width="100"/></clipPath><mask id="fQ8_zNuH0GNOXL0H4lb2_bottom_mech-mask"><g fill="#000" stroke="#000"><rect x="128420" y="-106630" width="30000" height="28710" fill="#fff"/><use xlink:href="#fQ8_zNuH0GNOXL0H4lb2_bottom_drill1"/><use xlink:href="#fQ8_zNuH0GNOXL0H4lb2_bottom_drill2"/></g></mask><mask id="fQ8_zNuH0GNOXL0H4lb2_bottom_cf-mask"><g fill="#fff" stroke="#fff"><use xlink:href="#fQ8_zNuH0GNOXL0H4lb2_bottom_soldermask"/></g></mask><mask id="fQ8_zNuH0GNOXL0H4lb2_bottom_sm-mask"><g fill="#000" stroke="#000"><rect x="128420" y="-106630" width="30000" height="28710" fill="#fff"/><use xlink:href="#fQ8_zNuH0GNOXL0H4lb2_bottom_soldermask"/></g></mask></defs><g transform="translate(0,-184550) scale(1,-1)"><g mask="url(#fQ8_zNuH0GNOXL0H4lb2_bottom_mech-mask)" clip-path="url(#fQ8_zNuH0GNOXL0H4lb2_bottom_outline)" transform="translate(286840,0) scale(-1,1)"><rect x="128420" y="-106630" width="30000" height="28710" fill="currentColor" class="fQ8_zNuH0GNOXL0H4lb2_fr4"/><use xlink:href="#fQ8_zNuH0GNOXL0H4lb2_bottom_copper" fill="currentColor" stroke="currentColor" class="fQ8_zNuH0GNOXL0H4lb2_cu"/><use xlink:href="#fQ8_zNuH0GNOXL0H4lb2_bottom_copper" fill="currentColor" stroke="currentColor" class="fQ8_zNuH0GNOXL0H4lb2_cf" mask="url(#fQ8_zNuH0GNOXL0H4lb2_bottom_cf-mask)"/><g mask="url(#fQ8_zNuH0GNOXL0H4lb2_bottom_sm-mask)"><rect x="128420" y="-106630" width="30000" height="28710" fill="currentColor" class="fQ8_zNuH0GNOXL0H4lb2_sm"/></g></g></g></svg>