<svg version="1.1" xmlns="http://www.w3.org/2000/svg" xmlns:xlink="http://www.w3.org/1999/xlink" stroke-linecap="round" stroke-linejoin="round" stroke-width="0" fill-rule="evenodd" width="28.014285mm" height="28.366824mm" viewBox="128945 -106432.3 28014.285 28366.824" id="jAHIBYYffq7qbjvVJoPU"><g transform="translate(0,-184497.776) scale(1,-1)" fill="currentColor" stroke="currentColor"><path d="M 154387.38 -80664.285 153387.38 -80664.285 153387.38 -80426.19 153435 -80283.333 153530.238 -80188.095 153625.476 -80140.476 153815.952 -80092.857 153958.809 -80092.857 154149.285 -80140.476 154244.523 -80188.095 154339.761 -80283.333 154387.38 -80426.19 154387.38 -80664.285 M 154387.38 -79140.476 154387.38 -79711.904 M 154387.38 -79426.19 153387.38 -79426.19 153530.238 -79521.428 153625.476 -79616.666 153673.095 -79711.904 M 153720.714 -78283.333 154387.38 -78283.333 M 153339.761 -78521.428 154054.047 -78759.523 154054.047 -78140.476 M 152782.142 -91837.142 152734.523 -91884.761 152591.666 -91932.38 152496.428 -91932.38 152353.571 -91884.761 152258.333 -91789.523 152210.714 -91694.285 152163.095 -91503.809 152163.095 -91360.952 152210.714 -91170.476 152258.333 -91075.238 152353.571 -90980 152496.428 -90932.38 152591.666 -90932.38 152734.523 -90980 152782.142 -91027.619 M 153734.523 -91932.38 153163.095 -91932.38 M 153448.809 -91932.38 153448.809 -90932.38 153353.571 -91075.238 153258.333 -91170.476 153163.095 -91218.095 M 154639.285 -90932.38 154163.095 -90932.38 154115.476 -91408.571 154163.095 -91360.952 154258.333 -91313.333 154496.428 -91313.333 154591.666 -91360.952 154639.285 -91408.571 154686.904 -91503.809 154686.904 -91741.904 154639.285 -91837.142 154591.666 -91884.761 154496.428 -91932.38 154258.333 -91932.38 154163.095 -91884.761 154115.476 -91837.142" fill="none" stroke-width="150"/><path d="M 156680.714 -81319.047 156699.761 -81300 156737.857 -81280.952 156833.095 -81280.952 156871.19 -81300 156890.238 -81319.047 156909.285 -81357.142 156909.285 -81395.238 156890.238 -81452.38 156661.666 -81680.952 156909.285 -81680.952 M 133791.428 -89570 133505.714 -89770 M 133791.428 -89912.857 133191.428 -89912.857 133191.428 -89684.285 133220 -89627.142 133248.571 -89598.571 133305.714 -89570 133391.428 -89570 133448.571 -89598.571 133477.142 -89627.142 133505.714 -89684.285 133505.714 -89912.857 M 133191.428 -89370 133191.428 -88998.571 133420 -89198.571 133420 -89112.857 133448.571 -89055.714 133477.142 -89027.142 133534.285 -88998.571 133677.142 -88998.571 133734.285 -89027.142 133762.857 -89055.714 133791.428 -89112.857 133791.428 -89284.285 133762.857 -89341.428 133734.285 -89370" fill="none" stroke-width="100"/><path d="M 142828.809 -104621.29 142828.809 -105097.48 M 142495.476 -104097.48 142828.809 -104621.29 143162.142 -104097.48 M 144019.285 -105097.48 143447.857 -105097.48 M 143733.571 -105097.48 143733.571 -104097.48 143638.333 -104240.338 143543.095 -104335.576 143447.857 -104383.195 M 142014.523 -85179.404 142014.523 -85827.023 142052.619 -85903.214 142090.714 -85941.309 142166.904 -85979.404 142319.285 -85979.404 142395.476 -85941.309 142433.571 -85903.214 142471.666 -85827.023 142471.666 -85179.404 M 142814.523 -85941.309 142928.809 -85979.404 143119.285 -85979.404 143195.476 -85941.309 143233.571 -85903.214 143271.666 -85827.023 143271.666 -85750.833 143233.571 -85674.642 143195.476 -85636.547 143119.285 -85598.452 142966.904 -85560.357 142890.714 -85522.261 142852.619 -85484.166 142814.523 -85407.976 142814.523 -85331.785 142852.619 -85255.595 142890.714 -85217.5 142966.904 -85179.404 143157.38 -85179.404 143271.666 -85217.5 M 143881.19 -85560.357 143995.476 -85598.452 144033.571 -85636.547 144071.666 -85712.738 144071.666 -85827.023 144033.571 -85903.214 143995.476 -85941.309 143919.285 -85979.404 143614.523 -85979.404 143614.523 -85179.404 143881.19 -85179.404 143957.38 -85217.5 143995.476 -85255.595 144033.571 -85331.785 144033.571 -85407.976 143995.476 -85484.166 143957.38 -85522.261 143881.19 -85560.357 143614.523 -85560.357 M 144833.571 -85979.404 144376.428 -85979.404 M 144605 -85979.404 144605 -85179.404 144528.809 -85293.69 144452.619 -85369.88 144376.428 -85407.976 M 148832.142 -92677.142 148784.523 -92724.761 148641.666 -92772.38 148546.428 -92772.38 148403.571 -92724.761 148308.333 -92629.523 148260.714 -92534.285 148213.095 -92343.809 148213.095 -92200.952 148260.714 -92010.476 148308.333 -91915.238 148403.571 -91820 148546.428 -91772.38 148641.666 -91772.38 148784.523 -91820 148832.142 -91867.619 M 149784.523 -92772.38 149213.095 -92772.38 M 149498.809 -92772.38 149498.809 -91772.38 149403.571 -91915.238 149308.333 -92010.476 149213.095 -92058.095 M 150165.476 -91867.619 150213.095 -91820 150308.333 -91772.38 150546.428 -91772.38 150641.666 -91820 150689.285 -91867.619 150736.904 -91962.857 150736.904 -92058.095 150689.285 -92200.952 150117.857 -92772.38 150736.904 -92772.38" fill="none" stroke-width="150"/><path d="M 156631.666 -92280.952 156898.333 -92280.952 156726.904 -92680.952" fill="none" stroke-width="100"/><path d="M 135882.142 -80137.142 135834.523 -80184.761 135691.666 -80232.38 135596.428 -80232.38 135453.571 -80184.761 135358.333 -80089.523 135310.714 -79994.285 135263.095 -79803.809 135263.095 -79660.952 135310.714 -79470.476 135358.333 -79375.238 135453.571 -79280 135596.428 -79232.38 135691.666 -79232.38 135834.523 -79280 135882.142 -79327.619 M 136834.523 -80232.38 136263.095 -80232.38 M 136548.809 -80232.38 136548.809 -79232.38 136453.571 -79375.238 136358.333 -79470.476 136263.095 -79518.095 M 137691.666 -79232.38 137501.19 -79232.38 137405.952 -79280 137358.333 -79327.619 137263.095 -79470.476 137215.476 -79660.952 137215.476 -80041.904 137263.095 -80137.142 137310.714 -80184.761 137405.952 -80232.38 137596.428 -80232.38 137691.666 -80184.761 137739.285 -80137.142 137786.904 -80041.904 137786.904 -79803.809 137739.285 -79708.571 137691.666 -79660.952 137596.428 -79613.333 137405.952 -79613.333 137310.714 -79660.952 137263.095 -79708.571 137215.476 -79803.809 M 137362.142 -97014.642 137314.523 -97062.261 137171.666 -97109.88 137076.428 -97109.88 136933.571 -97062.261 136838.333 -96967.023 136790.714 -96871.785 136743.095 -96681.309 136743.095 -96538.452 136790.714 -96347.976 136838.333 -96252.738 136933.571 -96157.5 137076.428 -96109.88 137171.666 -96109.88 137314.523 -96157.5 137362.142 -96205.119 M 138314.523 -97109.88 137743.095 -97109.88 M 138028.809 -97109.88 138028.809 -96109.88 137933.571 -96252.738 137838.333 -96347.976 137743.095 -96395.595 M 138933.571 -96109.88 139028.809 -96109.88 139124.047 -96157.5 139171.666 -96205.119 139219.285 -96300.357 139266.904 -96490.833 139266.904 -96728.928 139219.285 -96919.404 139171.666 -97014.642 139124.047 -97062.261 139028.809 -97109.88 138933.571 -97109.88 138838.333 -97062.261 138790.714 -97014.642 138743.095 -96919.404 138695.476 -96728.928 138695.476 -96490.833 138743.095 -96300.357 138790.714 -96205.119 138838.333 -96157.5 138933.571 -96109.88" fill="none" stroke-width="150"/><path d="M 130120.952 -95870.952 129930.476 -95870.952 129930.476 -95470.952 M 130406.666 -95851.904 130368.571 -95870.952 130292.38 -95870.952 130254.285 -95851.904 130235.238 -95813.809 130235.238 -95661.428 130254.285 -95623.333 130292.38 -95604.285 130368.571 -95604.285 130406.666 -95623.333 130425.714 -95661.428 130425.714 -95699.523 130235.238 -95737.619 M 130768.571 -95870.952 130768.571 -95470.952 M 130768.571 -95851.904 130730.476 -95870.952 130654.285 -95870.952 130616.19 -95851.904 130597.142 -95832.857 130578.095 -95794.761 130578.095 -95680.476 130597.142 -95642.38 130616.19 -95623.333 130654.285 -95604.285 130730.476 -95604.285 130768.571 -95623.333 M 130940 -95509.047 130959.047 -95490 130997.142 -95470.952 131092.38 -95470.952 131130.476 -95490 131149.523 -95509.047 131168.571 -95547.142 131168.571 -95585.238 131149.523 -95642.38 130920.952 -95870.952 131168.571 -95870.952 M 142236.428 -99510 141950.714 -99710 M 142236.428 -99852.857 141636.428 -99852.857 141636.428 -99624.285 141665 -99567.142 141693.571 -99538.571 141750.714 -99510 141836.428 -99510 141893.571 -99538.571 141922.142 -99567.142 141950.714 -99624.285 141950.714 -99852.857 M 142236.428 -98938.571 142236.428 -99281.428 M 142236.428 -99110 141636.428 -99110 141722.142 -99167.142 141779.285 -99224.285 141807.857 -99281.428 M 156890.238 -87880.952 156699.761 -87880.952 156680.714 -88071.428 156699.761 -88052.38 156737.857 -88033.333 156833.095 -88033.333 156871.19 -88052.38 156890.238 -88071.428 156909.285 -88109.523 156909.285 -88204.761 156890.238 -88242.857 156871.19 -88261.904 156833.095 -88280.952 156737.857 -88280.952 156699.761 -88261.904 156680.714 -88242.857" fill="none" stroke-width="100"/><path d="M 148618.333 -94697.142 148570.714 -94744.761 148427.857 -94792.38 148332.619 -94792.38 148189.761 -94744.761 148094.523 -94649.523 148046.904 -94554.285 147999.285 -94363.809 147999.285 -94220.952 148046.904 -94030.476 148094.523 -93935.238 148189.761 -93840 148332.619 -93792.38 148427.857 -93792.38 148570.714 -93840 148618.333 -93887.619 M 149094.523 -94792.38 149285 -94792.38 149380.238 -94744.761 149427.857 -94697.142 149523.095 -94554.285 149570.714 -94363.809 149570.714 -93982.857 149523.095 -93887.619 149475.476 -93840 149380.238 -93792.38 149189.761 -93792.38 149094.523 -93840 149046.904 -93887.619 148999.285 -93982.857 148999.285 -94220.952 149046.904 -94316.19 149094.523 -94363.809 149189.761 -94411.428 149380.238 -94411.428 149475.476 -94363.809 149523.095 -94316.19 149570.714 -94220.952" fill="none" stroke-width="150"/><path d="M 156871.19 -90080.952 156795 -90080.952 156756.904 -90100 156737.857 -90119.047 156699.761 -90176.19 156680.714 -90252.38 156680.714 -90404.761 156699.761 -90442.857 156718.809 -90461.904 156756.904 -90480.952 156833.095 -90480.952 156871.19 -90461.904 156890.238 -90442.857 156909.285 -90404.761 156909.285 -90309.523 156890.238 -90271.428 156871.19 -90252.38 156833.095 -90233.333 156756.904 -90233.333 156718.809 -90252.38 156699.761 -90271.428 156680.714 -90309.523" fill="none" stroke-width="100"/><path d="M 153308.095 -95704.761 153450.952 -95752.38 153689.047 -95752.38 153784.285 -95704.761 153831.904 -95657.142 153879.523 -95561.904 153879.523 -95466.666 153831.904 -95371.428 153784.285 -95323.809 153689.047 -95276.19 153498.571 -95228.571 153403.333 -95180.952 153355.714 -95133.333 153308.095 -95038.095 153308.095 -94942.857 153355.714 -94847.619 153403.333 -94800 153498.571 -94752.38 153736.666 -94752.38 153879.523 -94800 M 154260.476 -94847.619 154308.095 -94800 154403.333 -94752.38 154641.428 -94752.38 154736.666 -94800 154784.285 -94847.619 154831.904 -94942.857 154831.904 -95038.095 154784.285 -95180.952 154212.857 -95752.38 154831.904 -95752.38" fill="none" stroke-width="150"/><path d="M 156841.19 -85814.285 156841.19 -86080.952 M 156745.952 -85661.904 156650.714 -85947.619 156898.333 -85947.619 M 156899.285 -79480.952 156670.714 -79480.952 M 156785 -79480.952 156785 -79080.952 156746.904 -79138.095 156708.809 -79176.19 156670.714 -79195.238 M 134791.428 -89570 134505.714 -89770 M 134791.428 -89912.857 134191.428 -89912.857 134191.428 -89684.285 134220 -89627.142 134248.571 -89598.571 134305.714 -89570 134391.428 -89570 134448.571 -89598.571 134477.142 -89627.142 134505.714 -89684.285 134505.714 -89912.857 M 134391.428 -89055.714 134791.428 -89055.714 M 134162.857 -89198.571 134591.428 -89341.428 134591.428 -88970 M 130154.761 -89270.952 130021.428 -89080.476 M 129926.19 -89270.952 129926.19 -88870.952 130078.571 -88870.952 130116.666 -88890 130135.714 -88909.047 130154.761 -88947.142 130154.761 -89004.285 130135.714 -89042.38 130116.666 -89061.428 130078.571 -89080.476 129926.19 -89080.476 M 130383.333 -89270.952 130345.238 -89251.904 130326.19 -89232.857 130307.142 -89194.761 130307.142 -89080.476 130326.19 -89042.38 130345.238 -89023.333 130383.333 -89004.285 130440.476 -89004.285 130478.571 -89023.333 130497.619 -89042.38 130516.666 -89080.476 130516.666 -89194.761 130497.619 -89232.857 130478.571 -89251.904 130440.476 -89270.952 130383.333 -89270.952 M 130630.952 -89004.285 130783.333 -89004.285 M 130688.095 -88870.952 130688.095 -89213.809 130707.142 -89251.904 130745.238 -89270.952 130783.333 -89270.952 M 130821.428 -89309.047 131126.19 -89309.047 M 131202.38 -89156.666 131392.857 -89156.666 M 131164.285 -89270.952 131297.619 -88870.952 131430.952 -89270.952" fill="none" stroke-width="100"/><path d="M 132643.095 -80322.38 132643.095 -81131.904 132690.714 -81227.142 132738.333 -81274.761 132833.571 -81322.38 133024.047 -81322.38 133119.285 -81274.761 133166.904 -81227.142 133214.523 -81131.904 133214.523 -80322.38 M 133643.095 -80417.619 133690.714 -80370 133785.952 -80322.38 134024.047 -80322.38 134119.285 -80370 134166.904 -80417.619 134214.523 -80512.857 134214.523 -80608.095 134166.904 -80750.952 133595.476 -81322.38 134214.523 -81322.38" fill="none" stroke-width="150"/><path d="M 143039.285 -100075.714 143067.857 -100104.285 143096.428 -100190 143096.428 -100247.142 143067.857 -100332.857 143010.714 -100390 142953.571 -100418.571 142839.285 -100447.142 142753.571 -100447.142 142639.285 -100418.571 142582.142 -100390 142525 -100332.857 142496.428 -100247.142 142496.428 -100190 142525 -100104.285 142553.571 -100075.714 M 143096.428 -99504.285 143096.428 -99847.142 M 143096.428 -99675.714 142496.428 -99675.714 142582.142 -99732.857 142639.285 -99790 142667.857 -99847.142 M 143096.428 -98932.857 143096.428 -99275.714 M 143096.428 -99104.285 142496.428 -99104.285 142582.142 -99161.428 142639.285 -99218.571 142667.857 -99275.714 M 145646.428 -87190 145360.714 -87390 M 145646.428 -87532.857 145046.428 -87532.857 145046.428 -87304.285 145075 -87247.142 145103.571 -87218.571 145160.714 -87190 145246.428 -87190 145303.571 -87218.571 145332.142 -87247.142 145360.714 -87304.285 145360.714 -87532.857 M 145046.428 -86990 145046.428 -86590 145646.428 -86847.142 M 156661.666 -83480.952 156909.285 -83480.952 156775.952 -83633.333 156833.095 -83633.333 156871.19 -83652.38 156890.238 -83671.428 156909.285 -83709.523 156909.285 -83804.761 156890.238 -83842.857 156871.19 -83861.904 156833.095 -83880.952 156718.809 -83880.952 156680.714 -83861.904 156661.666 -83842.857" fill="none" stroke-width="100"/><path d="M 149722.38 -97056.666 149246.19 -97390 M 149722.38 -97628.095 148722.38 -97628.095 148722.38 -97247.142 148770 -97151.904 148817.619 -97104.285 148912.857 -97056.666 149055.714 -97056.666 149150.952 -97104.285 149198.571 -97151.904 149246.19 -97247.142 149246.19 -97628.095 M 148817.619 -96675.714 148770 -96628.095 148722.38 -96532.857 148722.38 -96294.761 148770 -96199.523 148817.619 -96151.904 148912.857 -96104.285 149008.095 -96104.285 149150.952 -96151.904 149722.38 -96723.333 149722.38 -96104.285" fill="none" stroke-width="150"/><path d="M 142655 -102534.285 142626.428 -102562.857 142540.714 -102591.428 142483.571 -102591.428 142397.857 -102562.857 142340.714 -102505.714 142312.142 -102448.571 142283.571 -102334.285 142283.571 -102248.571 142312.142 -102134.285 142340.714 -102077.142 142397.857 -102020 142483.571 -101991.428 142540.714 -101991.428 142626.428 -102020 142655 -102048.571 M 142855 -101991.428 143226.428 -101991.428 143026.428 -102220 143112.142 -102220 143169.285 -102248.571 143197.857 -102277.142 143226.428 -102334.285 143226.428 -102477.142 143197.857 -102534.285 143169.285 -102562.857 143112.142 -102591.428 142940.714 -102591.428 142883.571 -102562.857 142855 -102534.285 M 155219.285 -78854.285 155190.714 -78882.857 155105 -78911.428 155047.857 -78911.428 154962.142 -78882.857 154905 -78825.714 154876.428 -78768.571 154847.857 -78654.285 154847.857 -78568.571 154876.428 -78454.285 154905 -78397.142 154962.142 -78340 155047.857 -78311.428 155105 -78311.428 155190.714 -78340 155219.285 -78368.571 M 155790.714 -78911.428 155447.857 -78911.428 M 155619.285 -78911.428 155619.285 -78311.428 155562.142 -78397.142 155505 -78454.285 155447.857 -78482.857 M 156305 -78511.428 156305 -78911.428 M 156162.142 -78282.857 156019.285 -78711.428 156390.714 -78711.428" fill="none" stroke-width="100"/><path d="M 139208.333 -88062.38 138875 -87586.19 M 138636.904 -88062.38 138636.904 -87062.38 139017.857 -87062.38 139113.095 -87110 139160.714 -87157.619 139208.333 -87252.857 139208.333 -87395.714 139160.714 -87490.952 139113.095 -87538.571 139017.857 -87586.19 138636.904 -87586.19 M 140113.095 -87062.38 139636.904 -87062.38 139589.285 -87538.571 139636.904 -87490.952 139732.142 -87443.333 139970.238 -87443.333 140065.476 -87490.952 140113.095 -87538.571 140160.714 -87633.809 140160.714 -87871.904 140113.095 -87967.142 140065.476 -88014.761 139970.238 -88062.38 139732.142 -88062.38 139636.904 -88014.761 139589.285 -87967.142" fill="none" stroke-width="150"/><path d="M 144666.428 -87190 144380.714 -87390 M 144666.428 -87532.857 144066.428 -87532.857 144066.428 -87304.285 144095 -87247.142 144123.571 -87218.571 144180.714 -87190 144266.428 -87190 144323.571 -87218.571 144352.142 -87247.142 144380.714 -87304.285 144380.714 -87532.857 M 144323.571 -86847.142 144295 -86904.285 144266.428 -86932.857 144209.285 -86961.428 144180.714 -86961.428 144123.571 -86932.857 144095 -86904.285 144066.428 -86847.142 144066.428 -86732.857 144095 -86675.714 144123.571 -86647.142 144180.714 -86618.571 144209.285 -86618.571 144266.428 -86647.142 144295 -86675.714 144323.571 -86732.857 144323.571 -86847.142 144352.142 -86904.285 144380.714 -86932.857 144437.857 -86961.428 144552.142 -86961.428 144609.285 -86932.857 144637.857 -86904.285 144666.428 -86847.142 144666.428 -86732.857 144637.857 -86675.714 144609.285 -86647.142 144552.142 -86618.571 144437.857 -86618.571 144380.714 -86647.142 144352.142 -86675.714 144323.571 -86732.857" fill="none" stroke-width="100"/><path d="M 142785.476 -89239.404 142785.476 -89887.023 142823.571 -89963.214 142861.666 -90001.309 142937.857 -90039.404 143090.238 -90039.404 143166.428 -90001.309 143204.523 -89963.214 143242.619 -89887.023 143242.619 -89239.404 M 144042.619 -90039.404 143585.476 -90039.404 M 143814.047 -90039.404 143814.047 -89239.404 143737.857 -89353.69 143661.666 -89429.88 143585.476 -89467.976 M 140348.333 -101517.142 140300.714 -101564.761 140157.857 -101612.38 140062.619 -101612.38 139919.761 -101564.761 139824.523 -101469.523 139776.904 -101374.285 139729.285 -101183.809 139729.285 -101040.952 139776.904 -100850.476 139824.523 -100755.238 139919.761 -100660 140062.619 -100612.38 140157.857 -100612.38 140300.714 -100660 140348.333 -100707.619 M 140729.285 -100707.619 140776.904 -100660 140872.142 -100612.38 141110.238 -100612.38 141205.476 -100660 141253.095 -100707.619 141300.714 -100802.857 141300.714 -100898.095 141253.095 -101040.952 140681.666 -101612.38 141300.714 -101612.38 M 137838.333 -92614.642 137790.714 -92662.261 137647.857 -92709.88 137552.619 -92709.88 137409.761 -92662.261 137314.523 -92567.023 137266.904 -92471.785 137219.285 -92281.309 137219.285 -92138.452 137266.904 -91947.976 137314.523 -91852.738 137409.761 -91757.5 137552.619 -91709.88 137647.857 -91709.88 137790.714 -91757.5 137838.333 -91805.119 M 138409.761 -92138.452 138314.523 -92090.833 138266.904 -92043.214 138219.285 -91947.976 138219.285 -91900.357 138266.904 -91805.119 138314.523 -91757.5 138409.761 -91709.88 138600.238 -91709.88 138695.476 -91757.5 138743.095 -91805.119 138790.714 -91900.357 138790.714 -91947.976 138743.095 -92043.214 138695.476 -92090.833 138600.238 -92138.452 138409.761 -92138.452 138314.523 -92186.071 138266.904 -92233.69 138219.285 -92328.928 138219.285 -92519.404 138266.904 -92614.642 138314.523 -92662.261 138409.761 -92709.88 138600.238 -92709.88 138695.476 -92662.261 138743.095 -92614.642 138790.714 -92519.404 138790.714 -92328.928 138743.095 -92233.69 138695.476 -92186.071 138600.238 -92138.452" fill="none" stroke-width="150"/><path d="M 143639.285 -86880 143667.857 -86908.571 143696.428 -86994.285 143696.428 -87051.428 143667.857 -87137.142 143610.714 -87194.285 143553.571 -87222.857 143439.285 -87251.428 143353.571 -87251.428 143239.285 -87222.857 143182.142 -87194.285 143125 -87137.142 143096.428 -87051.428 143096.428 -86994.285 143125 -86908.571 143153.571 -86880 M 143096.428 -86365.714 143096.428 -86480 143125 -86537.142 143153.571 -86565.714 143239.285 -86622.857 143353.571 -86651.428 143582.142 -86651.428 143639.285 -86622.857 143667.857 -86594.285 143696.428 -86537.142 143696.428 -86422.857 143667.857 -86365.714 143639.285 -86337.142 143582.142 -86308.571 143439.285 -86308.571 143382.142 -86337.142 143353.571 -86365.714 143325 -86422.857 143325 -86537.142 143353.571 -86594.285 143382.142 -86622.857 143439.285 -86651.428 M 147509.285 -87540 147537.857 -87568.571 147566.428 -87654.285 147566.428 -87711.428 147537.857 -87797.142 147480.714 -87854.285 147423.571 -87882.857 147309.285 -87911.428 147223.571 -87911.428 147109.285 -87882.857 147052.142 -87854.285 146995 -87797.142 146966.428 -87711.428 146966.428 -87654.285 146995 -87568.571 147023.571 -87540 M 146966.428 -87340 146966.428 -86940 147566.428 -87197.142" fill="none" stroke-width="100"/><path d="M 131998.095 -95719.761 132140.952 -95767.38 132379.047 -95767.38 132474.285 -95719.761 132521.904 -95672.142 132569.523 -95576.904 132569.523 -95481.666 132521.904 -95386.428 132474.285 -95338.809 132379.047 -95291.19 132188.571 -95243.571 132093.333 -95195.952 132045.714 -95148.333 131998.095 -95053.095 131998.095 -94957.857 132045.714 -94862.619 132093.333 -94815 132188.571 -94767.38 132426.666 -94767.38 132569.523 -94815 M 133521.904 -95767.38 132950.476 -95767.38 M 133236.19 -95767.38 133236.19 -94767.38 133140.952 -94910.238 133045.714 -95005.476 132950.476 -95053.095" fill="none" stroke-width="150"/><path d="M 142679.285 -86880 142707.857 -86908.571 142736.428 -86994.285 142736.428 -87051.428 142707.857 -87137.142 142650.714 -87194.285 142593.571 -87222.857 142479.285 -87251.428 142393.571 -87251.428 142279.285 -87222.857 142222.142 -87194.285 142165 -87137.142 142136.428 -87051.428 142136.428 -86994.285 142165 -86908.571 142193.571 -86880 M 142736.428 -86308.571 142736.428 -86651.428 M 142736.428 -86480 142136.428 -86480 142222.142 -86537.142 142279.285 -86594.285 142307.857 -86651.428" fill="none" stroke-width="100"/><path d="M 148832.142 -89607.142 148784.523 -89654.761 148641.666 -89702.38 148546.428 -89702.38 148403.571 -89654.761 148308.333 -89559.523 148260.714 -89464.285 148213.095 -89273.809 148213.095 -89130.952 148260.714 -88940.476 148308.333 -88845.238 148403.571 -88750 148546.428 -88702.38 148641.666 -88702.38 148784.523 -88750 148832.142 -88797.619 M 149784.523 -89702.38 149213.095 -89702.38 M 149498.809 -89702.38 149498.809 -88702.38 149403.571 -88845.238 149308.333 -88940.476 149213.095 -88988.095 M 150117.857 -88702.38 150736.904 -88702.38 150403.571 -89083.333 150546.428 -89083.333 150641.666 -89130.952 150689.285 -89178.571 150736.904 -89273.809 150736.904 -89511.904 150689.285 -89607.142 150641.666 -89654.761 150546.428 -89702.38 150260.714 -89702.38 150165.476 -89654.761 150117.857 -89607.142 M 153387.594 -86296.651 152387.122 -86296.651 M 153292.311 -85248.537 153339.952 -85296.179 153387.594 -85439.103 153387.594 -85534.386 153339.952 -85677.311 153244.669 -85772.594 153149.386 -85820.236 152958.82 -85867.877 152815.896 -85867.877 152625.33 -85820.236 152530.047 -85772.594 152434.764 -85677.311 152387.122 -85534.386 152387.122 -85439.103 152434.764 -85296.179 152482.405 -85248.537 M 153387.594 -84295.707 153387.594 -84867.405 M 153387.594 -84581.556 152387.122 -84581.556 152530.047 -84676.839 152625.33 -84772.122 152672.971 -84867.405" fill="none" stroke-width="150"/><path d="M 130156.19 -91470.952 130022.857 -91280.476 M 129927.619 -91470.952 129927.619 -91070.952 130080 -91070.952 130118.095 -91090 130137.142 -91109.047 130156.19 -91147.142 130156.19 -91204.285 130137.142 -91242.38 130118.095 -91261.428 130080 -91280.476 129927.619 -91280.476 M 130384.761 -91470.952 130346.666 -91451.904 130327.619 -91432.857 130308.571 -91394.761 130308.571 -91280.476 130327.619 -91242.38 130346.666 -91223.333 130384.761 -91204.285 130441.904 -91204.285 130480 -91223.333 130499.047 -91242.38 130518.095 -91280.476 130518.095 -91394.761 130499.047 -91432.857 130480 -91451.904 130441.904 -91470.952 130384.761 -91470.952 M 130632.38 -91204.285 130784.761 -91204.285 M 130689.523 -91070.952 130689.523 -91413.809 130708.571 -91451.904 130746.666 -91470.952 130784.761 -91470.952 M 130822.857 -91509.047 131127.619 -91509.047 M 131356.19 -91261.428 131413.333 -91280.476 131432.38 -91299.523 131451.428 -91337.619 131451.428 -91394.761 131432.38 -91432.857 131413.333 -91451.904 131375.238 -91470.952 131222.857 -91470.952 131222.857 -91070.952 131356.19 -91070.952 131394.285 -91090 131413.333 -91109.047 131432.38 -91147.142 131432.38 -91185.238 131413.333 -91223.333 131394.285 -91242.38 131356.19 -91261.428 131222.857 -91261.428 M 130110.952 -93670.952 129920.476 -93670.952 129920.476 -93270.952 M 130396.666 -93651.904 130358.571 -93670.952 130282.38 -93670.952 130244.285 -93651.904 130225.238 -93613.809 130225.238 -93461.428 130244.285 -93423.333 130282.38 -93404.285 130358.571 -93404.285 130396.666 -93423.333 130415.714 -93461.428 130415.714 -93499.523 130225.238 -93537.619 M 130758.571 -93670.952 130758.571 -93270.952 M 130758.571 -93651.904 130720.476 -93670.952 130644.285 -93670.952 130606.19 -93651.904 130587.142 -93632.857 130568.095 -93594.761 130568.095 -93480.476 130587.142 -93442.38 130606.19 -93423.333 130644.285 -93404.285 130720.476 -93404.285 130758.571 -93423.333 M 131158.571 -93670.952 130930 -93670.952 M 131044.285 -93670.952 131044.285 -93270.952 131006.19 -93328.095 130968.095 -93366.19 130930 -93385.238" fill="none" stroke-width="100"/><path d="M 146559.285 -87530 146587.857 -87558.571 146616.428 -87644.285 146616.428 -87701.428 146587.857 -87787.142 146530.714 -87844.285 146473.571 -87872.857 146359.285 -87901.428 146273.571 -87901.428 146159.285 -87872.857 146102.142 -87844.285 146045 -87787.142 146016.428 -87701.428 146016.428 -87644.285 146045 -87558.571 146073.571 -87530 M 146016.428 -86987.142 146016.428 -87272.857 146302.142 -87301.428 146273.571 -87272.857 146245 -87215.714 146245 -87072.857 146273.571 -87015.714 146302.142 -86987.142 146359.285 -86958.571 146502.142 -86958.571 146559.285 -86987.142 146587.857 -87015.714 146616.428 -87072.857 146616.428 -87215.714 146587.857 -87272.857 146559.285 -87301.428" fill="none" stroke-width="110"/><path d="M 146825 -85791.428 146625 -85505.714 M 146482.142 -85791.428 146482.142 -85191.428 146710.714 -85191.428 146767.857 -85220 146796.428 -85248.571 146825 -85305.714 146825 -85391.428 146796.428 -85448.571 146767.857 -85477.142 146710.714 -85505.714 146482.142 -85505.714 M 147339.285 -85191.428 147225 -85191.428 147167.857 -85220 147139.285 -85248.571 147082.142 -85334.285 147053.571 -85448.571 147053.571 -85677.142 147082.142 -85734.285 147110.714 -85762.857 147167.857 -85791.428 147282.142 -85791.428 147339.285 -85762.857 147367.857 -85734.285 147396.428 -85677.142 147396.428 -85534.285 147367.857 -85477.142 147339.285 -85448.571 147282.142 -85420 147167.857 -85420 147110.714 -85448.571 147082.142 -85477.142 147053.571 -85534.285" fill="none" stroke-width="100"/><path d="M 146192.142 -100576.666 146239.761 -100624.285 146287.38 -100767.142 146287.38 -100862.38 146239.761 -101005.238 146144.523 -101100.476 146049.285 -101148.095 145858.809 -101195.714 145715.952 -101195.714 145525.476 -101148.095 145430.238 -101100.476 145335 -101005.238 145287.38 -100862.38 145287.38 -100767.142 145335 -100624.285 145382.619 -100576.666 M 145620.714 -99719.523 146287.38 -99719.523 M 145239.761 -99957.619 145954.047 -100195.714 145954.047 -99576.666" fill="none" stroke-width="150"/><path d="M 153075 -80450 153075 -78450 149225 -78450 M 153075 -80450 149225 -80450 M 153317.164 -90020 153532.836 -90020 M 153317.164 -90740 153532.836 -90740 M 133900 -91423.641 133900 -91116.359 M 133140 -91423.641 133140 -91116.359 M 140676.1 -106372.3 145933.9 -106372.3 M 145933.9 -102917.9 140676.1 -102917.9 M 140676.1 -105955.158 140676.1 -106372.3 M 145933.9 -106372.3 145933.9 -105955.158 M 140676.1 -102917.9 140676.1 -103335.042 M 145933.9 -103335.042 145933.9 -102917.9 M 146607.386 -104645.1 A 101.6 101.6 0 0 1 146404.186 -104645.1 101.6 101.6 0 0 1 146607.386 -104645.1 M 149367.164 -90857.5 149582.836 -90857.5 M 149367.164 -91577.5 149582.836 -91577.5 M 136632.836 -81150 136417.164 -81150 M 136632.836 -80430 136417.164 -80430 M 138112.836 -95857.5 137897.164 -95857.5 M 138112.836 -95137.5 137897.164 -95137.5 M 141585 -100726.359 141585 -101033.641 M 142345 -100726.359 142345 -101033.641 M 148677.164 -95860 148892.836 -95860 M 148677.164 -95140 148892.836 -95140" fill="none" stroke-width="120"/><path d="M 152220 -96900 156395 -96900 M 152220 -93700 156395 -93700" fill="none" stroke-width="100"/><path d="M 151320 -94300 A 100 100 0 0 1 151320 -94100 100 100 0 0 1 151320 -94300" fill="none" stroke-width="200"/><path d="M 134120 -91423.641 134120 -91116.359 M 134880 -91423.641 134880 -91116.359 M 133405 -81705 136130 -81705 M 136130 -87155 136130 -86895 M 133405 -87155 130680 -87155 M 136130 -81705 136130 -81965 M 133405 -81705 130680 -81705 M 130680 -87155 130680 -86895 M 130680 -81965 129005 -81965 M 133405 -87155 136130 -87155 M 130680 -81705 130680 -81965 M 143235 -100302.164 143235 -100517.836 M 143955 -100302.164 143955 -100517.836 M 144995 -88411.359 144995 -88718.641 M 145755 -88411.359 145755 -88718.641 M 150820 -97043.641 150820 -96736.359 M 150060 -97043.641 150060 -96736.359 M 144352.836 -102680 144137.164 -102680 M 144352.836 -101960 144137.164 -101960 M 155497.164 -79800 155712.836 -79800 M 155497.164 -79080 155712.836 -79080 M 139528.641 -86820 139221.359 -86820 M 139528.641 -86060 139221.359 -86060 M 144015 -88718.641 144015 -88411.359 M 144775 -88718.641 144775 -88411.359 M 146355 -98107.5 147005 -98107.5 M 139785 -98107.5 139785 -97457.5 M 140435 -90887.5 139785 -90887.5 M 140435 -98107.5 139785 -98107.5 M 147005 -98107.5 147005 -97457.5 M 147005 -90887.5 147005 -91537.5 M 146355 -90887.5 147005 -90887.5 M 140407.164 -102680 140622.836 -102680 M 140407.164 -101960 140622.836 -101960 M 138112.836 -91457.5 137897.164 -91457.5 M 138112.836 -90737.5 137897.164 -90737.5 M 143775 -88367.836 143775 -88152.164 M 143055 -88367.836 143055 -88152.164 M 147665 -88942.836 147665 -88727.164 M 146945 -88942.836 146945 -88727.164" fill="none" stroke-width="120"/><path d="M 130910 -96915 135085 -96915 M 130910 -93715 135085 -93715" fill="none" stroke-width="100"/><path d="M 130010 -94315 A 100 100 0 0 1 130010 -94115 100 100 0 0 1 130010 -94315" fill="none" stroke-width="200"/><path d="M 142815 -88370.336 142815 -88154.664 M 142095 -88370.336 142095 -88154.664 M 149367.164 -90617.5 149582.836 -90617.5 M 149367.164 -89897.5 149582.836 -89897.5" fill="none" stroke-width="120"/><path d="M 149690.75 -83840 156190.75 -83840 M 156190.75 -86840 149690.75 -86840 149690.75 -83840 M 156190.75 -83840 156190.75 -86840" fill="none" stroke-width="203.2"/><path d="M 156750.75 -82165 A 127 127 0 0 1 156496.75 -82165 127 127 0 0 1 156750.75 -82165" fill="none" stroke-width="127"/><path d="M 146705 -88942.836 146705 -88727.164 M 145985 -88942.836 145985 -88727.164 M 146781.359 -86820 147088.641 -86820 M 146781.359 -86060 147088.641 -86060 M 144315 -100302.164 144315 -100517.836 M 145035 -100302.164 145035 -100517.836" fill="none" stroke-width="120"/></g></svg>