<svg version="1.1" xmlns="http://www.w3.org/2000/svg" xmlns:xlink="http://www.w3.org/1999/xlink" stroke-linecap="round" stroke-linejoin="round" stroke-width="0" fill-rule="evenodd" width="32.5mm" height="28.1625mm" viewBox="127165 -106280 32500 28162.5" id="n671m2NWYhKpzwaLPG1n"><defs><g id="n671m2NWYhKpzwaLPG1n_pad-10"><polygon points="-869,-381 869,-381 869,381 -869,381"/><circle cx="-869" cy="-381" r="381"/><circle cx="869" cy="-381" r="381"/><circle cx="869" cy="381" r="381"/><circle cx="-869" cy="381" r="381"/><polygon points="-869,-762 869,-762 869,0 -869,0"/><polygon points="1250,-381 1250,381 488,381 488,-381"/><polygon points="869,0 -869,0 -869,762 869,762"/><polygon points="-488,381 -488,-381 -1250,-381 -1250,381"/></g><circle cx="0" cy="0" r="375" id="n671m2NWYhKpzwaLPG1n_pad-11"/><rect x="-550" y="-1100" width="1100" height="2200" rx="550" ry="550" id="n671m2NWYhKpzwaLPG1n_pad-12"/><rect x="-550" y="-850" width="1100" height="1700" rx="550" ry="550" id="n671m2NWYhKpzwaLPG1n_pad-13"/><circle cx="0" cy="0" r="300" id="n671m2NWYhKpzwaLPG1n_pad-14"/></defs><g transform="translate(0,-184397.5) scale(1,-1)" fill="currentColor" stroke="currentColor"><use xlink:href="#n671m2NWYhKpzwaLPG1n_pad-10" x="158415" y="-81500"/><use xlink:href="#n671m2NWYhKpzwaLPG1n_pad-11" x="140515" y="-82617.5"/><use xlink:href="#n671m2NWYhKpzwaLPG1n_pad-11" x="146295" y="-82617.5"/><use xlink:href="#n671m2NWYhKpzwaLPG1n_pad-12" x="139085" y="-83147.5"/><use xlink:href="#n671m2NWYhKpzwaLPG1n_pad-13" x="147725" y="-78967.5"/><use xlink:href="#n671m2NWYhKpzwaLPG1n_pad-13" x="139085" y="-78967.5"/><use xlink:href="#n671m2NWYhKpzwaLPG1n_pad-12" x="147725" y="-83147.5"/><use xlink:href="#n671m2NWYhKpzwaLPG1n_pad-10" x="158415" y="-92500"/><use xlink:href="#n671m2NWYhKpzwaLPG1n_pad-10" x="128415" y="-95690"/><use xlink:href="#n671m2NWYhKpzwaLPG1n_pad-10" x="158415" y="-88100"/><use xlink:href="#n671m2NWYhKpzwaLPG1n_pad-10" x="158415" y="-90300"/><use xlink:href="#n671m2NWYhKpzwaLPG1n_pad-10" x="158415" y="-85900"/><use xlink:href="#n671m2NWYhKpzwaLPG1n_pad-10" x="158415" y="-79300"/><use xlink:href="#n671m2NWYhKpzwaLPG1n_pad-10" x="128415" y="-89090"/><use xlink:href="#n671m2NWYhKpzwaLPG1n_pad-10" x="158415" y="-83700"/><use xlink:href="#n671m2NWYhKpzwaLPG1n_pad-10" x="128415" y="-91290"/><use xlink:href="#n671m2NWYhKpzwaLPG1n_pad-10" x="128415" y="-93490"/><use xlink:href="#n671m2NWYhKpzwaLPG1n_pad-14" x="147745" y="-84940"/><use xlink:href="#n671m2NWYhKpzwaLPG1n_pad-14" x="140265" y="-103460"/><use xlink:href="#n671m2NWYhKpzwaLPG1n_pad-14" x="156355" y="-95255"/><use xlink:href="#n671m2NWYhKpzwaLPG1n_pad-14" x="136345" y="-96390"/><use xlink:href="#n671m2NWYhKpzwaLPG1n_pad-14" x="138865" y="-87350"/><use xlink:href="#n671m2NWYhKpzwaLPG1n_pad-14" x="135135" y="-80790"/><use xlink:href="#n671m2NWYhKpzwaLPG1n_pad-14" x="136340" y="-94245"/><use xlink:href="#n671m2NWYhKpzwaLPG1n_pad-14" x="142765" y="-100890"/><use xlink:href="#n671m2NWYhKpzwaLPG1n_pad-14" x="140275" y="-105980"/><use xlink:href="#n671m2NWYhKpzwaLPG1n_pad-14" x="145635" y="-102320"/><use xlink:href="#n671m2NWYhKpzwaLPG1n_pad-14" x="146345" y="-87417.5"/><use xlink:href="#n671m2NWYhKpzwaLPG1n_pad-14" x="150865" y="-91210"/><use xlink:href="#n671m2NWYhKpzwaLPG1n_pad-14" x="146345" y="-105980"/><use xlink:href="#n671m2NWYhKpzwaLPG1n_pad-14" x="136615" y="-95490"/><use xlink:href="#n671m2NWYhKpzwaLPG1n_pad-14" x="140625" y="-99590"/><use xlink:href="#n671m2NWYhKpzwaLPG1n_pad-14" x="146335" y="-103460"/><use xlink:href="#n671m2NWYhKpzwaLPG1n_pad-14" x="154815" y="-90380"/><use xlink:href="#n671m2NWYhKpzwaLPG1n_pad-14" x="145415" y="-101630"/><use xlink:href="#n671m2NWYhKpzwaLPG1n_pad-14" x="143285" y="-105070"/><use xlink:href="#n671m2NWYhKpzwaLPG1n_pad-14" x="150175" y="-95492.5"/><use xlink:href="#n671m2NWYhKpzwaLPG1n_pad-14" x="148355" y="-86440"/><use xlink:href="#n671m2NWYhKpzwaLPG1n_pad-14" x="131270" y="-86330"/><use xlink:href="#n671m2NWYhKpzwaLPG1n_pad-14" x="156085" y="-80570"/><use xlink:href="#n671m2NWYhKpzwaLPG1n_pad-14" x="141805" y="-86830"/><use xlink:href="#n671m2NWYhKpzwaLPG1n_pad-14" x="150865" y="-90250"/><use xlink:href="#n671m2NWYhKpzwaLPG1n_pad-14" x="141525" y="-103080"/><use xlink:href="#n671m2NWYhKpzwaLPG1n_pad-14" x="142765" y="-86830"/><use xlink:href="#n671m2NWYhKpzwaLPG1n_pad-14" x="140035" y="-101410"/><use xlink:href="#n671m2NWYhKpzwaLPG1n_pad-14" x="139065" y="-84950"/><use xlink:href="#n671m2NWYhKpzwaLPG1n_pad-14" x="136605" y="-91100"/><use xlink:href="#n671m2NWYhKpzwaLPG1n_pad-14" x="156385" y="-97405"/><use xlink:href="#n671m2NWYhKpzwaLPG1n_pad-14" x="147305" y="-87447.5"/><use xlink:href="#n671m2NWYhKpzwaLPG1n_pad-14" x="145705" y="-96810"/><use xlink:href="#n671m2NWYhKpzwaLPG1n_pad-14" x="149625" y="-83880"/><use xlink:href="#n671m2NWYhKpzwaLPG1n_pad-14" x="146775" y="-97870"/><use xlink:href="#n671m2NWYhKpzwaLPG1n_pad-14" x="148195" y="-81310"/><use xlink:href="#n671m2NWYhKpzwaLPG1n_pad-14" x="132410" y="-93970"/><use xlink:href="#n671m2NWYhKpzwaLPG1n_pad-14" x="132500" y="-91780"/><use xlink:href="#n671m2NWYhKpzwaLPG1n_pad-14" x="147895" y="-96650"/><use xlink:href="#n671m2NWYhKpzwaLPG1n_pad-14" x="147135" y="-98800"/><use xlink:href="#n671m2NWYhKpzwaLPG1n_pad-14" x="131270" y="-83790"/><use xlink:href="#n671m2NWYhKpzwaLPG1n_pad-14" x="132475" y="-84370"/><use xlink:href="#n671m2NWYhKpzwaLPG1n_pad-14" x="131270" y="-85060"/><use xlink:href="#n671m2NWYhKpzwaLPG1n_pad-14" x="133065" y="-85655"/><use xlink:href="#n671m2NWYhKpzwaLPG1n_pad-14" x="135535" y="-86325"/><use xlink:href="#n671m2NWYhKpzwaLPG1n_pad-14" x="133745" y="-86910"/><use xlink:href="#n671m2NWYhKpzwaLPG1n_pad-14" x="134335" y="-85640"/><use xlink:href="#n671m2NWYhKpzwaLPG1n_pad-14" x="135535" y="-85060"/><use xlink:href="#n671m2NWYhKpzwaLPG1n_pad-14" x="144285" y="-92400"/><use xlink:href="#n671m2NWYhKpzwaLPG1n_pad-14" x="144205" y="-98990"/><use xlink:href="#n671m2NWYhKpzwaLPG1n_pad-14" x="143995" y="-96600"/><use xlink:href="#n671m2NWYhKpzwaLPG1n_pad-14" x="143197.933" y="-89774.223"/><use xlink:href="#n671m2NWYhKpzwaLPG1n_pad-14" x="130300" y="-95250"/><use xlink:href="#n671m2NWYhKpzwaLPG1n_pad-14" x="131720" y="-95250"/></g></svg>