<svg version="1.1" xmlns="http://www.w3.org/2000/svg" xmlns:xlink="http://www.w3.org/1999/xlink" stroke-linecap="round" stroke-linejoin="round" stroke-width="0" fill-rule="evenodd" width="27.915mm" height="26.7484mm" viewBox="129005 -105648.4 27915 26748.4" id="cx_314FdQ67VozqYkN7q"><defs><rect x="-550" y="-550" width="1100" height="1100" id="cx_314FdQ67VozqYkN7q_pad-10"/><g id="cx_314FdQ67VozqYkN7q_pad-11"><polygon points="-140,-170 140,-170 140,170 -140,170"/><circle cx="-140" cy="-170" r="140"/><circle cx="140" cy="-170" r="140"/><circle cx="140" cy="170" r="140"/><circle cx="-140" cy="170" r="140"/><polygon points="-140,-310 140,-310 140,-30 -140,-30"/><polygon points="280,-170 280,170 0,170 0,-170"/><polygon points="140,30 -140,30 -140,310 140,310"/><polygon points="0,170 0,-170 -280,-170 -280,170"/></g><g id="cx_314FdQ67VozqYkN7q_pad-12"><polygon points="185,-135 185,135 -185,135 -185,-135"/><circle cx="185" cy="-135" r="135"/><circle cx="185" cy="135" r="135"/><circle cx="-185" cy="135" r="135"/><circle cx="-185" cy="-135" r="135"/><polygon points="320,-135 320,135 50,135 50,-135"/><polygon points="185,0 -185,0 -185,270 185,270"/><polygon points="-50,135 -50,-135 -320,-135 -320,135"/><polygon points="-185,-270 185,-270 185,0 -185,0"/></g><rect x="-647.7" y="-1003.3" width="1295.4" height="2006.6" id="cx_314FdQ67VozqYkN7q_pad-13"/><g id="cx_314FdQ67VozqYkN7q_pad-14"><polygon points="300,725 -300,725 -300,-725 300,-725"/><circle cx="300" cy="725" r="50"/><circle cx="-300" cy="725" r="50"/><circle cx="-300" cy="-725" r="50"/><circle cx="300" cy="-725" r="50"/><polygon points="300,675 -300,675 -300,775 300,775"/><polygon points="-250,725 -250,-725 -350,-725 -350,725"/><polygon points="-300,-775 300,-775 300,-675 -300,-675"/><polygon points="350,-725 350,725 250,725 250,-725"/></g><g id="cx_314FdQ67VozqYkN7q_pad-15"><polygon points="150,725 -150,725 -150,-725 150,-725"/><circle cx="150" cy="725" r="50"/><circle cx="-150" cy="725" r="50"/><circle cx="-150" cy="-725" r="50"/><circle cx="150" cy="-725" r="50"/><polygon points="150,675 -150,675 -150,775 150,775"/><polygon points="-100,725 -100,-725 -200,-725 -200,725"/><polygon points="-150,-775 150,-775 150,-675 -150,-675"/><polygon points="200,-725 200,725 100,725 100,-725"/></g><g id="cx_314FdQ67VozqYkN7q_pad-16"><polygon points="140,170 -140,170 -140,-170 140,-170"/><circle cx="140" cy="170" r="140"/><circle cx="-140" cy="170" r="140"/><circle cx="-140" cy="-170" r="140"/><circle cx="140" cy="-170" r="140"/><polygon points="140,30 -140,30 -140,310 140,310"/><polygon points="0,170 0,-170 -280,-170 -280,170"/><polygon points="-140,-310 140,-310 140,-30 -140,-30"/><polygon points="280,-170 280,170 0,170 0,-170"/></g><g id="cx_314FdQ67VozqYkN7q_pad-17"><polygon points="-185,135 -185,-135 185,-135 185,135"/><circle cx="-185" cy="135" r="135"/><circle cx="-185" cy="-135" r="135"/><circle cx="185" cy="-135" r="135"/><circle cx="185" cy="135" r="135"/><polygon points="-50,135 -50,-135 -320,-135 -320,135"/><polygon points="-185,-270 185,-270 185,0 -185,0"/><polygon points="320,-135 320,135 50,135 50,-135"/><polygon points="185,0 -185,0 -185,270 185,270"/></g><rect x="-525" y="-325" width="1050" height="650" id="cx_314FdQ67VozqYkN7q_pad-18"/><g id="cx_314FdQ67VozqYkN7q_pad-19"><polygon points="-650,-150 650,-150 650,150 -650,150"/><circle cx="-650" cy="-150" r="150"/><circle cx="650" cy="-150" r="150"/><circle cx="650" cy="150" r="150"/><circle cx="-650" cy="150" r="150"/><polygon points="-650,-300 650,-300 650,0 -650,0"/><polygon points="800,-150 800,150 500,150 500,-150"/><polygon points="650,0 -650,0 -650,300 650,300"/><polygon points="-500,150 -500,-150 -800,-150 -800,150"/></g><g id="cx_314FdQ67VozqYkN7q_pad-20"><polygon points="-170,140 -170,-140 170,-140 170,140"/><circle cx="-170" cy="140" r="140"/><circle cx="-170" cy="-140" r="140"/><circle cx="170" cy="-140" r="140"/><circle cx="170" cy="140" r="140"/><polygon points="-30,140 -30,-140 -310,-140 -310,140"/><polygon points="-170,-280 170,-280 170,0 -170,0"/><polygon points="310,-140 310,140 30,140 30,-140"/><polygon points="170,0 -170,0 -170,280 170,280"/></g><g id="cx_314FdQ67VozqYkN7q_pad-21"><polygon points="135,185 -135,185 -135,-185 135,-185"/><circle cx="135" cy="185" r="135"/><circle cx="-135" cy="185" r="135"/><circle cx="-135" cy="-185" r="135"/><circle cx="135" cy="-185" r="135"/><polygon points="135,50 -135,50 -135,320 135,320"/><polygon points="0,185 0,-185 -270,-185 -270,185"/><polygon points="-135,-320 135,-320 135,-50 -135,-50"/><polygon points="270,-185 270,185 0,185 0,-185"/></g><g id="cx_314FdQ67VozqYkN7q_pad-22"><polygon points="-292.217,-292.217 292.217,-292.217 292.217,292.217 -292.217,292.217"/><circle cx="-292.217" cy="-292.217" r="250"/><circle cx="292.217" cy="-292.217" r="250"/><circle cx="292.217" cy="292.217" r="250"/><circle cx="-292.217" cy="292.217" r="250"/><polygon points="-292.217,-542.217 292.217,-542.217 292.217,-42.217 -292.217,-42.217"/><polygon points="542.217,-292.217 542.217,292.217 42.217,292.217 42.217,-292.217"/><polygon points="292.217,42.217 -292.217,42.217 -292.217,542.217 292.217,542.217"/><polygon points="-42.217,292.217 -42.217,-292.217 -542.217,-292.217 -542.217,292.217"/></g><g id="cx_314FdQ67VozqYkN7q_pad-23"><polygon points="-387.5,-50 387.5,-50 387.5,50 -387.5,50"/><circle cx="-387.5" cy="-50" r="50"/><circle cx="387.5" cy="-50" r="50"/><circle cx="387.5" cy="50" r="50"/><circle cx="-387.5" cy="50" r="50"/><polygon points="-387.5,-100 387.5,-100 387.5,0 -387.5,0"/><polygon points="437.5,-50 437.5,50 337.5,50 337.5,-50"/><polygon points="387.5,0 -387.5,0 -387.5,100 387.5,100"/><polygon points="-337.5,50 -337.5,-50 -437.5,-50 -437.5,50"/></g><g id="cx_314FdQ67VozqYkN7q_pad-24"><polygon points="-50,-387.5 50,-387.5 50,387.5 -50,387.5"/><circle cx="-50" cy="-387.5" r="50"/><circle cx="50" cy="-387.5" r="50"/><circle cx="50" cy="387.5" r="50"/><circle cx="-50" cy="387.5" r="50"/><polygon points="-50,-437.5 50,-437.5 50,-337.5 -50,-337.5"/><polygon points="100,-387.5 100,387.5 0,387.5 0,-387.5"/><polygon points="50,337.5 -50,337.5 -50,437.5 50,437.5"/><polygon points="0,387.5 0,-387.5 -100,-387.5 -100,387.5"/></g><g id="cx_314FdQ67VozqYkN7q_pad-25"><polygon points="170,-140 170,140 -170,140 -170,-140"/><circle cx="170" cy="-140" r="140"/><circle cx="170" cy="140" r="140"/><circle cx="-170" cy="140" r="140"/><circle cx="-170" cy="-140" r="140"/><polygon points="310,-140 310,140 30,140 30,-140"/><polygon points="170,0 -170,0 -170,280 170,280"/><polygon points="-30,140 -30,-140 -310,-140 -310,140"/><polygon points="-170,-280 170,-280 170,0 -170,0"/></g><rect x="-500" y="-1075" width="1000" height="2150" id="cx_314FdQ67VozqYkN7q_pad-26"/><rect x="-1625" y="-1075" width="3250" height="2150" id="cx_314FdQ67VozqYkN7q_pad-27"/><g id="cx_314FdQ67VozqYkN7q_pad-28"><polygon points="-135,-185 135,-185 135,185 -135,185"/><circle cx="-135" cy="-185" r="135"/><circle cx="135" cy="-185" r="135"/><circle cx="135" cy="185" r="135"/><circle cx="-135" cy="185" r="135"/><polygon points="-135,-320 135,-320 135,-50 -135,-50"/><polygon points="270,-185 270,185 0,185 0,-185"/><polygon points="135,50 -135,50 -135,320 135,320"/><polygon points="0,185 0,-185 -270,-185 -270,185"/></g></defs><g transform="translate(0,-184548.4) scale(1,-1)" fill="currentColor" stroke="currentColor"><use xlink:href="#cx_314FdQ67VozqYkN7q_pad-10" x="152275" y="-79450"/><use xlink:href="#cx_314FdQ67VozqYkN7q_pad-10" x="149475" y="-79450"/><use xlink:href="#cx_314FdQ67VozqYkN7q_pad-11" x="152945" y="-90380"/><use xlink:href="#cx_314FdQ67VozqYkN7q_pad-11" x="153905" y="-90380"/><use xlink:href="#cx_314FdQ67VozqYkN7q_pad-12" x="133520" y="-91780"/><use xlink:href="#cx_314FdQ67VozqYkN7q_pad-12" x="133520" y="-90760"/><use xlink:href="#cx_314FdQ67VozqYkN7q_pad-13" x="145157.3" y="-104645.1"/><use xlink:href="#cx_314FdQ67VozqYkN7q_pad-13" x="141452.7" y="-104645.1"/><use xlink:href="#cx_314FdQ67VozqYkN7q_pad-14" x="146630" y="-84062.5"/><use xlink:href="#cx_314FdQ67VozqYkN7q_pad-14" x="145855" y="-84062.5"/><use xlink:href="#cx_314FdQ67VozqYkN7q_pad-15" x="145155" y="-84062.5"/><use xlink:href="#cx_314FdQ67VozqYkN7q_pad-15" x="144655" y="-84062.5"/><use xlink:href="#cx_314FdQ67VozqYkN7q_pad-15" x="144155" y="-84062.5"/><use xlink:href="#cx_314FdQ67VozqYkN7q_pad-15" x="143655" y="-84062.5"/><use xlink:href="#cx_314FdQ67VozqYkN7q_pad-15" x="143155" y="-84062.5"/><use xlink:href="#cx_314FdQ67VozqYkN7q_pad-15" x="142655" y="-84062.5"/><use xlink:href="#cx_314FdQ67VozqYkN7q_pad-15" x="142155" y="-84062.5"/><use xlink:href="#cx_314FdQ67VozqYkN7q_pad-15" x="141655" y="-84062.5"/><use xlink:href="#cx_314FdQ67VozqYkN7q_pad-14" x="140955" y="-84062.5"/><use xlink:href="#cx_314FdQ67VozqYkN7q_pad-14" x="140180" y="-84062.5"/><use xlink:href="#cx_314FdQ67VozqYkN7q_pad-11" x="148995" y="-91217.5"/><use xlink:href="#cx_314FdQ67VozqYkN7q_pad-11" x="149955" y="-91217.5"/><use xlink:href="#cx_314FdQ67VozqYkN7q_pad-16" x="137005" y="-80790"/><use xlink:href="#cx_314FdQ67VozqYkN7q_pad-16" x="136045" y="-80790"/><use xlink:href="#cx_314FdQ67VozqYkN7q_pad-16" x="138485" y="-95497.5"/><use xlink:href="#cx_314FdQ67VozqYkN7q_pad-16" x="137525" y="-95497.5"/><use xlink:href="#cx_314FdQ67VozqYkN7q_pad-17" x="141965" y="-100370"/><use xlink:href="#cx_314FdQ67VozqYkN7q_pad-17" x="141965" y="-101390"/><use xlink:href="#cx_314FdQ67VozqYkN7q_pad-11" x="148305" y="-95500"/><use xlink:href="#cx_314FdQ67VozqYkN7q_pad-11" x="149265" y="-95500"/><use xlink:href="#cx_314FdQ67VozqYkN7q_pad-18" x="152245" y="-94225"/><use xlink:href="#cx_314FdQ67VozqYkN7q_pad-18" x="156395" y="-94225"/><use xlink:href="#cx_314FdQ67VozqYkN7q_pad-18" x="152245" y="-96375"/><use xlink:href="#cx_314FdQ67VozqYkN7q_pad-18" x="156395" y="-96375"/><use xlink:href="#cx_314FdQ67VozqYkN7q_pad-12" x="134500" y="-91780"/><use xlink:href="#cx_314FdQ67VozqYkN7q_pad-12" x="134500" y="-90760"/><use xlink:href="#cx_314FdQ67VozqYkN7q_pad-19" x="129805" y="-82525"/><use xlink:href="#cx_314FdQ67VozqYkN7q_pad-19" x="129805" y="-83795"/><use xlink:href="#cx_314FdQ67VozqYkN7q_pad-19" x="129805" y="-85065"/><use xlink:href="#cx_314FdQ67VozqYkN7q_pad-19" x="129805" y="-86335"/><use xlink:href="#cx_314FdQ67VozqYkN7q_pad-19" x="137005" y="-86335"/><use xlink:href="#cx_314FdQ67VozqYkN7q_pad-19" x="137005" y="-85065"/><use xlink:href="#cx_314FdQ67VozqYkN7q_pad-19" x="137005" y="-83795"/><use xlink:href="#cx_314FdQ67VozqYkN7q_pad-19" x="137005" y="-82525"/><use xlink:href="#cx_314FdQ67VozqYkN7q_pad-20" x="143595" y="-99930"/><use xlink:href="#cx_314FdQ67VozqYkN7q_pad-20" x="143595" y="-100890"/><use xlink:href="#cx_314FdQ67VozqYkN7q_pad-17" x="145375" y="-88055"/><use xlink:href="#cx_314FdQ67VozqYkN7q_pad-17" x="145375" y="-89075"/><use xlink:href="#cx_314FdQ67VozqYkN7q_pad-12" x="150440" y="-97400"/><use xlink:href="#cx_314FdQ67VozqYkN7q_pad-12" x="150440" y="-96380"/><use xlink:href="#cx_314FdQ67VozqYkN7q_pad-16" x="144725" y="-102320"/><use xlink:href="#cx_314FdQ67VozqYkN7q_pad-16" x="143765" y="-102320"/><use xlink:href="#cx_314FdQ67VozqYkN7q_pad-11" x="155125" y="-79440"/><use xlink:href="#cx_314FdQ67VozqYkN7q_pad-11" x="156085" y="-79440"/><use xlink:href="#cx_314FdQ67VozqYkN7q_pad-21" x="139885" y="-86440"/><use xlink:href="#cx_314FdQ67VozqYkN7q_pad-21" x="138865" y="-86440"/><use xlink:href="#cx_314FdQ67VozqYkN7q_pad-12" x="144395" y="-89075"/><use xlink:href="#cx_314FdQ67VozqYkN7q_pad-12" x="144395" y="-88055"/><use xlink:href="#cx_314FdQ67VozqYkN7q_pad-22" x="142757.5" y="-95135"/><use xlink:href="#cx_314FdQ67VozqYkN7q_pad-22" x="144032.5" y="-93860"/><use xlink:href="#cx_314FdQ67VozqYkN7q_pad-22" x="144032.5" y="-95135"/><use xlink:href="#cx_314FdQ67VozqYkN7q_pad-22" x="142757.5" y="-93860"/><use xlink:href="#cx_314FdQ67VozqYkN7q_pad-23" x="139957.5" y="-91897.5"/><use xlink:href="#cx_314FdQ67VozqYkN7q_pad-23" x="139957.5" y="-92297.5"/><use xlink:href="#cx_314FdQ67VozqYkN7q_pad-23" x="139957.5" y="-92697.5"/><use xlink:href="#cx_314FdQ67VozqYkN7q_pad-23" x="139957.5" y="-93097.5"/><use xlink:href="#cx_314FdQ67VozqYkN7q_pad-23" x="139957.5" y="-93497.5"/><use xlink:href="#cx_314FdQ67VozqYkN7q_pad-23" x="139957.5" y="-93897.5"/><use xlink:href="#cx_314FdQ67VozqYkN7q_pad-23" x="139957.5" y="-94297.5"/><use xlink:href="#cx_314FdQ67VozqYkN7q_pad-23" x="139957.5" y="-94697.5"/><use xlink:href="#cx_314FdQ67VozqYkN7q_pad-23" x="139957.5" y="-95097.5"/><use xlink:href="#cx_314FdQ67VozqYkN7q_pad-23" x="139957.5" y="-95497.5"/><use xlink:href="#cx_314FdQ67VozqYkN7q_pad-23" x="139957.5" y="-95897.5"/><use xlink:href="#cx_314FdQ67VozqYkN7q_pad-23" x="139957.5" y="-96297.5"/><use xlink:href="#cx_314FdQ67VozqYkN7q_pad-23" x="139957.5" y="-96697.5"/><use xlink:href="#cx_314FdQ67VozqYkN7q_pad-23" x="139957.5" y="-97097.5"/><use xlink:href="#cx_314FdQ67VozqYkN7q_pad-24" x="140795" y="-97935"/><use xlink:href="#cx_314FdQ67VozqYkN7q_pad-24" x="141195" y="-97935"/><use xlink:href="#cx_314FdQ67VozqYkN7q_pad-24" x="141595" y="-97935"/><use xlink:href="#cx_314FdQ67VozqYkN7q_pad-24" x="141995" y="-97935"/><use xlink:href="#cx_314FdQ67VozqYkN7q_pad-24" x="142395" y="-97935"/><use xlink:href="#cx_314FdQ67VozqYkN7q_pad-24" x="142795" y="-97935"/><use xlink:href="#cx_314FdQ67VozqYkN7q_pad-24" x="143195" y="-97935"/><use xlink:href="#cx_314FdQ67VozqYkN7q_pad-24" x="143595" y="-97935"/><use xlink:href="#cx_314FdQ67VozqYkN7q_pad-24" x="143995" y="-97935"/><use xlink:href="#cx_314FdQ67VozqYkN7q_pad-24" x="144395" y="-97935"/><use xlink:href="#cx_314FdQ67VozqYkN7q_pad-24" x="144795" y="-97935"/><use xlink:href="#cx_314FdQ67VozqYkN7q_pad-24" x="145195" y="-97935"/><use xlink:href="#cx_314FdQ67VozqYkN7q_pad-24" x="145595" y="-97935"/><use xlink:href="#cx_314FdQ67VozqYkN7q_pad-24" x="145995" y="-97935"/><use xlink:href="#cx_314FdQ67VozqYkN7q_pad-23" x="146832.5" y="-97097.5"/><use xlink:href="#cx_314FdQ67VozqYkN7q_pad-23" x="146832.5" y="-96697.5"/><use xlink:href="#cx_314FdQ67VozqYkN7q_pad-23" x="146832.5" y="-96297.5"/><use xlink:href="#cx_314FdQ67VozqYkN7q_pad-23" x="146832.5" y="-95897.5"/><use xlink:href="#cx_314FdQ67VozqYkN7q_pad-23" x="146832.5" y="-95497.5"/><use xlink:href="#cx_314FdQ67VozqYkN7q_pad-23" x="146832.5" y="-95097.5"/><use xlink:href="#cx_314FdQ67VozqYkN7q_pad-23" x="146832.5" y="-94697.5"/><use xlink:href="#cx_314FdQ67VozqYkN7q_pad-23" x="146832.5" y="-94297.5"/><use xlink:href="#cx_314FdQ67VozqYkN7q_pad-23" x="146832.5" y="-93897.5"/><use xlink:href="#cx_314FdQ67VozqYkN7q_pad-23" x="146832.5" y="-93497.5"/><use xlink:href="#cx_314FdQ67VozqYkN7q_pad-23" x="146832.5" y="-93097.5"/><use xlink:href="#cx_314FdQ67VozqYkN7q_pad-23" x="146832.5" y="-92697.5"/><use xlink:href="#cx_314FdQ67VozqYkN7q_pad-23" x="146832.5" y="-92297.5"/><use xlink:href="#cx_314FdQ67VozqYkN7q_pad-23" x="146832.5" y="-91897.5"/><use xlink:href="#cx_314FdQ67VozqYkN7q_pad-24" x="145995" y="-91060"/><use xlink:href="#cx_314FdQ67VozqYkN7q_pad-24" x="145595" y="-91060"/><use xlink:href="#cx_314FdQ67VozqYkN7q_pad-24" x="145195" y="-91060"/><use xlink:href="#cx_314FdQ67VozqYkN7q_pad-24" x="144795" y="-91060"/><use xlink:href="#cx_314FdQ67VozqYkN7q_pad-24" x="144395" y="-91060"/><use xlink:href="#cx_314FdQ67VozqYkN7q_pad-24" x="143995" y="-91060"/><use xlink:href="#cx_314FdQ67VozqYkN7q_pad-24" x="143595" y="-91060"/><use xlink:href="#cx_314FdQ67VozqYkN7q_pad-24" x="143195" y="-91060"/><use xlink:href="#cx_314FdQ67VozqYkN7q_pad-24" x="142795" y="-91060"/><use xlink:href="#cx_314FdQ67VozqYkN7q_pad-24" x="142395" y="-91060"/><use xlink:href="#cx_314FdQ67VozqYkN7q_pad-24" x="141995" y="-91060"/><use xlink:href="#cx_314FdQ67VozqYkN7q_pad-24" x="141595" y="-91060"/><use xlink:href="#cx_314FdQ67VozqYkN7q_pad-24" x="141195" y="-91060"/><use xlink:href="#cx_314FdQ67VozqYkN7q_pad-24" x="140795" y="-91060"/><use xlink:href="#cx_314FdQ67VozqYkN7q_pad-11" x="140035" y="-102320"/><use xlink:href="#cx_314FdQ67VozqYkN7q_pad-11" x="140995" y="-102320"/><use xlink:href="#cx_314FdQ67VozqYkN7q_pad-16" x="138485" y="-91097.5"/><use xlink:href="#cx_314FdQ67VozqYkN7q_pad-16" x="137525" y="-91097.5"/><use xlink:href="#cx_314FdQ67VozqYkN7q_pad-25" x="143415" y="-88740"/><use xlink:href="#cx_314FdQ67VozqYkN7q_pad-25" x="143415" y="-87780"/><use xlink:href="#cx_314FdQ67VozqYkN7q_pad-25" x="147305" y="-89315"/><use xlink:href="#cx_314FdQ67VozqYkN7q_pad-25" x="147305" y="-88355"/><use xlink:href="#cx_314FdQ67VozqYkN7q_pad-18" x="130935" y="-94240"/><use xlink:href="#cx_314FdQ67VozqYkN7q_pad-18" x="135085" y="-94240"/><use xlink:href="#cx_314FdQ67VozqYkN7q_pad-18" x="130935" y="-96390"/><use xlink:href="#cx_314FdQ67VozqYkN7q_pad-18" x="135085" y="-96390"/><use xlink:href="#cx_314FdQ67VozqYkN7q_pad-25" x="142455" y="-88742.5"/><use xlink:href="#cx_314FdQ67VozqYkN7q_pad-25" x="142455" y="-87782.5"/><use xlink:href="#cx_314FdQ67VozqYkN7q_pad-11" x="148995" y="-90257.5"/><use xlink:href="#cx_314FdQ67VozqYkN7q_pad-11" x="149955" y="-90257.5"/><use xlink:href="#cx_314FdQ67VozqYkN7q_pad-26" x="155240.75" y="-82440"/><use xlink:href="#cx_314FdQ67VozqYkN7q_pad-26" x="152940.75" y="-82440"/><use xlink:href="#cx_314FdQ67VozqYkN7q_pad-26" x="150640.75" y="-82440"/><use xlink:href="#cx_314FdQ67VozqYkN7q_pad-27" x="152940.75" y="-88240"/><use xlink:href="#cx_314FdQ67VozqYkN7q_pad-25" x="146345" y="-89315"/><use xlink:href="#cx_314FdQ67VozqYkN7q_pad-25" x="146345" y="-88355"/><use xlink:href="#cx_314FdQ67VozqYkN7q_pad-28" x="146425" y="-86440"/><use xlink:href="#cx_314FdQ67VozqYkN7q_pad-28" x="147445" y="-86440"/><use xlink:href="#cx_314FdQ67VozqYkN7q_pad-20" x="144675" y="-99930"/><use xlink:href="#cx_314FdQ67VozqYkN7q_pad-20" x="144675" y="-100890"/></g></svg>