<svg version="1.1" xmlns="http://www.w3.org/2000/svg" xmlns:xlink="http://www.w3.org/1999/xlink" stroke-linecap="round" stroke-linejoin="round" stroke-width="0" fill-rule="evenodd" width="1.2126in" height="1.094in" viewBox="5039.95 -4179.3 1212.6 1094" id="I6Gzz4vJ9-Bzt9J_Zvqt"><defs><circle cx="0" cy="0" r="6.9" id="I6Gzz4vJ9-Bzt9J_Zvqt_pad-1"/><circle cx="0" cy="0" r="6.9" id="I6Gzz4vJ9-Bzt9J_Zvqt_pad-2"/><circle cx="0" cy="0" r="15.75" id="I6Gzz4vJ9-Bzt9J_Zvqt_pad-4"/></defs><g transform="translate(0,-7264.6) scale(1,-1)" fill="currentColor" stroke="currentColor"><use xlink:href="#I6Gzz4vJ9-Bzt9J_Zvqt_pad-1" x="5129.9" y="-3750"/><use xlink:href="#I6Gzz4vJ9-Bzt9J_Zvqt_pad-1" x="5168.1" y="-3298.8"/><use xlink:href="#I6Gzz4vJ9-Bzt9J_Zvqt_pad-1" x="5168.1" y="-3348.8"/><use xlink:href="#I6Gzz4vJ9-Bzt9J_Zvqt_pad-1" x="5168.1" y="-3398.8"/><use xlink:href="#I6Gzz4vJ9-Bzt9J_Zvqt_pad-1" x="5185.8" y="-3750"/><use xlink:href="#I6Gzz4vJ9-Bzt9J_Zvqt_pad-1" x="5213" y="-3699.6"/><use xlink:href="#I6Gzz4vJ9-Bzt9J_Zvqt_pad-1" x="5215.6" y="-3321.7"/><use xlink:href="#I6Gzz4vJ9-Bzt9J_Zvqt_pad-1" x="5216.5" y="-3613.4"/><use xlink:href="#I6Gzz4vJ9-Bzt9J_Zvqt_pad-1" x="5238.8" y="-3372.2"/><use xlink:href="#I6Gzz4vJ9-Bzt9J_Zvqt_pad-1" x="5265.6" y="-3421.7"/><use xlink:href="#I6Gzz4vJ9-Bzt9J_Zvqt_pad-1" x="5288.8" y="-3371.7"/><use xlink:href="#I6Gzz4vJ9-Bzt9J_Zvqt_pad-1" x="5320.3" y="-3180.7"/><use xlink:href="#I6Gzz4vJ9-Bzt9J_Zvqt_pad-1" x="5336" y="-3348.8"/><use xlink:href="#I6Gzz4vJ9-Bzt9J_Zvqt_pad-1" x="5336" y="-3398.6"/><use xlink:href="#I6Gzz4vJ9-Bzt9J_Zvqt_pad-1" x="5367.7" y="-3710.4"/><use xlink:href="#I6Gzz4vJ9-Bzt9J_Zvqt_pad-1" x="5367.9" y="-3794.9"/><use xlink:href="#I6Gzz4vJ9-Bzt9J_Zvqt_pad-1" x="5378.1" y="-3586.6"/><use xlink:href="#I6Gzz4vJ9-Bzt9J_Zvqt_pad-1" x="5378.5" y="-3759.4"/><use xlink:href="#I6Gzz4vJ9-Bzt9J_Zvqt_pad-1" x="5467.1" y="-3439"/><use xlink:href="#I6Gzz4vJ9-Bzt9J_Zvqt_pad-1" x="5475" y="-3344.5"/><use xlink:href="#I6Gzz4vJ9-Bzt9J_Zvqt_pad-1" x="5513.2" y="-3992.5"/><use xlink:href="#I6Gzz4vJ9-Bzt9J_Zvqt_pad-1" x="5522.2" y="-4073.2"/><use xlink:href="#I6Gzz4vJ9-Bzt9J_Zvqt_pad-1" x="5522.6" y="-4172.4"/><use xlink:href="#I6Gzz4vJ9-Bzt9J_Zvqt_pad-1" x="5536.4" y="-3920.9"/><use xlink:href="#I6Gzz4vJ9-Bzt9J_Zvqt_pad-1" x="5571.9" y="-4058.3"/><use xlink:href="#I6Gzz4vJ9-Bzt9J_Zvqt_pad-1" x="5582.9" y="-3418.5"/><use xlink:href="#I6Gzz4vJ9-Bzt9J_Zvqt_pad-1" x="5620.7" y="-3418.5"/><use xlink:href="#I6Gzz4vJ9-Bzt9J_Zvqt_pad-1" x="5620.7" y="-3972"/><use xlink:href="#I6Gzz4vJ9-Bzt9J_Zvqt_pad-1" x="5637.7" y="-3534.4"/><use xlink:href="#I6Gzz4vJ9-Bzt9J_Zvqt_pad-1" x="5641.1" y="-4136.6"/><use xlink:href="#I6Gzz4vJ9-Bzt9J_Zvqt_pad-1" x="5669.1" y="-3803.1"/><use xlink:href="#I6Gzz4vJ9-Bzt9J_Zvqt_pad-1" x="5677.4" y="-3897.2"/><use xlink:href="#I6Gzz4vJ9-Bzt9J_Zvqt_pad-1" x="5680.5" y="-3637.8"/><use xlink:href="#I6Gzz4vJ9-Bzt9J_Zvqt_pad-1" x="5725" y="-4001.2"/><use xlink:href="#I6Gzz4vJ9-Bzt9J_Zvqt_pad-1" x="5733.7" y="-4028.3"/><use xlink:href="#I6Gzz4vJ9-Bzt9J_Zvqt_pad-1" x="5736.4" y="-3811.4"/><use xlink:href="#I6Gzz4vJ9-Bzt9J_Zvqt_pad-1" x="5761.2" y="-4073.2"/><use xlink:href="#I6Gzz4vJ9-Bzt9J_Zvqt_pad-1" x="5761.6" y="-3441.6"/><use xlink:href="#I6Gzz4vJ9-Bzt9J_Zvqt_pad-1" x="5761.6" y="-4172.4"/><use xlink:href="#I6Gzz4vJ9-Bzt9J_Zvqt_pad-1" x="5778.5" y="-3853.1"/><use xlink:href="#I6Gzz4vJ9-Bzt9J_Zvqt_pad-1" x="5792.7" y="-3889.8"/><use xlink:href="#I6Gzz4vJ9-Bzt9J_Zvqt_pad-1" x="5799.4" y="-3442.8"/><use xlink:href="#I6Gzz4vJ9-Bzt9J_Zvqt_pad-1" x="5816.7" y="-3344.1"/><use xlink:href="#I6Gzz4vJ9-Bzt9J_Zvqt_pad-1" x="5822.6" y="-3805.1"/><use xlink:href="#I6Gzz4vJ9-Bzt9J_Zvqt_pad-1" x="5834.4" y="-3201.2"/><use xlink:href="#I6Gzz4vJ9-Bzt9J_Zvqt_pad-1" x="5840.7" y="-3403.1"/><use xlink:href="#I6Gzz4vJ9-Bzt9J_Zvqt_pad-1" x="5890.7" y="-3302.4"/><use xlink:href="#I6Gzz4vJ9-Bzt9J_Zvqt_pad-1" x="5912.4" y="-3759.5"/><use xlink:href="#I6Gzz4vJ9-Bzt9J_Zvqt_pad-1" x="5939.6" y="-3553.1"/><use xlink:href="#I6Gzz4vJ9-Bzt9J_Zvqt_pad-1" x="5939.6" y="-3590.9"/><use xlink:href="#I6Gzz4vJ9-Bzt9J_Zvqt_pad-1" x="6095.1" y="-3558.3"/><use xlink:href="#I6Gzz4vJ9-Bzt9J_Zvqt_pad-1" x="6145.1" y="-3172"/><use xlink:href="#I6Gzz4vJ9-Bzt9J_Zvqt_pad-1" x="6155.7" y="-3750.2"/><use xlink:href="#I6Gzz4vJ9-Bzt9J_Zvqt_pad-1" x="6156.9" y="-3834.8"/><use xlink:href="#I6Gzz4vJ9-Bzt9J_Zvqt_pad-2" x="5595.3" y="-3670.2"/><use xlink:href="#I6Gzz4vJ9-Bzt9J_Zvqt_pad-2" x="5595.3" y="-3720.4"/><use xlink:href="#I6Gzz4vJ9-Bzt9J_Zvqt_pad-2" x="5595.3" y="-3770.6"/><use xlink:href="#I6Gzz4vJ9-Bzt9J_Zvqt_pad-2" x="5645.5" y="-3670.2"/><use xlink:href="#I6Gzz4vJ9-Bzt9J_Zvqt_pad-2" x="5645.5" y="-3720.4"/><use xlink:href="#I6Gzz4vJ9-Bzt9J_Zvqt_pad-2" x="5645.5" y="-3770.6"/><use xlink:href="#I6Gzz4vJ9-Bzt9J_Zvqt_pad-2" x="5695.7" y="-3670.2"/><use xlink:href="#I6Gzz4vJ9-Bzt9J_Zvqt_pad-2" x="5695.7" y="-3720.4"/><use xlink:href="#I6Gzz4vJ9-Bzt9J_Zvqt_pad-2" x="5695.7" y="-3770.6"/><use xlink:href="#I6Gzz4vJ9-Bzt9J_Zvqt_pad-4" x="5055.7" y="-3507.5"/><use xlink:href="#I6Gzz4vJ9-Bzt9J_Zvqt_pad-4" x="5055.7" y="-3594.1"/><use xlink:href="#I6Gzz4vJ9-Bzt9J_Zvqt_pad-4" x="5055.7" y="-3680.7"/><use xlink:href="#I6Gzz4vJ9-Bzt9J_Zvqt_pad-4" x="5055.7" y="-3767.3"/><use xlink:href="#I6Gzz4vJ9-Bzt9J_Zvqt_pad-4" x="6236.8" y="-3122"/><use xlink:href="#I6Gzz4vJ9-Bzt9J_Zvqt_pad-4" x="6236.8" y="-3208.7"/><use xlink:href="#I6Gzz4vJ9-Bzt9J_Zvqt_pad-4" x="6236.8" y="-3295.3"/><use xlink:href="#I6Gzz4vJ9-Bzt9J_Zvqt_pad-4" x="6236.8" y="-3381.9"/><use xlink:href="#I6Gzz4vJ9-Bzt9J_Zvqt_pad-4" x="6236.8" y="-3468.5"/><use xlink:href="#I6Gzz4vJ9-Bzt9J_Zvqt_pad-4" x="6236.8" y="-3555.1"/><use xlink:href="#I6Gzz4vJ9-Bzt9J_Zvqt_pad-4" x="6236.8" y="-3641.7"/><path d="M 5475.8 -3120.8 5475.8 -3097.1 M 5475.8 -3295.2 5475.8 -3251.9 M 5815.9 -3120.8 5815.9 -3097.1 M 5815.9 -3295.2 5815.9 -3251.9" fill="none" stroke-width="23.6"/></g></svg>