<svg version="1.1" xmlns="http://www.w3.org/2000/svg" xmlns:xlink="http://www.w3.org/1999/xlink" stroke-linecap="round" stroke-linejoin="round" stroke-width="0" fill-rule="evenodd" width="30mm" height="28.71mm" viewBox="128420 -106630 30000 28710" id="vzJqqB0vRZFKHgfoCOJL"><g transform="translate(0,-184550) scale(1,-1)" fill="currentColor" stroke="currentColor"><path d="M 143420 -106630 139520 -106630 A 600 600 0 0 0 138920 -106030 L 138920 -98520 A 600 600 0 0 1 138320 -97920 L 129020 -97920 A 600 600 0 0 0 128420 -97320 L 128420 -78520 A 600 600 0 0 0 129020 -77920 L 157820 -77920 A 600 600 0 0 0 158420 -78520 L 158420 -97320 A 600 600 0 0 0 157820 -97920 L 148520 -97920 A 600 600 0 0 1 147920 -98520 L 147920 -106030 A 600 600 0 0 0 147320 -106630 L 143420 -106630" fill="none" stroke-width="100"/></g></svg>